<svg xmlns="http://www.w3.org/2000/svg" width="32" height="32" fill="none" viewBox="0 0 32 32">
  <path stroke="#91766F" stroke-linecap="round" stroke-linejoin="round" stroke-width="2" d="M25 16H13m12-6H13m12 12H13"/>
  <path fill="#91766F" d="M9.177 7.8V12H8.163V8.802l-.408.126-.24-.852.822-.276h.84ZM9.45 18H6.576v-.366c0-1.212 1.788-1.944 1.788-2.574 0-.252-.168-.396-.426-.396-.276 0-.432.186-.504.414l-.888-.264c.108-.456.486-1.092 1.434-1.092.822 0 1.428.48 1.428 1.296 0 1.068-1.41 1.53-1.608 2.088h1.65V18Zm-1.464 6.078c-.948 0-1.326-.636-1.434-1.092l.888-.264c.072.228.246.414.522.414.282 0 .462-.174.462-.45 0-.234-.168-.432-.492-.432H7.35v-.786l.75-.774H6.726V19.8h2.55v.888l-.762.726c.498.102.948.414.948 1.23 0 .858-.624 1.434-1.476 1.434Z"/>
</svg>
