<svg width="18" height="18" viewBox="0 0 18 18" fill="none" xmlns="http://www.w3.org/2000/svg">
<path d="M4.37246 10.2337L4.41746 10.1437C4.60496 9.77991 4.90121 9.48366 5.26496 9.29616L5.35496 9.25116C5.71121 9.07116 5.71121 8.56116 5.35496 8.37741L5.26496 8.33241C4.90121 8.14491 4.60496 7.84866 4.41746 7.48491L4.37246 7.39491C4.19246 7.03866 3.68246 7.03866 3.49871 7.39491L3.45371 7.48491C3.26621 7.84866 2.96996 8.14491 2.60621 8.33241L2.51621 8.37741C2.15996 8.55741 2.15996 9.06741 2.51621 9.25116L2.60621 9.29616C2.96996 9.48366 3.26621 9.77991 3.45371 10.1437L3.49871 10.2337C3.67871 10.5899 4.18871 10.5899 4.37246 10.2337Z" fill="#0DA8A1"/>
<path d="M15.1087 13.2524L15.0187 13.2074C14.655 13.0199 14.3587 12.7237 14.1712 12.3599L14.1262 12.2699C13.9462 11.9137 13.4362 11.9137 13.2525 12.2699L13.2075 12.3599C13.02 12.7237 12.7237 13.0199 12.36 13.2074L12.27 13.2524C11.9137 13.4324 11.9137 13.9424 12.27 14.1262L12.36 14.1712C12.7237 14.3587 13.02 14.6549 13.2075 15.0187L13.2525 15.1087C13.4325 15.4649 13.9425 15.4649 14.1262 15.1087L14.1712 15.0187C14.3587 14.6549 14.655 14.3587 15.0187 14.1712L15.1087 14.1262C15.465 13.9462 15.465 13.4362 15.1087 13.2524Z" fill="#0DA8A1"/>
<path d="M4.65746 5.54241L4.77746 5.60241C5.15246 5.79366 5.45246 6.09366 5.64371 6.46866L5.70371 6.58866C5.90996 6.99366 6.32246 7.24491 6.77621 7.24491C7.22996 7.24491 7.64246 6.99366 7.85246 6.58866L7.91246 6.46866C8.10371 6.09366 8.40371 5.79366 8.77871 5.60241L8.89871 5.54241C9.30371 5.33616 9.55496 4.92366 9.55496 4.46991C9.55496 4.01616 9.30371 3.60366 8.89871 3.39366L8.77871 3.33366C8.40371 3.14241 8.10371 2.84241 7.91246 2.46741L7.85246 2.34741C7.64621 1.94241 7.23371 1.69116 6.77621 1.69116C6.31871 1.69116 5.90996 1.94241 5.69996 2.34741L5.63996 2.46741C5.44871 2.84241 5.14871 3.14241 4.77371 3.33366L4.65371 3.39366C4.24871 3.59991 3.99746 4.01241 3.99746 4.46991C3.99746 4.92741 4.24871 5.33616 4.65371 5.54616L4.65746 5.54241ZM5.16746 4.39491L5.28746 4.33491C5.87621 4.03491 6.34496 3.56616 6.64496 2.97741L6.70496 2.85741C6.70496 2.85741 6.72746 2.81241 6.77621 2.81241C6.82496 2.81241 6.84371 2.84241 6.84746 2.85741L6.90746 2.97741C7.20746 3.56616 7.67621 4.03491 8.26496 4.33491L8.38496 4.39491C8.38496 4.39491 8.42996 4.41741 8.42996 4.46616C8.42996 4.51491 8.39621 4.53366 8.38496 4.53741L8.26496 4.59741C7.67621 4.89741 7.20746 5.36616 6.90746 5.95491L6.84746 6.07491C6.84746 6.07491 6.82496 6.11991 6.77621 6.11991C6.72746 6.11991 6.70871 6.08616 6.70496 6.07491L6.64496 5.95491C6.34496 5.36616 5.87621 4.89741 5.28746 4.59741L5.16746 4.53741C5.16746 4.53741 5.12246 4.51491 5.12246 4.46616C5.12246 4.41741 5.15621 4.39866 5.16746 4.39491Z" fill="#0DA8A1"/>
<path d="M15.8587 4.74366L15.1312 4.01616C14.8387 3.72366 14.4487 3.56241 14.0362 3.56241C13.6237 3.56241 13.2337 3.72366 12.9412 4.01616L5.15246 11.8049C5.15246 11.8049 5.14496 11.8162 5.14121 11.8237C5.09621 11.8724 5.05871 11.9249 5.03246 11.9849V11.9924L3.94871 14.5762C3.77996 14.9774 3.87371 15.4349 4.18496 15.7424C4.38746 15.9412 4.65371 16.0462 4.92746 16.0462C5.06996 16.0462 5.21621 16.0162 5.35496 15.9562L7.88621 14.8462L7.90121 14.8387C7.96121 14.8124 8.00996 14.7749 8.05496 14.7337C8.05871 14.7299 8.06621 14.7262 8.07371 14.7224L15.8625 6.93366C16.155 6.64116 16.3162 6.25116 16.3162 5.83866C16.3162 5.42616 16.155 5.03616 15.8625 4.74366H15.8587ZM7.67246 13.5299L6.34496 12.2024L12.18 6.36741L13.5075 7.69491L7.67246 13.5299ZM15.0637 6.13866L14.3025 6.89991L12.975 5.57241L13.7362 4.81116C13.8937 4.64991 14.175 4.64991 14.3362 4.81116L15.0637 5.53866C15.1425 5.61741 15.1875 5.72616 15.1875 5.83866C15.1875 5.95116 15.1425 6.05616 15.0637 6.13866Z" fill="#0DA8A1"/>
</svg>
