<svg xmlns="http://www.w3.org/2000/svg" width="14" height="18" fill="none" viewBox="0 0 14 18">
  <path fill="#91766F" fill-rule="evenodd" d="M5.756 1.167h2.488a.7.7 0 0 1 .7.7H5.056a.7.7 0 0 1 .7-.7ZM8.244 0c1.031 0 1.867.836 1.867 1.867v.077h2.139a1.75 1.75 0 0 1 .583 3.4v10.212a1.867 1.867 0 0 1-1.866 1.867H3.033a1.867 1.867 0 0 1-1.866-1.867V5.345a1.75 1.75 0 0 1 .583-3.4h2.139v-.078C3.889.836 4.725 0 5.756 0h2.488ZM1.75 3.111h10.5a.583.583 0 1 1 0 1.167H1.75a.583.583 0 0 1 0-1.167Zm9.917 2.412H2.333v10.033a.7.7 0 0 0 .7.7h7.934a.7.7 0 0 0 .7-.7V5.523ZM4.783 7.389a.583.583 0 0 0-1.166 0v6.689a.583.583 0 0 0 1.166 0v-6.69ZM7 6.806c.322 0 .583.26.583.583v6.689a.583.583 0 0 1-1.166 0v-6.69c0-.321.26-.582.583-.582Zm3.383.583a.583.583 0 0 0-1.166 0v6.689a.583.583 0 0 0 1.166 0v-6.69Z" class="Vector" clip-rule="evenodd"/>
</svg>
