<svg width="32" height="32" viewBox="0 0 32 32" fill="none" xmlns="http://www.w3.org/2000/svg">
<path d="M24.1641 6.71875H22.1875V5.6875C22.1875 5.30783 21.8797 5 21.5 5C21.1203 5 20.8125 5.30783 20.8125 5.6875V6.71875H11.1875V5.6875C11.1875 5.30783 10.8797 5 10.5 5C10.1203 5 9.8125 5.30783 9.8125 5.6875V6.71875H7.83594C6.27218 6.71875 5 7.99093 5 9.55469V24.1641C5 25.7278 6.27218 27 7.83594 27H24.1641C25.7278 27 27 25.7278 27 24.1641V9.55469C27 7.99093 25.7278 6.71875 24.1641 6.71875ZM7.83594 8.09375H9.8125V8.78125C9.8125 9.16092 10.1203 9.46875 10.5 9.46875C10.8797 9.46875 11.1875 9.16092 11.1875 8.78125V8.09375H20.8125V8.78125C20.8125 9.16092 21.1203 9.46875 21.5 9.46875C21.8797 9.46875 22.1875 9.16092 22.1875 8.78125V8.09375H24.1641C24.9696 8.09375 25.625 8.74911 25.625 9.55469V11.1875H6.375V9.55469C6.375 8.74911 7.03036 8.09375 7.83594 8.09375ZM24.1641 25.625H7.83594C7.03036 25.625 6.375 24.9696 6.375 24.1641V12.5625H25.625V24.1641C25.625 24.9696 24.9696 25.625 24.1641 25.625Z" fill="#BDA28F"/>
</svg>
