<svg width="32" height="32" viewBox="0 0 32 32" fill="none" xmlns="http://www.w3.org/2000/svg">
<path fill-rule="evenodd" clip-rule="evenodd" d="M10.5 4.25C10.9142 4.25 11.25 4.58579 11.25 5V6.25H21.025V5C21.025 4.58579 21.3608 4.25 21.775 4.25C22.1892 4.25 22.525 4.58579 22.525 5V6.25H23.35C25.469 6.25 27.25 7.89487 27.25 10V23C27.25 25.1051 25.469 26.75 23.35 26.75H8.65C6.53099 26.75 4.75 25.1051 4.75 23V10C4.75 7.89487 6.53099 6.25 8.65 6.25H9.75V5C9.75 4.58579 10.0858 4.25 10.5 4.25ZM9.75 7.75H8.65C7.28961 7.75 6.25 8.79142 6.25 10V11.25H25.75V10C25.75 8.79142 24.7104 7.75 23.35 7.75H22.525V9C22.525 9.41421 22.1892 9.75 21.775 9.75C21.3608 9.75 21.025 9.41421 21.025 9V7.75H11.25V9C11.25 9.41421 10.9142 9.75 10.5 9.75C10.0858 9.75 9.75 9.41421 9.75 9V7.75ZM25.75 12.75H6.25V23C6.25 24.2086 7.28961 25.25 8.65 25.25H23.35C24.7104 25.25 25.75 24.2086 25.75 23V12.75Z" fill="#BDA28F"/>
</svg>
