<svg width="24" height="24" viewBox="0 0 24 24" fill="none" xmlns="http://www.w3.org/2000/svg">
<path fill-rule="evenodd" clip-rule="evenodd" d="M10.25 5.49998C10.0511 5.49998 9.86031 5.579 9.71966 5.71965C9.57901 5.8603 9.49999 6.05107 9.49999 6.24998C9.49999 6.44889 9.57901 6.63966 9.71966 6.78031C9.86031 6.92096 10.0511 6.99998 10.25 6.99998H20.25C20.4489 6.99998 20.6397 6.92096 20.7803 6.78031C20.921 6.63966 21 6.44889 21 6.24998C21 6.05107 20.921 5.8603 20.7803 5.71965C20.6397 5.579 20.4489 5.49998 20.25 5.49998H10.25ZM10.25 11.5C10.0511 11.5 9.86031 11.579 9.71966 11.7197C9.57901 11.8603 9.49999 12.0511 9.49999 12.25C9.49999 12.4489 9.57901 12.6397 9.71966 12.7803C9.86031 12.921 10.0511 13 10.25 13H20.25C20.4489 13 20.6397 12.921 20.7803 12.7803C20.921 12.6397 21 12.4489 21 12.25C21 12.0511 20.921 11.8603 20.7803 11.7197C20.6397 11.579 20.4489 11.5 20.25 11.5H10.25ZM10.25 17.5C10.0511 17.5 9.86031 17.579 9.71966 17.7197C9.57901 17.8603 9.49999 18.0511 9.49999 18.25C9.49999 18.4489 9.57901 18.6397 9.71966 18.7803C9.86031 18.921 10.0511 19 10.25 19H20.25C20.4489 19 20.6397 18.921 20.7803 18.7803C20.921 18.6397 21 18.4489 21 18.25C21 18.0511 20.921 17.8603 20.7803 17.7197C20.6397 17.579 20.4489 17.5 20.25 17.5H10.25Z" fill="#91766F"/>
<path d="M8.06815 4.96998C8.3323 4.65155 8.30553 4.16395 8.00837 3.8809C7.71121 3.59785 7.25619 3.62653 6.99205 3.94496L5.09964 6.35491L4.22893 5.42176C3.9478 5.1205 3.49199 5.1205 3.21085 5.42176C2.92972 5.72302 2.92972 6.21146 3.21085 6.51272L4.62142 8.02438C4.76162 8.17461 4.95343 8.25624 5.15161 8.25C5.34979 8.24375 5.53679 8.1502 5.66852 7.99141L8.06815 4.96998Z" fill="#91766F"/>
<path fill-rule="evenodd" clip-rule="evenodd" d="M3 16.1081C3 15.6618 3.33765 15.3 3.75417 15.3H6.86513C7.28165 15.3 7.61931 15.6618 7.61931 16.1081V19.4418C7.61931 19.8881 7.28165 20.25 6.86513 20.25H3.75417C3.33765 20.25 3 19.8881 3 19.4418V16.1081ZM4.43978 18.7071V16.8428H6.17952V18.7071H4.43978Z" fill="#91766F"/>
<path d="M8.00837 9.83768C8.30553 10.1207 8.3323 10.6083 8.06815 10.9268L5.66852 13.9482C5.53679 14.107 5.34979 14.2005 5.15161 14.2068C4.95343 14.213 4.76162 14.1314 4.62142 13.9812L3.21085 12.4695C2.92972 12.1682 2.92972 11.6798 3.21085 11.3785C3.49199 11.0773 3.9478 11.0773 4.22893 11.3785L5.09964 12.3117L6.99205 9.90175C7.25619 9.58332 7.71121 9.55463 8.00837 9.83768Z" fill="#91766F"/>
</svg>
