<svg width="10" height="10" viewBox="0 0 10 10" fill="none" xmlns="http://www.w3.org/2000/svg">
<path d="M3.18275 1.36988L2.93537 1.61555C2.85811 1.69287 2.81555 1.79574 2.81555 1.90568C2.81555 2.01555 2.85811 2.11854 2.93537 2.19586L5.73795 4.99832L2.93226 7.80402C2.855 7.88121 2.8125 7.9842 2.8125 8.09408C2.8125 8.20396 2.855 8.30701 2.93226 8.38427L3.17811 8.63C3.33799 8.79 3.59842 8.79 3.7583 8.63L7.11083 5.28948C7.18802 5.21229 7.24241 5.10942 7.24241 4.99857L7.24241 4.99729C7.24241 4.88735 7.18796 4.78448 7.11083 4.70728L3.76739 1.36988C3.69019 1.29256 3.58421 1.25012 3.47433 1.25C3.36439 1.25 3.25988 1.29256 3.18275 1.36988Z" fill="#BDA28F"/>
</svg>
