<svg width="10" height="10" viewBox="0 0 10 10" fill="none" xmlns="http://www.w3.org/2000/svg">
<path d="M6.81725 8.63012L7.06463 8.38445C7.14189 8.30713 7.18445 8.20426 7.18445 8.09432C7.18445 7.98445 7.14189 7.88146 7.06463 7.80414L4.26205 5.00168L7.06774 2.19598C7.145 2.11879 7.1875 2.0158 7.1875 1.90592C7.1875 1.79604 7.145 1.69299 7.06774 1.61573L6.82189 1.37C6.66201 1.21 6.40158 1.21 6.2417 1.37L2.88917 4.71052C2.81198 4.78771 2.75759 4.89058 2.75759 5.00143L2.75759 5.00271C2.75759 5.11265 2.81204 5.21552 2.88917 5.29272L6.23261 8.63012C6.30981 8.70744 6.41579 8.74988 6.52566 8.75C6.6356 8.75 6.74012 8.70744 6.81725 8.63012Z" fill="#BDA28F"/>
</svg>
