<svg width="32" height="32" viewBox="0 0 32 32" fill="none" xmlns="http://www.w3.org/2000/svg">
<path d="M20.5975 17.5309L17.3907 15.1258V10.2266C17.3907 9.73395 16.9925 9.33576 16.4999 9.33576C16.0072 9.33576 15.609 9.73395 15.609 10.2266V15.5713C15.609 15.8519 15.7409 16.1164 15.9654 16.2839L19.5285 18.9563C19.6888 19.0765 19.8759 19.1344 20.0621 19.1344C20.3338 19.1344 20.601 19.0124 20.7756 18.7772C21.0714 18.3843 20.9912 17.8258 20.5975 17.5309Z" fill="#BDA28F"/>
<path d="M16.5 4C10.1585 4 5 9.15851 5 15.5C5 21.8415 10.1585 27 16.5 27C22.8415 27 28 21.8415 28 15.5C28 9.15851 22.8415 4 16.5 4ZM16.5 25.2184C11.1419 25.2184 6.78156 20.8581 6.78156 15.5C6.78156 10.1419 11.1419 5.78156 16.5 5.78156C21.859 5.78156 26.2184 10.1419 26.2184 15.5C26.2184 20.8581 21.8581 25.2184 16.5 25.2184Z" fill="#BDA28F"/>
</svg>
