<svg width="18" height="18" viewBox="0 0 18 18" fill="none" xmlns="http://www.w3.org/2000/svg">
<path d="M9.33333 5.66667C9.59704 5.66667 9.85483 5.58847 10.0741 5.44196C10.2934 5.29545 10.4643 5.08721 10.5652 4.84358C10.6661 4.59994 10.6925 4.33185 10.641 4.07321C10.5896 3.81457 10.4626 3.57699 10.2761 3.39052C10.0897 3.20405 9.8521 3.07707 9.59345 3.02562C9.33481 2.97417 9.06672 3.00058 8.82309 3.10149C8.57945 3.20241 8.37122 3.37331 8.22471 3.59257C8.0782 3.81184 8 4.06963 8 4.33333C8 4.68696 8.14048 5.02609 8.39053 5.27614C8.64057 5.52619 8.97971 5.66667 9.33333 5.66667ZM9.33333 12.3333C9.06963 12.3333 8.81184 12.4115 8.59257 12.558C8.37331 12.7045 8.20241 12.9128 8.10149 13.1564C8.00058 13.4001 7.97417 13.6681 8.02562 13.9268C8.07707 14.1854 8.20406 14.423 8.39053 14.6095C8.577 14.7959 8.81457 14.9229 9.07321 14.9744C9.33186 15.0258 9.59994 14.9994 9.84358 14.8985C10.0872 14.7976 10.2955 14.6267 10.442 14.4074C10.5885 14.1882 10.6667 13.9304 10.6667 13.6667C10.6667 13.313 10.5262 12.9739 10.2761 12.7239C10.0261 12.4738 9.68696 12.3333 9.33333 12.3333ZM9.33333 7.66667C9.06963 7.66667 8.81184 7.74487 8.59257 7.89137C8.37331 8.03788 8.20241 8.24612 8.10149 8.48976C8.00058 8.73339 7.97417 9.00148 8.02562 9.26012C8.07707 9.51876 8.20406 9.75634 8.39053 9.94281C8.577 10.1293 8.81457 10.2563 9.07321 10.3077C9.33186 10.3592 9.59994 10.3328 9.84358 10.2318C10.0872 10.1309 10.2955 9.96003 10.442 9.74076C10.5885 9.52149 10.6667 9.26371 10.6667 9C10.6667 8.64638 10.5262 8.30724 10.2761 8.05719C10.0261 7.80714 9.68696 7.66667 9.33333 7.66667Z" fill="#91766F"/>
</svg>
