<svg width="13" height="13" viewBox="0 0 13 13" fill="none" xmlns="http://www.w3.org/2000/svg">
<path d="M2.14551 6.1888L2.4437 5.89562C2.53755 5.80406 2.66241 5.75362 2.79585 5.75362C2.92923 5.75362 3.05423 5.80406 3.14808 5.89562L6.54969 9.21703L9.95522 5.89194C10.0489 5.80038 10.1739 5.75001 10.3073 5.75001C10.4407 5.75001 10.5657 5.80038 10.6595 5.89194L10.9578 6.18331C11.152 6.37279 11.152 6.68143 10.9578 6.8709L6.9031 10.8441C6.8094 10.9356 6.68454 11 6.54998 11H6.54843C6.41499 11 6.29013 10.9355 6.19643 10.8441L2.14551 6.88167C2.05166 6.79018 2.00015 6.66459 2 6.53437C2 6.40407 2.05166 6.28021 2.14551 6.1888Z" fill="#90766F"/>
<path d="M5.85362 2.6C5.85362 2.26863 6.12225 2 6.45362 2H6.75362C7.08499 2 7.35362 2.26863 7.35362 2.6V8.9C7.35362 9.23137 7.08499 9.5 6.75362 9.5H6.45362C6.12225 9.5 5.85362 9.23137 5.85362 8.9V2.6Z" fill="#90766F"/>
</svg>
