<svg xmlns="http://www.w3.org/2000/svg" width="638" height="235" fill="none" viewBox="0 0 638 235">
  <ellipse cx="98.154" cy="226.481" fill="#EBE5DD" rx="86.062" ry="4.97"/>
  <path fill="#8D5219" fill-rule="evenodd" d="M118.976 120.695h13.514l-32.007 106.451h-4.978l23.471-106.451z" clip-rule="evenodd"/>
  <path fill="#7C4612" fill-rule="evenodd" d="M99.061 227.146h2.845l32.007-106.451h-2.845L99.061 227.146z" clip-rule="evenodd"/>
  <path fill="#8D5219" fill-rule="evenodd" d="M155.055 121.45h-13.514l32.006 106.451h4.979L155.055 121.45z" clip-rule="evenodd"/>
  <path fill="#7C4612" fill-rule="evenodd" d="M175.681 227.901h2.845L155.055 121.45h-2.846l23.472 106.451z" clip-rule="evenodd"/>
  <path fill="#AB6C2C" fill-rule="evenodd" d="M96.731 118.745l81.596-6.068.496 7.545-81.596 6.068-.496-7.545z" clip-rule="evenodd"/>
  <path fill="#824D18" fill-rule="evenodd" d="M171.232 113.205l7.095-.528.496 7.545-7.095.528-.496-7.545z" clip-rule="evenodd"/>
  <g>
    <path fill="#FFDD6E" fill-rule="evenodd" d="M.197 30.602c-.352-5.327 3.868-9.844 9.207-9.855l72.801-.154a9.246 9.246 0 018.916 6.727l32.162 113.558c1.671 5.902-2.763 11.766-8.897 11.766H16.913a9.247 9.247 0 01-9.226-8.637L.197 30.602z" clip-rule="evenodd"/>
    <rect width="153.632" height="24.139" x="7.824" y="141.994" fill="#E3BD3F" rx="3.556"/>
  </g>
  <g>
    <path fill="#8D5219" fill-rule="evenodd" d="M35.759 122.825h13.514L17.266 229.276h-4.979L35.76 122.825z" clip-rule="evenodd"/>
    <path fill="#7C4612" fill-rule="evenodd" d="M15.844 229.276h2.845l32.006-106.451H47.85L15.843 229.276z" clip-rule="evenodd"/>
    <path fill="#8D5219" fill-rule="evenodd" d="M71.837 123.58H58.323L90.33 230.031h4.979L71.837 123.58z" clip-rule="evenodd"/>
    <path fill="#7C4612" fill-rule="evenodd" d="M92.463 230.031h2.846L71.837 123.58h-2.845l23.471 106.451z" clip-rule="evenodd"/>
    <path fill="#AB6C2C" fill-rule="evenodd" d="M13.514 120.875l81.596-6.068.496 7.546-81.596 6.067-.496-7.545z" clip-rule="evenodd"/>
    <path fill="#824D18" fill-rule="evenodd" d="M88.014 115.335l7.096-.528.496 7.545-7.095.528-.496-7.545z" clip-rule="evenodd"/>
  </g>
  <g>
    <ellipse fill="#EBE5DD" rx="86.062" ry="4.97" transform="matrix(-1 0 0 1 551.938 226.481)"/>
    <path fill="#8D5219" fill-rule="evenodd" d="M511.911 120.695h-13.514l32.007 106.451h4.979l-23.472-106.451z" clip-rule="evenodd"/>
    <path fill="#7C4612" fill-rule="evenodd" d="M531.826 227.146h-2.845l-32.006-106.451h2.844l32.007 106.451z" clip-rule="evenodd"/>
    <path fill="#8D5219" fill-rule="evenodd" d="M475.833 121.45h13.514L457.34 227.901h-4.979l23.472-106.451z" clip-rule="evenodd"/>
    <path fill="#7C4612" fill-rule="evenodd" d="M455.206 227.901h-2.845l23.472-106.451h2.845l-23.472 106.451z" clip-rule="evenodd"/>
    <path fill="#AB6C2C" fill-rule="evenodd" d="M534.156 118.745l-81.595-6.068-.497 7.545 81.596 6.068.496-7.545z" clip-rule="evenodd"/>
    <path fill="#824D18" fill-rule="evenodd" d="M459.656 113.205l-7.095-.528-.497 7.545 7.096.528.496-7.545z" clip-rule="evenodd"/>
    <g>
      <path fill="#C72835" fill-rule="evenodd" d="M615.042 30.602c.352-5.327-3.868-9.844-9.206-9.855l-72.802-.154a9.247 9.247 0 00-8.916 6.727l-32.161 113.558c-1.672 5.902 2.762 11.766 8.896 11.766h97.473a9.247 9.247 0 009.226-8.637l7.49-113.405z" clip-rule="evenodd"/>
      <rect width="153.632" height="24.139" fill="#8C1F1F" rx="3.556" transform="matrix(-1 0 0 1 607.415 141.994)"/>
    </g>
    <g>
      <path fill="#8D5219" fill-rule="evenodd" d="M592.283 122.825h-13.514l32.007 106.451h4.979l-23.472-106.451z" clip-rule="evenodd"/>
      <path fill="#7C4612" fill-rule="evenodd" d="M612.198 229.276h-2.845l-32.006-106.451h2.845l32.006 106.451z" clip-rule="evenodd"/>
      <path fill="#8D5219" fill-rule="evenodd" d="M556.205 123.58h13.514l-32.007 106.451h-4.979l23.472-106.451z" clip-rule="evenodd"/>
      <path fill="#7C4612" fill-rule="evenodd" d="M535.578 230.031h-2.845l23.472-106.451h2.845l-23.472 106.451z" clip-rule="evenodd"/>
      <path fill="#AB6C2C" fill-rule="evenodd" d="M614.528 120.875l-81.595-6.068-.497 7.546 81.596 6.067.496-7.545z" clip-rule="evenodd"/>
      <path fill="#824D18" fill-rule="evenodd" d="M540.028 115.335l-7.095-.528-.496 7.545 7.095.528.496-7.545z" clip-rule="evenodd"/>
    </g>
  </g>
  <g>
    <path fill="#0B7A75" fill-rule="evenodd" d="M301.468 28.077c6.002 12.284 6.516 25.2 2.212 33.68-5.617-1.104-11.428-4.564-16.474-9.817l10.225-2.782-14.767-2.742a52.201 52.201 0 01-4.21-7.135c-2.533-5.184-4.088-10.48-4.717-15.508l11.633 1.422-11.953-6.825c.044-4.795 1.003-9.179 2.825-12.768 6.652 1.306 13.577 5.919 19.181 12.902l-2.349 16.21 6.315-10.483a53.066 53.066 0 012.079 3.846z" clip-rule="evenodd"/>
    <path fill="#2EC4B6" fill-rule="evenodd" d="M293.398 64.486c-1.656-5.673-6.873-10.658-13.937-12.548a22.73 22.73 0 00-2.612-.537l1.733 7.823-5.569-8.041c-4.685.15-8.95 1.841-11.905 4.666.71 2.437 2.078 4.746 3.967 6.738l6.87-3.248-4.748 5.178c2.198 1.727 4.857 3.08 7.847 3.88 7.063 1.89 14.078.176 18.354-3.91z" clip-rule="evenodd"/>
    <path fill="#0B7A75" fill-rule="evenodd" d="M328.362 63.306c7.373-.117 15.041-4.705 19.553-12.506a27.528 27.528 0 001.426-2.825l-9.885-.489 11.373-3.974c1.345-5.684.66-11.381-1.84-15.867-3.154.05-6.361.918-9.353 2.505l1.778 9.388-4.825-7.463c-2.774 2.054-5.246 4.778-7.153 8.076-4.513 7.8-4.659 16.723-1.074 23.155z" clip-rule="evenodd"/>
    <path fill="#2EC4B6" fill-rule="evenodd" d="M355.677 53.502a22.71 22.71 0 00-2.512.896c-6.732 2.852-11.203 8.513-12.051 14.361 4.803 3.453 11.989 4.176 18.721 1.323 2.849-1.207 5.293-2.917 7.229-4.932l-5.424-4.468 7.257 2.262c1.592-2.235 2.625-4.712 2.989-7.223-3.321-2.387-7.78-3.47-12.44-2.968l-4.394 8.737.625-7.988z" clip-rule="evenodd"/>
    <path stroke="#0D5147" stroke-width=".711" d="M285.926 61.768l12.803 3.55 5.69 9.229"/>
    <path fill="#2EC4B6" fill-rule="evenodd" d="M314.804 64.127c8.142-3.013 15.362-11.61 18.185-22.913.35-1.402.621-2.799.816-4.183l-10.779 3.157 11.158-9.014c-.095-7.483-2.447-14.194-6.475-18.713-3.357 1.242-6.557 3.434-9.357 6.373l4.624 10.865-7.527-7.345c-2.621 3.664-4.692 8.084-5.925 13.02-2.823 11.303-.492 22.277 5.28 28.753z" clip-rule="evenodd"/>
    <path stroke="#0D5147" stroke-width=".711" d="M350.651 66.737l-12.803 2.84-3.556 4.97M300.151 54.668l5.69 9.23 1.423 9.94M317.222 56.088l-2.134 7.81v9.94M332.158 57.508l-3.556 5.68-2.134 12.07"/>
    <path fill="#fff" d="M290.905 78.816a4.979 4.979 0 014.979-4.98h42.676a4.979 4.979 0 014.978 4.98v29.776c0 10.213-8.279 18.493-18.492 18.493h-15.648c-10.213 0-18.493-8.28-18.493-18.493V78.816z"/>
    <path fill="#F2F2F2" fill-rule="evenodd" d="M319.355 127.085h5.691c10.213 0 18.493-8.28 18.493-18.493V78.816a4.979 4.979 0 00-4.979-4.98h-5.691c2.75 0 4.979 2.23 4.979 4.98v29.776c0 10.213-8.279 18.493-18.493 18.493z" clip-rule="evenodd"/>
    <path fill="#8D5219" fill-rule="evenodd" d="M263.95 129.925h13.441l-31.283 98.372a2.487 2.487 0 01-4.792-1.318l22.634-97.054z" clip-rule="evenodd"/>
    <ellipse cx="307.264" cy="228.255" fill="#EBE5DD" rx="86.062" ry="6.745"/>
    <path fill="#D1A65C" fill-rule="evenodd" d="M253.208 206.449l-7.062 21.849a2.502 2.502 0 01-4.815-1.346l5.328-22.48 6.549 1.977z" clip-rule="evenodd"/>
    <path fill="#8D5219" fill-rule="evenodd" d="M307.976 129.925h13.514l-4.351 95.494a2.6 2.6 0 01-5.195-.011l-3.968-95.483z" clip-rule="evenodd"/>
    <path fill="#D1A65C" fill-rule="evenodd" d="M317.933 208.021l-.766 17.517a2.471 2.471 0 01-4.937-.009l-.698-17.508h6.401z" clip-rule="evenodd"/>
    <path fill="#8D5219" fill-rule="evenodd" d="M366.226 129.925h-13.441l31.283 98.372a2.487 2.487 0 004.792-1.318l-22.634-97.054z" clip-rule="evenodd"/>
    <rect width="172.836" height="4.97" x="226.892" y="127.085" fill="#A4DDD5" rx="1.778"/>
    <rect width="130.161" height="4.26" x="249.652" y="132.055" fill="#824D18" rx="1.778"/>
    <path fill="#D1A65C" fill-rule="evenodd" d="M383.57 205.181l-6.602 1.885 7.028 21.922a2.52 2.52 0 004.855-1.346l-5.281-22.461z" clip-rule="evenodd"/>
  </g>
</svg>
