<svg xmlns="http://www.w3.org/2000/svg" width="18" height="18" fill="none" viewBox="0 0 18 18">
  <path stroke="#BDA28F" stroke-width="1.5" d="M15.222 1H2.778C1.796 1 1 1.835 1 2.865v8.74c0 1.03.796 1.864 1.778 1.864H5c.245 0 .444.209.444.466v2.598c0 .432.512.631.781.305l2.642-3.207a.436.436 0 0 1 .336-.162h6.02c.981 0 1.777-.835 1.777-1.865V2.865C17 1.835 16.204 1 15.222 1Z"/>
  <circle cx="5.444" cy="7.225" r=".889" fill="#BDA28F"/>
  <circle cx="9" cy="7.225" r=".889" fill="#BDA28F"/>
  <circle cx="12.555" cy="7.225" r=".889" fill="#BDA28F"/>
</svg>
