<svg xmlns="http://www.w3.org/2000/svg" width="24" height="24" fill="none" viewBox="0 0 24 24">
  <path stroke="#91766F" stroke-width="1.5" d="M18.222 4H5.778C4.796 4 4 4.835 4 5.865v8.74c0 1.03.796 1.864 1.778 1.864H8c.245 0 .444.209.444.466v2.598c0 .432.512.631.781.305l2.642-3.207a.436.436 0 0 1 .336-.162h6.02c.981 0 1.777-.835 1.777-1.865V5.865C20 4.835 19.204 4 18.222 4Z"/>
  <circle cx="8.444" cy="10.225" r=".889" fill="#91766F"/>
  <circle cx="11.998" cy="10.225" r=".889" fill="#91766F"/>
  <circle cx="15.553" cy="10.225" r=".889" fill="#91766F"/>
</svg>
