<svg width="32" height="32" viewBox="0 0 32 32" fill="none" xmlns="http://www.w3.org/2000/svg">
<path fill-rule="evenodd" clip-rule="evenodd" d="M7.25 8C7.25 7.58579 7.58579 7.25 8 7.25H24C24.4142 7.25 24.75 7.58579 24.75 8C24.75 8.41421 24.4142 8.75 24 8.75H23.727C23.5038 12.3829 21.6735 15.5961 19.0068 17C21.6735 18.4039 23.5038 21.6171 23.727 25.25H24C24.4142 25.25 24.75 25.5858 24.75 26C24.75 26.4142 24.4142 26.75 24 26.75H23.0004L8 26.75C7.58579 26.75 7.25 26.4142 7.25 26C7.25 25.5858 7.58579 25.25 8 25.25H8.27299C8.49618 21.6171 10.3265 18.4039 12.9932 17C10.3265 15.5961 8.49618 12.3829 8.27299 8.75H8C7.58579 8.75 7.25 8.41421 7.25 8ZM9.77502 8.75C10.0678 13.1078 12.8885 16.25 16 16.25C19.1115 16.25 21.9322 13.1078 22.225 8.75H9.77502ZM16 17.75C12.8885 17.75 10.0678 20.8922 9.77502 25.25L22.225 25.25C21.9322 20.8922 19.1115 17.75 16 17.75Z" fill="#BDA28F"/>
</svg>
