<svg width="24" height="24" viewBox="0 0 24 24" fill="none" xmlns="http://www.w3.org/2000/svg">
<path d="M18.1493 18.2261H17.4854C17.2957 15.4554 15.9678 13.0987 14.1025 12.0478C15.9994 10.9968 17.3905 8.60828 17.5802 5.7739H18.0861C18.4338 5.7739 18.75 5.48727 18.75 5.13696C18.75 4.78665 18.4654 4.5 18.1177 4.5H5.88231C5.53454 4.5 5.25 4.78662 5.25 5.13693C5.25 5.48724 5.53454 5.77387 5.88231 5.77387H6.45139C6.60946 8.57642 7.96896 10.9331 9.83429 11.9841C7.93733 13.035 6.57784 15.3917 6.38814 18.2261H5.88231C5.53454 18.2261 5.25 18.5127 5.25 18.863C5.25 19.2133 5.53454 19.5 5.88231 19.5H18.086C18.4338 19.5 18.75 19.2134 18.75 18.8631C18.75 18.5128 18.4971 18.2261 18.1493 18.2261ZM7.74767 5.7739H16.3788C16.1575 8.8949 14.3238 11.3471 12.079 11.3471C9.80269 11.3471 7.93736 8.8949 7.74767 5.7739ZM7.65282 18.2261C7.90574 15.1051 9.73947 12.6847 11.9842 12.6847C14.2289 12.6847 16.0626 15.1051 16.284 18.2261H7.65282Z" fill="#BDA28F"/>
</svg>
