<svg viewBox="0 0 20 20" fill="none" xmlns="http://www.w3.org/2000/svg">
<path d="M17.0711 2.92891C15.1823 1.0402 12.6711 0 10 0C7.32891 0 4.8177 1.0402 2.92891 2.92891C1.0402 4.8177 0 7.32891 0 10C0 12.6711 1.0402 15.1823 2.92891 17.0711C4.8177 18.9598 7.32891 20 10 20C12.6711 20 15.1823 18.9598 17.0711 17.0711C18.9598 15.1823 20 12.6711 20 10C20 7.32891 18.9598 4.8177 17.0711 2.92891ZM10 2.73438C11.1846 2.73438 12.1484 3.69816 12.1484 4.88281C12.1484 6.06746 11.1846 7.03125 10 7.03125C8.81535 7.03125 7.85156 6.06746 7.85156 4.88281C7.85156 3.69816 8.81535 2.73438 10 2.73438ZM12.7344 16.4062H7.26562V15.2344H8.4375V9.375H7.26562V8.20312H11.5625V15.2344H12.7344V16.4062Z" fill="#1C4457"/>
</svg>
