<svg width="16" height="16" viewBox="0 0 16 16" fill="none" xmlns="http://www.w3.org/2000/svg">
<path fill-rule="evenodd" clip-rule="evenodd" d="M1 8C1 4.13401 4.13401 1 8 1C11.866 1 15 4.13401 15 8C15 11.866 11.866 15 8 15C4.13401 15 1 11.866 1 8ZM8 16C3.58172 16 0 12.4183 0 8C0 3.58172 3.58172 9.53674e-07 8 9.53674e-07C12.4183 9.53674e-07 16 3.58172 16 8C16 12.4183 12.4183 16 8 16ZM7.5 11.5V11V8V7.5H8.5V8V11V11.5H7.5ZM8.75 5C8.75 5.41421 8.41421 5.75 8 5.75C7.58579 5.75 7.25 5.41421 7.25 5V4.93144C7.25 4.51723 7.58579 4.18144 8 4.18144C8.41421 4.18144 8.75 4.51723 8.75 4.93144V5Z" fill="#BDA28F"/>
</svg>
