<svg width="24" height="24" viewBox="0 0 24 24" fill="none" xmlns="http://www.w3.org/2000/svg">
<path fill-rule="evenodd" clip-rule="evenodd" d="M4 7C4.26522 7 4.51957 6.89464 4.70711 6.70711C4.89464 6.51957 5 6.26522 5 6C5 5.73478 4.89464 5.48043 4.70711 5.29289C4.51957 5.10536 4.26522 5 4 5C3.73478 5 3.48043 5.10536 3.29289 5.29289C3.10536 5.48043 3 5.73478 3 6C3 6.26522 3.10536 6.51957 3.29289 6.70711C3.48043 6.89464 3.73478 7 4 7V7ZM8.75 5.5C8.55109 5.5 8.36032 5.57902 8.21967 5.71967C8.07902 5.86032 8 6.05109 8 6.25C8 6.44891 8.07902 6.63968 8.21967 6.78033C8.36032 6.92098 8.55109 7 8.75 7H20.25C20.4489 7 20.6397 6.92098 20.7803 6.78033C20.921 6.63968 21 6.44891 21 6.25C21 6.05109 20.921 5.86032 20.7803 5.71967C20.6397 5.57902 20.4489 5.5 20.25 5.5H8.75ZM8.75 11.5C8.55109 11.5 8.36032 11.579 8.21967 11.7197C8.07902 11.8603 8 12.0511 8 12.25C8 12.4489 8.07902 12.6397 8.21967 12.7803C8.36032 12.921 8.55109 13 8.75 13H20.25C20.4489 13 20.6397 12.921 20.7803 12.7803C20.921 12.6397 21 12.4489 21 12.25C21 12.0511 20.921 11.8603 20.7803 11.7197C20.6397 11.579 20.4489 11.5 20.25 11.5H8.75ZM8.75 17.5C8.55109 17.5 8.36032 17.579 8.21967 17.7197C8.07902 17.8603 8 18.0511 8 18.25C8 18.4489 8.07902 18.6397 8.21967 18.7803C8.36032 18.921 8.55109 19 8.75 19H20.25C20.4489 19 20.6397 18.921 20.7803 18.7803C20.921 18.6397 21 18.4489 21 18.25C21 18.0511 20.921 17.8603 20.7803 17.7197C20.6397 17.579 20.4489 17.5 20.25 17.5H8.75ZM5 12C5 12.2652 4.89464 12.5196 4.70711 12.7071C4.51957 12.8946 4.26522 13 4 13C3.73478 13 3.48043 12.8946 3.29289 12.7071C3.10536 12.5196 3 12.2652 3 12C3 11.7348 3.10536 11.4804 3.29289 11.2929C3.48043 11.1054 3.73478 11 4 11C4.26522 11 4.51957 11.1054 4.70711 11.2929C4.89464 11.4804 5 11.7348 5 12V12ZM4 19C4.26522 19 4.51957 18.8946 4.70711 18.7071C4.89464 18.5196 5 18.2652 5 18C5 17.7348 4.89464 17.4804 4.70711 17.2929C4.51957 17.1054 4.26522 17 4 17C3.73478 17 3.48043 17.1054 3.29289 17.2929C3.10536 17.4804 3 17.7348 3 18C3 18.2652 3.10536 18.5196 3.29289 18.7071C3.48043 18.8946 3.73478 19 4 19V19Z" fill="#BDA28F"/>
</svg>
