<svg width="24" height="24" viewBox="0 0 24 24" fill="none" xmlns="http://www.w3.org/2000/svg">
<path fill-rule="evenodd" clip-rule="evenodd" d="M6.86875 17.7043H12.4751C12.8195 17.7043 13.098 17.9827 13.098 18.3272C13.098 18.6717 12.8195 18.9501 12.4751 18.9501H6.86875C5.83844 18.9501 5 18.1116 5 17.0813V5.86878C5 4.83847 5.83844 4 6.86875 4H12.4751C12.8195 4 13.098 4.27849 13.098 4.62297C13.098 4.96744 12.8195 5.24587 12.4751 5.24587H6.86875C6.52493 5.24587 6.24585 5.52492 6.24585 5.86878V17.0814C6.24585 17.4252 6.5249 17.7043 6.86875 17.7043ZM16.0269 7.29395L19.8143 11.0315C19.9333 11.1492 19.9999 11.3081 19.9999 11.4749C19.9999 11.6419 19.9327 11.8014 19.8143 11.9185L16.0269 15.656C15.9061 15.7756 15.7479 15.8354 15.5896 15.8354C15.4289 15.8354 15.2682 15.7731 15.1461 15.6498C14.9051 15.405 14.9069 15.0107 15.1524 14.769L17.8589 12.0979H10.6063C10.2618 12.0979 9.98335 11.8194 9.98335 11.475C9.98335 11.1305 10.2618 10.8521 10.6063 10.8521H17.8589L15.1524 8.181C14.9069 7.9393 14.9044 7.545 15.1461 7.30019C15.3878 7.05539 15.7827 7.05226 16.0269 7.29395Z" fill="#91766F"/>
</svg>
