<svg width="32" height="32" viewBox="0 0 32 32" fill="none" xmlns="http://www.w3.org/2000/svg">
<path d="M6.25002 8H25.75C26.9907 8 28 9.00928 28 10.25V23.75C28 24.9907 26.9907 26 25.75 26H6.25002C5.00928 26 4 24.9907 4 23.75V10.25C4 9.00928 5.00928 8 6.25002 8ZM6.25002 9.49999C6.14812 9.49999 6.05118 9.52114 5.96255 9.55806L16 18.2576L26.0375 9.55806C25.9489 9.52119 25.8519 9.49999 25.75 9.49999H6.25002ZM6.25002 24.5H25.75C26.1638 24.5 26.5 24.1638 26.5 23.75V11.1428L16.4915 19.8169C16.3501 19.9392 16.175 20 16 20C15.825 20 15.6499 19.9392 15.5085 19.8169L5.49999 11.1428V23.75C5.50004 24.1638 5.8362 24.5 6.25002 24.5Z" fill="#BDA28F"/>
</svg>
