<svg fill="none" xmlns="http://www.w3.org/2000/svg" viewBox="0 0 48 48"><path d="M24 32.25c-.75 0-1.65-.15-2.25-.45l1.8-1.8h.6c2.7 0 4.8-2.1 4.8-4.8v-.75l2.25-2.25v2.85c-.15 4.05-3.3 7.2-7.2 7.2zm-4.8-6.45V12.9c0-2.55 2.25-4.8 4.8-4.8s4.8 2.1 4.8 4.8v3.3l2.25-2.25V12.9C31.05 9.15 27.9 6 24 6s-7.05 3.15-7.05 6.9v12.45c0 .75.15 1.5.45 2.25l1.8-1.8zm-3.9 3.9c-.75-1.35-1.05-2.85-1.05-4.35 0-.6-.45-1.05-1.05-1.05-.6 0-1.2.45-1.2 1.05 0 2.25.6 4.2 1.65 6l1.65-1.65zm19.65-5.4c-.6 0-1.05.45-1.05 1.05 0 5.25-4.35 9.45-9.75 9.45-1.5 0-3-.3-4.35-1.05L18 35.4c1.5.75 3.15 1.35 4.8 1.5v2.85h-4.05c-.6 0-1.05.45-1.05 1.05 0 .6.45 1.05 1.05 1.05H29.1c.6 0 1.05-.45 1.05-1.05 0-.6-.45-1.05-1.05-1.05h-4.05V36.9C31.2 36.3 36 31.35 36 25.35c0-.6-.45-1.05-1.05-1.05zm11.7-19.65L45 3 3 45l1.65 1.65 42-42z" fill="#FA6969"/></svg>
