<svg width="80" height="81" viewBox="0 0 80 81" fill="none" xmlns="http://www.w3.org/2000/svg">
<path d="M40.0963 39.3797C43.7361 39.3797 46.8874 38.0743 49.463 35.4986C52.0378 32.9235 53.3436 29.7726 53.3436 26.1324C53.3436 22.4935 52.0382 19.3421 49.4626 16.7661C46.887 14.1914 43.7357 12.8859 40.0963 12.8859C36.4562 12.8859 33.3053 14.1914 30.7301 16.7665C28.1549 19.3417 26.8491 22.493 26.8491 26.1324C26.8491 29.7726 28.1549 32.9239 30.7301 35.4991C33.3061 38.0738 36.4574 39.3797 40.0963 39.3797ZM33.0094 19.0455C34.9854 17.0695 37.3034 16.109 40.0963 16.109C42.8889 16.109 45.2073 17.0695 47.1837 19.0455C49.1596 21.0219 50.1206 23.3403 50.1206 26.1324C50.1206 28.9254 49.1596 31.2433 47.1837 33.2197C45.2073 35.1961 42.8889 36.1566 40.0963 36.1566C37.3042 36.1566 34.9863 35.1957 33.0094 33.2197C31.033 31.2437 30.0721 28.9254 30.0721 26.1324C30.0721 23.3403 31.033 21.0219 33.0094 19.0455Z" fill="#FAF8F5"/>
<path d="M63.2756 55.1783C63.2013 54.1066 63.0511 52.9375 62.8299 51.703C62.6067 50.4592 62.3193 49.2835 61.9752 48.2088C61.6193 47.0981 61.1364 46.0012 60.5384 44.9501C59.9186 43.8591 59.1902 42.9091 58.3728 42.1273C57.518 41.3095 56.4715 40.652 55.2613 40.1723C54.0553 39.6952 52.7188 39.4535 51.2892 39.4535C50.7278 39.4535 50.1848 39.6839 49.1362 40.3666C48.4908 40.7875 47.7359 41.2743 46.8933 41.8126C46.1728 42.2717 45.1968 42.7018 43.9912 43.0912C42.8151 43.4718 41.6208 43.6648 40.4417 43.6648C39.2634 43.6648 38.0692 43.4718 36.8922 43.0912C35.6879 42.7022 34.7114 42.2721 33.9922 41.813C33.1576 41.2797 32.4023 40.793 31.7472 40.3662C30.6995 39.6835 30.1565 39.4531 29.595 39.4531C28.165 39.4531 26.8289 39.6952 25.6234 40.1728C24.414 40.6515 23.3671 41.3091 22.5115 42.1278C21.6941 42.9099 20.9656 43.8595 20.3463 44.9501C19.7491 46.0012 19.2657 47.0977 18.9099 48.2093C18.5662 49.2839 18.2788 50.4592 18.0556 51.703C17.834 52.9358 17.6842 54.1053 17.6099 55.1795C17.5369 56.2298 17.5 57.3229 17.5 58.4273C17.5 61.2984 18.4127 63.6226 20.2124 65.3368C21.9899 67.0282 24.3414 67.8859 27.202 67.8859H53.6848C56.5445 67.8859 58.896 67.0282 60.6739 65.3368C62.4741 63.6239 63.3868 61.2988 63.3868 58.4269C63.3863 57.3187 63.349 56.2256 63.2756 55.1783ZM58.4516 63.0016C57.2771 64.1194 55.7178 64.6628 53.6844 64.6628H27.202C25.1681 64.6628 23.6088 64.1194 22.4347 63.002C21.2828 61.9055 20.7231 60.4088 20.7231 58.4273C20.7231 57.3968 20.7571 56.3792 20.825 55.4023C20.8913 54.4439 21.0269 53.3911 21.2279 52.2724C21.4264 51.1676 21.679 50.1307 21.9794 49.192C22.2677 48.2919 22.6609 47.4007 23.1485 46.5421C23.6138 45.7239 24.1492 45.0219 24.7401 44.4562C25.2927 43.9271 25.9893 43.494 26.81 43.1692C27.5691 42.8688 28.4222 42.7043 29.3483 42.6796C29.4612 42.7396 29.6622 42.8541 29.9878 43.0664C30.6504 43.4982 31.4141 43.9909 32.2583 44.5301C33.21 45.1368 34.4361 45.6848 35.901 46.1578C37.3986 46.642 38.926 46.8879 40.4421 46.8879C41.9582 46.8879 43.486 46.642 44.9828 46.1582C46.4489 45.6844 47.6746 45.1368 48.6276 44.5292C49.4916 43.977 50.2339 43.4986 50.8965 43.0664C51.2221 42.8545 51.4231 42.7396 51.5359 42.6796C52.4625 42.7043 53.3155 42.8688 54.075 43.1692C54.8954 43.494 55.592 43.9275 56.1446 44.4562C56.7354 45.0214 57.2708 45.7235 57.7362 46.5425C58.2242 47.4007 58.6178 48.2923 58.9057 49.1916C59.2065 50.1315 59.4596 51.168 59.6576 52.272C59.8582 53.3928 59.9942 54.446 60.0605 55.4027C60.1289 56.3758 60.1633 57.3938 60.1637 58.4273C60.1633 60.4092 59.6035 61.9055 58.4516 63.0016Z" fill="#FAF8F5"/>
</svg>
