<svg width="32" height="32" viewBox="0 0 32 32" fill="none" xmlns="http://www.w3.org/2000/svg">
<path fill-rule="evenodd" clip-rule="evenodd" d="M19.4999 7.66406C19.0378 7.66406 18.5981 7.74977 18.1941 7.90527C17.6787 8.10366 17.1 7.84667 16.9016 7.33125C16.7032 6.81584 16.9602 6.23717 17.4757 6.03878C18.1053 5.79643 18.7883 5.66406 19.4999 5.66406C22.6128 5.66406 25.1363 8.18754 25.1363 11.3004C25.1363 12.9548 24.4237 14.4417 23.2898 15.4723C26.623 16.7002 29 19.9044 29 23.664C29 24.2163 28.5523 24.664 28 24.664C27.4478 24.664 27 24.2163 27 23.664C27 19.9485 23.9883 16.9367 20.2728 16.9367C19.7205 16.9367 19.2728 16.489 19.2728 15.9367C19.2728 15.4937 19.5609 15.118 19.96 14.9866C20.0569 14.9245 20.1662 14.8781 20.2852 14.852C20.4379 14.8184 20.5869 14.7752 20.7317 14.7231C22.1352 14.2179 23.1363 12.8748 23.1363 11.3004C23.1363 9.29211 21.5083 7.66406 19.4999 7.66406ZM4 23.664C4 19.9485 7.01178 16.9367 10.7273 16.9367H11.4837C11.4891 16.9368 11.4946 16.9368 11.5 16.9368C11.5054 16.9368 11.5108 16.9368 11.5162 16.9367H12.2727C15.9882 16.9367 19 19.9485 19 23.664C19 24.2163 19.4477 24.664 20 24.664C20.5523 24.664 21 24.2163 21 23.664C21 19.9045 18.623 16.7004 15.29 15.4723C16.4242 14.4413 17.1363 12.954 17.1363 11.3004C17.1363 8.18754 14.6128 5.66406 11.5 5.66406C8.38709 5.66406 5.8636 8.18754 5.8636 11.3004C5.8636 12.954 6.57571 14.4413 7.71 15.4724C4.37693 16.7004 2 19.9045 2 23.664C2 24.2163 2.44771 24.664 3 24.664C3.55228 24.664 4 24.2163 4 23.664ZM11.513 14.9367H11.4869C9.48462 14.9297 7.8636 13.3044 7.8636 11.3004C7.8636 9.29211 9.49166 7.66406 11.5 7.66406C13.5083 7.66406 15.1363 9.29211 15.1363 11.3004C15.1363 13.3044 13.5153 14.9297 11.513 14.9367Z" fill="#BDA28F"/>
</svg>
