<svg width="32" height="32" viewBox="0 0 32 32" fill="none" xmlns="http://www.w3.org/2000/svg">
<path fill-rule="evenodd" clip-rule="evenodd" d="M12.2645 8.75C10.2407 8.75 8.5644 10.4434 8.5644 12.5769C8.5644 14.7105 10.2407 16.4038 12.2645 16.4038C14.2884 16.4038 15.9647 14.7105 15.9647 12.5769C15.9647 10.4434 14.2884 8.75 12.2645 8.75ZM15.3353 16.877C16.6298 15.9044 17.4647 14.3341 17.4647 12.5769C17.4647 9.65494 15.1562 7.25 12.2645 7.25C9.37286 7.25 7.0644 9.65494 7.0644 12.5769C7.0644 14.3341 7.89928 15.9044 9.19379 16.877C5.75257 17.9848 3.25 20.9616 3.25 25C3.25 25.4142 3.58579 25.75 4 25.75C4.41421 25.75 4.75 25.4142 4.75 25C4.75 20.778 8.05363 17.9038 12.2645 17.9038C16.4755 17.9038 19.7791 20.778 19.7791 25C19.7791 25.4142 20.1149 25.75 20.5291 25.75C20.9433 25.75 21.2791 25.4142 21.2791 25C21.2791 20.9616 18.7765 17.9848 15.3353 16.877ZM19.8934 8.75C19.5269 8.75 19.1741 8.80487 18.8414 8.90669C18.4453 9.02793 18.026 8.80513 17.9047 8.40905C17.7835 8.01298 18.0063 7.59362 18.4024 7.47238C18.8754 7.32757 19.3762 7.25 19.8934 7.25C22.785 7.25 25.0935 9.65494 25.0935 12.5769C25.0935 14.3341 24.2586 15.9044 22.9641 16.877C26.4053 17.9848 28.9079 20.9616 28.9079 25C28.9079 25.4142 28.5721 25.75 28.1579 25.75C27.7437 25.75 27.4079 25.4142 27.4079 25C27.4079 20.778 24.1043 17.9038 19.8934 17.9038C19.4791 17.9038 19.1434 17.5681 19.1434 17.1538C19.1434 16.7396 19.4791 16.4038 19.8934 16.4038C21.9172 16.4038 23.5935 14.7105 23.5935 12.5769C23.5935 10.4434 21.9172 8.75 19.8934 8.75Z" fill="#BDA28F"/>
</svg>
