<svg width="24" height="24" viewBox="0 0 24 24" fill="none" xmlns="http://www.w3.org/2000/svg">
<path fill-rule="evenodd" clip-rule="evenodd" d="M14.625 5.75C14.2784 5.75 13.9486 5.81428 13.6456 5.93091C13.259 6.07971 12.825 5.88696 12.6762 5.5004C12.5274 5.11383 12.7202 4.67983 13.1068 4.53104C13.579 4.34927 14.0912 4.25 14.625 4.25C16.9596 4.25 18.8522 6.14262 18.8522 8.47727C18.8522 9.7181 18.3178 10.8332 17.4673 11.6062C19.9672 12.5271 21.75 14.9303 21.75 17.75C21.75 18.1642 21.4143 18.5 21 18.5C20.5858 18.5 20.25 18.1642 20.25 17.75C20.25 14.9634 17.9912 12.7045 15.2046 12.7045C14.7904 12.7045 14.4546 12.3687 14.4546 11.9545C14.4546 11.6223 14.6707 11.3404 14.97 11.242C15.0427 11.1953 15.1247 11.1606 15.2139 11.141C15.3284 11.1158 15.4402 11.0834 15.5488 11.0443C16.6014 10.6654 17.3522 9.65807 17.3522 8.47727C17.3522 6.97104 16.1312 5.75 14.625 5.75ZM3 17.75C3 14.9634 5.25884 12.7045 8.04546 12.7045H8.6128C8.61686 12.7045 8.62092 12.7045 8.62498 12.7045C8.62904 12.7045 8.6331 12.7045 8.63716 12.7045H9.20455C11.9912 12.7045 14.25 14.9634 14.25 17.75C14.25 18.1642 14.5858 18.5 15 18.5C15.4142 18.5 15.75 18.1642 15.75 17.75C15.75 14.9304 13.9673 12.5273 11.4675 11.6062C12.3182 10.8329 12.8523 9.71748 12.8523 8.47727C12.8523 6.14262 10.9596 4.25 8.62498 4.25C6.29032 4.25 4.39771 6.14262 4.39771 8.47727C4.39771 9.71749 4.93179 10.833 5.78251 11.6062C3.2827 12.5273 1.5 14.9304 1.5 17.75C1.5 18.1642 1.83579 18.5 2.25 18.5C2.66421 18.5 3 18.1642 3 17.75ZM8.63476 11.2045H8.6152C7.11347 11.1993 5.89771 9.98025 5.89771 8.47727C5.89771 6.97104 7.11875 5.75 8.62498 5.75C10.1312 5.75 11.3523 6.97104 11.3523 8.47727C11.3523 9.98025 10.1365 11.1993 8.63476 11.2045Z" fill="#BDA28F"/>
</svg>
