<svg width="14" height="14" viewBox="0 0 14 14" fill="none" xmlns="http://www.w3.org/2000/svg">
<path fill-rule="evenodd" clip-rule="evenodd" d="M7.00002 0.399902C7.23114 0.399902 7.45279 0.491713 7.61622 0.655138C7.77964 0.818562 7.87145 1.04021 7.87145 1.27133V5.62847H12.2286C12.4597 5.62847 12.6814 5.72028 12.8448 5.88371C13.0082 6.04713 13.1 6.26878 13.1 6.4999C13.1 6.73102 13.0082 6.95267 12.8448 7.1161C12.6814 7.27952 12.4597 7.37133 12.2286 7.37133H7.87145V11.7285C7.87145 11.9596 7.77964 12.1812 7.61622 12.3447C7.45279 12.5081 7.23114 12.5999 7.00002 12.5999C6.76891 12.5999 6.54726 12.5081 6.38383 12.3447C6.22041 12.1812 6.1286 11.9596 6.1286 11.7285V7.37133H1.77145C1.54034 7.37133 1.31868 7.27952 1.15526 7.1161C0.991835 6.95267 0.900024 6.73102 0.900024 6.4999C0.900024 6.26878 0.991835 6.04713 1.15526 5.88371C1.31868 5.72028 1.54034 5.62847 1.77145 5.62847H6.1286V1.27133C6.1286 1.04021 6.22041 0.818562 6.38383 0.655138C6.54726 0.491713 6.76891 0.399902 7.00002 0.399902V0.399902Z" fill="#7D13A3"/>
</svg>
