<svg xmlns="http://www.w3.org/2000/svg" width="24" height="24" fill="none" viewBox="0 0 24 24">
  <path id="circle-1" fill="#C72835" stroke="#C72835" d="M5 12c0-3.864 3.136-7 7-7s7 3.136 7 7-3.136 7-7 7-7-3.136-7-7Zm.5 0c0 3.584 2.916 6.5 6.5 6.5s6.5-2.916 6.5-6.5-2.916-6.5-6.5-6.5A6.508 6.508 0 0 0 5.5 12Z"/>
  <path id="circle-2" fill="#C72835" stroke="#C72835" d="M5 12c0-3.864 3.136-7 7-7s7 3.136 7 7-3.136 7-7 7-7-3.136-7-7Zm.5 0c0 3.584 2.916 6.5 6.5 6.5s6.5-2.916 6.5-6.5-2.916-6.5-6.5-6.5A6.508 6.508 0 0 0 5.5 12Z"/>
  <circle cx="12" cy="12" r="3.313" fill="#C72835" stroke="#C72835" stroke-width=".875"/>
</svg>
