<svg xmlns="http://www.w3.org/2000/svg" width="24" height="24" fill="none" viewBox="0 0 24 24">
  <mask id="a" fill="#fff">
    <path fill-rule="evenodd" d="M4.5 12c0-4.14 3.36-7.5 7.5-7.5 4.14 0 7.5 3.36 7.5 7.5 0 4.14-3.36 7.5-7.5 7.5-4.14 0-7.5-3.36-7.5-7.5ZM6 12c0 3.307 2.693 6 6 6s6-2.693 6-6-2.693-6-6-6-6 2.693-6 6Zm6 3.75a3.75 3.75 0 1 0 0-7.5 3.75 3.75 0 0 0 0 7.5Z" clip-rule="evenodd"/>
  </mask>
  <path fill="#bda28f" fill-rule="evenodd" d="M4.5 12c0-4.14 3.36-7.5 7.5-7.5 4.14 0 7.5 3.36 7.5 7.5 0 4.14-3.36 7.5-7.5 7.5-4.14 0-7.5-3.36-7.5-7.5ZM6 12c0 3.307 2.693 6 6 6s6-2.693 6-6-2.693-6-6-6-6 2.693-6 6Zm6 3.75a3.75 3.75 0 1 0 0-7.5 3.75 3.75 0 0 0 0 7.5Z" clip-rule="evenodd"/>
  <path fill="#bda28f" d="M12 3.625A8.378 8.378 0 0 0 3.625 12h1.75A6.628 6.628 0 0 1 12 5.375v-1.75ZM20.375 12A8.378 8.378 0 0 0 12 3.625v1.75A6.628 6.628 0 0 1 18.625 12h1.75ZM12 20.375A8.378 8.378 0 0 0 20.375 12h-1.75A6.628 6.628 0 0 1 12 18.625v1.75ZM3.625 12A8.378 8.378 0 0 0 12 20.375v-1.75A6.628 6.628 0 0 1 5.375 12h-1.75ZM12 17.125A5.133 5.133 0 0 1 6.875 12h-1.75A6.883 6.883 0 0 0 12 18.875v-1.75ZM17.125 12c0 2.824-2.3 5.125-5.125 5.125v1.75A6.883 6.883 0 0 0 18.875 12h-1.75ZM12 6.875c2.824 0 5.125 2.3 5.125 5.125h1.75A6.883 6.883 0 0 0 12 5.125v1.75ZM6.875 12c0-2.824 2.3-5.125 5.125-5.125v-1.75A6.883 6.883 0 0 0 5.125 12h1.75Zm8 0A2.875 2.875 0 0 1 12 14.875v1.75A4.625 4.625 0 0 0 16.625 12h-1.75ZM12 9.125A2.875 2.875 0 0 1 14.875 12h1.75A4.625 4.625 0 0 0 12 7.375v1.75ZM9.125 12A2.875 2.875 0 0 1 12 9.125v-1.75A4.625 4.625 0 0 0 7.375 12h1.75ZM12 14.875A2.875 2.875 0 0 1 9.125 12h-1.75A4.625 4.625 0 0 0 12 16.625v-1.75Z" mask="url(#a)"/>
</svg>
