<svg xmlns="http://www.w3.org/2000/svg" width="32" height="32" fill="none" viewBox="0 0 32 32">
  <mask id="a" fill="#fff">
    <path fill-rule="evenodd" d="M6 16c0-5.52 4.48-10 10-10s10 4.48 10 10-4.48 10-10 10S6 21.52 6 16Zm2 0c0 4.41 3.59 8 8 8s8-3.59 8-8-3.59-8-8-8-8 3.59-8 8Zm8 5a5 5 0 1 0 0-10 5 5 0 0 0 0 10Z" clip-rule="evenodd"/>
  </mask>
  <path fill="#C72835" fill-rule="evenodd" d="M6 16c0-5.52 4.48-10 10-10s10 4.48 10 10-4.48 10-10 10S6 21.52 6 16Zm2 0c0 4.41 3.59 8 8 8s8-3.59 8-8-3.59-8-8-8-8 3.59-8 8Zm8 5a5 5 0 1 0 0-10 5 5 0 0 0 0 10Z" clip-rule="evenodd"/>
  <path fill="#C72835" d="M16 5.125C9.997 5.125 5.125 9.997 5.125 16h1.75c0-5.037 4.088-9.125 9.125-9.125v-1.75ZM26.875 16c0-6.003-4.872-10.875-10.875-10.875v1.75c5.037 0 9.125 4.088 9.125 9.125h1.75ZM16 26.875c6.003 0 10.875-4.872 10.875-10.875h-1.75c0 5.037-4.088 9.125-9.125 9.125v1.75ZM5.125 16c0 6.003 4.872 10.875 10.875 10.875v-1.75c-5.037 0-9.125-4.088-9.125-9.125h-1.75ZM16 23.125c-3.927 0-7.125-3.198-7.125-7.125h-1.75c0 4.893 3.982 8.875 8.875 8.875v-1.75ZM23.125 16c0 3.927-3.198 7.125-7.125 7.125v1.75c4.893 0 8.875-3.982 8.875-8.875h-1.75ZM16 8.875c3.927 0 7.125 3.198 7.125 7.125h1.75c0-4.893-3.982-8.875-8.875-8.875v1.75ZM8.875 16c0-3.927 3.198-7.125 7.125-7.125v-1.75c-4.893 0-8.875 3.982-8.875 8.875h1.75Zm11.25 0A4.125 4.125 0 0 1 16 20.125v1.75A5.875 5.875 0 0 0 21.875 16h-1.75ZM16 11.875A4.125 4.125 0 0 1 20.125 16h1.75A5.875 5.875 0 0 0 16 10.125v1.75ZM11.875 16A4.125 4.125 0 0 1 16 11.875v-1.75A5.875 5.875 0 0 0 10.125 16h1.75ZM16 20.125A4.125 4.125 0 0 1 11.875 16h-1.75A5.875 5.875 0 0 0 16 21.875v-1.75Z" mask="url(#a)"/>
</svg>
