<svg xmlns="http://www.w3.org/2000/svg" width="25" height="24" fill="none" viewBox="0 0 25 24">
  <mask id="a" fill="#fff">
    <path fill-rule="evenodd" d="M4.785 12c0-4.14 3.36-7.5 7.5-7.5 4.14 0 7.5 3.36 7.5 7.5 0 4.14-3.36 7.5-7.5 7.5-4.14 0-7.5-3.36-7.5-7.5Zm1.5 0c0 3.307 2.693 6 6 6 3.308 0 6-2.693 6-6s-2.692-6-6-6c-3.307 0-6 2.693-6 6Zm6 3.75a3.75 3.75 0 1 0 0-7.5 3.75 3.75 0 0 0 0 7.5Z" clip-rule="evenodd"/>
  </mask>
  <path fill="#C72835" fill-rule="evenodd" d="M4.785 12c0-4.14 3.36-7.5 7.5-7.5 4.14 0 7.5 3.36 7.5 7.5 0 4.14-3.36 7.5-7.5 7.5-4.14 0-7.5-3.36-7.5-7.5Zm1.5 0c0 3.307 2.693 6 6 6 3.308 0 6-2.693 6-6s-2.692-6-6-6c-3.307 0-6 2.693-6 6Zm6 3.75a3.75 3.75 0 1 0 0-7.5 3.75 3.75 0 0 0 0 7.5Z" clip-rule="evenodd"/>
  <path fill="#C72835" d="M12.285 3.625A8.378 8.378 0 0 0 3.91 12h1.75a6.628 6.628 0 0 1 6.625-6.625v-1.75ZM20.66 12a8.378 8.378 0 0 0-8.375-8.375v1.75A6.628 6.628 0 0 1 18.91 12h1.75Zm-8.375 8.375A8.378 8.378 0 0 0 20.66 12h-1.75a6.628 6.628 0 0 1-6.625 6.625v1.75ZM3.91 12a8.378 8.378 0 0 0 8.375 8.375v-1.75A6.628 6.628 0 0 1 5.66 12H3.91Zm8.375 5.125A5.133 5.133 0 0 1 7.16 12H5.41a6.883 6.883 0 0 0 6.875 6.875v-1.75ZM17.41 12c0 2.824-2.3 5.125-5.125 5.125v1.75A6.883 6.883 0 0 0 19.16 12h-1.75Zm-5.125-5.125c2.824 0 5.125 2.3 5.125 5.125h1.75a6.883 6.883 0 0 0-6.875-6.875v1.75ZM7.16 12c0-2.824 2.3-5.125 5.125-5.125v-1.75A6.883 6.883 0 0 0 5.41 12h1.75Zm8 0a2.875 2.875 0 0 1-2.875 2.875v1.75A4.625 4.625 0 0 0 16.91 12h-1.75Zm-2.875-2.875A2.875 2.875 0 0 1 15.16 12h1.75a4.625 4.625 0 0 0-4.625-4.625v1.75ZM9.41 12a2.875 2.875 0 0 1 2.875-2.875v-1.75A4.625 4.625 0 0 0 7.66 12h1.75Zm2.875 2.875A2.875 2.875 0 0 1 9.41 12H7.66a4.625 4.625 0 0 0 4.625 4.625v-1.75Z" mask="url(#a)"/>
</svg>
