<svg xmlns="http://www.w3.org/2000/svg" width="32" height="32" fill="none" viewBox="0 0 33 33">
  <g>
    <path fill="#90766F" fill-rule="evenodd" d="M15.91 32c8.787 0 15.91-7.163 15.91-16S24.697 0 15.91 0C7.123 0 0 7.163 0 16s7.123 16 15.91 16Zm7.569-24-5.957 6.771L24 23.991h-4.764l-4.363-6.208-5.461 6.209H8l6.247-7.101L8 8h4.764l4.131 5.88L22.067 8h1.412Zm-8.523 8.084.633.885 4.31 6.03h2.169l-5.283-7.39-.633-.884-4.064-5.686H9.92l5.036 7.045Z" clip-rule="evenodd"/>
  </g>
  <defs>

  </defs>
</svg>
