<svg xmlns="http://www.w3.org/2000/svg" width="25" height="25" fill="none" viewBox="0 0 25 25">
  <g clip-path="url(#a)">
    <path fill="#BDA28F" d="M12.107 0C5.42 0 0 5.454 0 12.18c0 6.727 5.421 12.18 12.107 12.18 6.685 0 12.106-5.453 12.106-12.18C24.213 5.455 18.792 0 12.107 0Zm.256 19.272h-.003a7.21 7.21 0 0 1-3.463-.887L5.057 19.4l1.027-3.777a7.305 7.305 0 0 1-.967-3.643c.003-4.02 3.253-7.29 7.246-7.29a7.18 7.18 0 0 1 5.126 2.137 7.265 7.265 0 0 1 2.12 5.156c-.002 4.019-3.252 7.288-7.246 7.288Z"/>
    <path fill="#BDA28F" d="M12.365 5.922c-3.322 0-6.024 2.717-6.025 6.057 0 1.144.318 2.259.92 3.223l.144.23-.609 2.235 2.28-.602.22.132a5.985 5.985 0 0 0 3.065.844h.003c3.319 0 6.02-2.717 6.022-6.057 0-1.619-.625-3.14-1.762-4.286a5.964 5.964 0 0 0-4.258-1.776Zm3.543 8.661c-.151.425-.875.814-1.223.866a2.469 2.469 0 0 1-1.14-.072c-.263-.084-.6-.196-1.032-.384-1.816-.789-3.002-2.628-3.093-2.75-.09-.12-.74-.987-.74-1.883s.469-1.337.634-1.52a.664.664 0 0 1 .483-.227c.12 0 .242.001.347.006.111.006.26-.042.408.313.15.365.513 1.26.558 1.352.045.091.075.197.015.319s-.261.384-.453.623c-.08.1-.185.19-.079.371.105.183.469.779 1.007 1.262.692.62 1.275.813 1.456.904.181.09.287.075.392-.046.106-.121.453-.532.574-.714.12-.182.241-.152.407-.091.166.06 1.056.501 1.237.592.181.092.302.137.347.213.045.076.045.44-.106.866Z"/>
  </g>
  <defs>
    <clipPath id="a">
      <path fill="#fff" d="M0 0h24.213v24.361H0z"/>
    </clipPath>
  </defs>
</svg>
