<svg fill="none" xmlns="http://www.w3.org/2000/svg" viewBox="0 0 25 24"><g clip-path="url(#a)"><path fill-rule="evenodd" clip-rule="evenodd" d="M.854 12c0-6.626 5.374-12 12-12 6.627 0 12 5.374 12 12s-5.373 12-12 12c-6.626 0-12-5.374-12-12Zm18.53 4.514c.17-.439.286-.94.32-1.673.033-.735.041-.97.041-2.841 0-1.871-.008-2.106-.041-2.84-.034-.734-.15-1.235-.32-1.674a3.376 3.376 0 0 0-.795-1.22 3.377 3.377 0 0 0-1.221-.795c-.438-.17-.94-.287-1.673-.32-.734-.034-.97-.042-2.84-.042-1.872 0-2.107.008-2.841.042-.734.033-1.235.15-1.673.32-.46.173-.876.444-1.22.795-.351.344-.622.76-.796 1.22-.17.439-.286.94-.32 1.673-.033.735-.041.97-.041 2.841 0 1.871.008 2.106.042 2.841.033.733.15 1.234.32 1.673.173.46.444.876.795 1.22.344.35.76.622 1.22.795.438.17.94.287 1.673.32.735.034.97.042 2.84.042 1.872 0 2.107-.008 2.842-.042.733-.033 1.234-.15 1.672-.32a3.524 3.524 0 0 0 2.015-2.015Zm-1.158-8.578c-.11-.299-.287-.57-.515-.792a2.133 2.133 0 0 0-.793-.515c-.242-.095-.607-.207-1.279-.238-.727-.033-.945-.04-2.784-.04-1.84 0-2.058.007-2.785.04-.672.031-1.037.143-1.28.238-.299.11-.57.286-.792.515a2.136 2.136 0 0 0-.515.792c-.095.243-.207.608-.237 1.28-.034.726-.04.944-.04 2.784 0 1.84.006 2.058.04 2.785.03.672.142 1.036.237 1.28.11.299.286.57.515.791.222.23.493.405.792.516.243.094.608.207 1.28.237.727.033.944.04 2.784.04 1.84 0 2.058-.007 2.785-.04.672-.03 1.037-.143 1.28-.237a2.282 2.282 0 0 0 1.307-1.308c.094-.243.207-.607.237-1.28.034-.726.04-.944.04-2.784 0-1.84-.006-2.058-.04-2.784-.03-.672-.142-1.037-.237-1.28Zm-5.371 7.603a3.538 3.538 0 1 1-.001-7.077 3.538 3.538 0 0 1 0 7.077Zm3.678-6.39a.827.827 0 1 1 0-1.654.827.827 0 0 1 0 1.654ZM15.15 12a2.297 2.297 0 1 1-4.593 0 2.297 2.297 0 0 1 4.593 0Z" fill="#91766F"/></g><defs><clipPath id="a"><path fill="#fff" transform="translate(.854)" d="M0 0h23.855v24H0z"/></clipPath></defs></svg>
