<svg xmlns="http://www.w3.org/2000/svg" width="26" height="25" fill="none" viewBox="0 0 26 25">
  <g clip-path="url(#a)">
    <path fill="#BDA28F" fill-rule="evenodd" d="M12.995 24.36c6.687 0 12.108-5.452 12.108-12.18C25.103 5.454 19.682 0 12.995 0S.887 5.453.887 12.18c0 6.728 5.42 12.18 12.108 12.18Zm6.387-15.14-6.583 3.72-6.583-3.72v-.572c0-.633.513-1.145 1.145-1.145h10.876c.632 0 1.145.512 1.145 1.145v.572Zm-13.166.866 6.583 3.73 6.582-3.73v6.112c0 .632-.512 1.145-1.145 1.145H7.361a1.145 1.145 0 0 1-1.145-1.145v-6.112Z" clip-rule="evenodd"/>
  </g>
  <defs>
    <clipPath id="a">
      <path fill="#fff" d="M0 0h24.213v24.361H0z" transform="translate(.91)"/>
    </clipPath>
  </defs>
</svg>
