<svg xmlns="http://www.w3.org/2000/svg" width="51" height="51" fill="none" viewBox="0 0 51 51">
  <path fill="#BDA28F" d="M39.427 26.997h-.041V10.86C39.386 7.927 37 5.5 34.068 5.5H16.932c-2.931 0-5.318 2.438-5.318 5.359v16.138h-.04c-2.336 0-4.28 1.872-4.28 4.217v2.417a4.232 4.232 0 002.058 3.6v7.818c-.01 3.003 2.427 5.44 5.43 5.451h.021a5.448 5.448 0 005.451-5.451V37.9h10.492v7.149a5.448 5.448 0 005.451 5.451 5.448 5.448 0 005.452-5.451V37.23a4.268 4.268 0 002.057-3.6v-2.417c0-2.345-1.944-4.217-4.279-4.217zM13.672 10.86c0-1.8 1.46-3.302 3.26-3.302h17.136c1.8 0 3.26 1.512 3.26 3.302v16.138H13.673V10.86zm4.525 34.19a3.398 3.398 0 01-5.8 2.396 3.343 3.343 0 01-.988-2.396v-7.18c.051.02.113.031.164.031h6.624v7.149zm18.01 3.394c-.905 0-1.769-.36-2.406-.998a3.396 3.396 0 01-.998-2.396V37.9h6.624c.062 0 .113-.01.165-.03v7.179a3.389 3.389 0 01-3.384 3.394zm4.043-12.785l-.01.01a2.204 2.204 0 01-.813.165H11.573a2.239 2.239 0 01-2.222-2.212v-2.407c0-1.203 1.019-2.16 2.222-2.16h27.844c1.203 0 2.221.957 2.221 2.16v2.417h.01a2.211 2.211 0 01-1.398 2.027z"/>
</svg>
