<svg fill="none" xmlns="http://www.w3.org/2000/svg" viewBox="0 0 48 48"><path d="M23.84 32.504c-4.779 0-8.662-3.884-8.662-8.663 0-4.78 3.883-8.663 8.663-8.663s8.663 3.883 8.663 8.663-3.884 8.663-8.663 8.663zm0-15.086a6.375 6.375 0 00-6.422 6.423 6.375 6.375 0 006.423 6.422 6.375 6.375 0 006.422-6.422 6.375 6.375 0 00-6.422-6.423zm-4.48 23.3c-.299 0-.448 0-.747-.149-1.046-.298-1.942-.746-2.838-1.194-.299-.15-.597-.449-.896-.747-.15-.299-.299-.598-.448-1.046l-.448-3.286-.299-.298-.299-.3-3.286-.447c-.298 0-.747-.15-1.045-.448-.299-.3-.598-.448-.747-.897a22.98 22.98 0 01-1.195-2.837 1.276 1.276 0 010-1.046c0-.299.15-.747.448-1.046l1.942-2.688v-.448-.448L7.56 20.704c-.299-.299-.448-.597-.448-1.045v-1.046c.299-1.046.747-1.942 1.195-2.838.15-.299.448-.597.747-.896.298-.15.597-.299 1.045-.448l3.286-.448.299-.299.299-.299.448-3.286c0-.298.15-.747.448-1.045 1.38-1.15 2.986-1.942 4.78-1.942.298 0 .746.15 1.045.448l2.689 1.942h.896l2.688-1.942c.3-.299.598-.448 1.046-.448h1.046c1.045.299 1.941.747 2.838 1.195.298.15.597.448.896.747.149.298.298.597.448 1.045l.448 3.286.299.299.298.299 3.286.448c.299 0 .747.15 1.046.448.299.15.597.448.747.896.448.896.896 1.942 1.195 2.838.149.299.149.747 0 1.046l-.449 1.045-1.941 2.689v.896l1.941 2.688c.3.3.449.598.449 1.046v1.046c-.3 1.045-.747 1.941-1.195 2.837-.15.3-.448.598-.747.897a7.28 7.28 0 01-1.046.448l-3.286.448-.298.299-.3.298-.447 3.286c0 .448-.15.747-.448 1.046a1.53 1.53 0 01-.896.747c-.897.448-1.793.896-2.838 1.194-.3.15-.747.15-1.046 0 0 0-.747-.149-1.046-.448L24.29 38.18h-.896l-2.689 1.941c-.3.301-.933.598-1.344.598zm0-31.366c-.896.15-1.793.598-2.54.897l-.597 3.883c0 .663-1.528 2.091-2.09 2.091l-3.735.448c-.448.896-.896 1.793-1.046 2.54l2.24 3.136c.15.15.15.747.15.747v1.494c0 .298 0 .597-.15.746l-2.24 2.988c.3 1.045.598 1.792 1.046 2.539l3.734.597c.299 0 .448.15.747.3l1.046 1.045c.149.149.298.448.298.746l.598 3.734c.896.449 1.643.897 2.539 1.195l3.137-2.24c.149-.15.746-.15.746-.15h1.494c.299 0 .597 0 .747.15l2.987 2.24c1.046-.298 1.792-.597 2.54-1.045l.597-3.734c0-.299.15-.448.299-.747l1.045-1.046c.15-.149.448-.298.747-.298l3.734-.598c.448-.896.896-1.643 1.195-2.539l-2.24-3.137c-.15-.149-.15-.746-.15-.746v-.747-.747c0-.299 0-.598.15-.747l2.24-2.987c-.299-1.046-.598-1.793-1.046-2.54l-4.032-.597s-.449-.15-.747-.298l-1.046-1.046a1.14 1.14 0 01-.299-.747l-.597-3.734c-.896-.448-1.643-.896-2.54-1.195l-3.136 2.24c-.15.15-.747.15-.747.15h-1.493c-.3 0-.598 0-.747-.15l-2.838-2.09z" fill="#BDA28F"/></svg>
