<svg width="16" height="16" viewBox="0 0 16 16" fill="none" xmlns="http://www.w3.org/2000/svg">
<path d="M13.679 2.3C12.1703 0.8 10.2593 0 8.04649 0C3.7215 0 0.100581 3.6 0.100581 7.9C0.100581 9.3 0.502906 10.7 1.20697 11.9L0 16L4.22441 14.9C5.43138 15.5 6.73894 15.9 8.04649 15.9C12.4721 15.9 15.9924 12.3 15.9924 8C16.093 5.8 15.1878 3.8 13.679 2.3ZM11.9692 10.8C11.768 11.3 10.9633 11.7 10.6616 11.7C10.3599 11.8 9.35405 11.7 8.24766 11.2C6.23603 10.3 4.92848 8.3 4.8279 8.2C4.72731 8.1 4.02325 7.1 4.02325 6.2C4.02325 5.3 4.52615 4.7 4.72731 4.5C5.12964 4.1 5.93429 4.2 6.13545 4.6C6.23603 5 6.63836 6 6.73894 6.1C6.83952 6.2 6.83952 6.6 6.53778 6.8C6.43719 6.8 5.93429 7.2 6.13545 7.5C6.23603 7.7 6.63836 8.3 7.24184 8.9C8.04649 9.6 8.64998 9.8 8.85114 9.9C9.05231 10 9.15289 10 9.25347 9.8C9.35405 9.7 9.75637 9.2 9.85695 9C9.95754 8.8 10.1587 8.8 10.2593 8.9C10.3599 9 11.4663 9.4 11.6674 9.5C11.8686 9.7 12.0697 9.7 12.0697 9.8C12.1703 9.9 12.1703 10.3 11.9692 10.8Z" fill="#BDA28F"/>
</svg>
