<svg xmlns="http://www.w3.org/2000/svg" width="20" height="16" fill="none" viewBox="0 0 20 16">
  <path fill="#BDA28F" fill-rule="evenodd" d="M17.998 2.08h-16a.32.32 0 0 0-.32.32v11.2c0 .178.144.32.32.32h16a.32.32 0 0 0 .32-.32V2.4a.32.32 0 0 0-.32-.32ZM1.998.8a1.6 1.6 0 0 0-1.6 1.6v11.2a1.6 1.6 0 0 0 1.6 1.6h16a1.6 1.6 0 0 0 1.6-1.6V2.4a1.6 1.6 0 0 0-1.6-1.6h-16Z" clip-rule="evenodd"/>
  <path fill="#BDA28F" fill-rule="evenodd" d="M9.518 3.88a.683.683 0 0 1 .965 0l3.157 3.155a.682.682 0 1 1-.965.965l-1.992-1.991v5.629a.682.682 0 0 1-1.365 0v-5.63L7.325 8a.683.683 0 0 1-.965-.965l3.158-3.156Z" clip-rule="evenodd"/>
</svg>
