<svg xmlns="http://www.w3.org/2000/svg" width="24" height="24" fill="none" viewBox="0 0 24 24">
  <path fill="#FA6969" fill-rule="evenodd" d="M19.998 6.085h-16a.32.32 0 0 0-.32.32v11.2c0 .176.144.32.32.32h16a.32.32 0 0 0 .32-.32v-11.2a.32.32 0 0 0-.32-.32Zm-16-1.28a1.6 1.6 0 0 0-1.6 1.6v11.2a1.6 1.6 0 0 0 1.6 1.6h16a1.6 1.6 0 0 0 1.6-1.6v-11.2a1.6 1.6 0 0 0-1.6-1.6h-16Z" clip-rule="evenodd"/>
  <path fill="#FA6969" fill-rule="evenodd" d="M11.518 7.887a.683.683 0 0 1 .965 0l3.157 3.156a.682.682 0 1 1-.965.965l-1.992-1.992v5.63a.682.682 0 0 1-1.365 0v-5.63l-1.993 1.992a.683.683 0 0 1-.965-.965l3.158-3.156Z" clip-rule="evenodd"/>
  <path fill="#FA6969" d="M24 .877 23.123 0 0 23.123.877 24 24 .877Z"/>
</svg>
