<svg width="17" height="16" viewBox="0 0 16 16" fill="none" xmlns="http://www.w3.org/2000/svg">
<g clip-path="url(#clip0_5986_46568)">
<path d="M14.6529 4.742C15.3035 4.28 15.8509 3.70333 16.2969 3.03933V3.03867C15.7015 3.29933 15.0682 3.47267 14.4069 3.55667C15.0869 3.15067 15.6062 2.51267 15.8502 1.744C15.2162 2.122 14.5162 2.38867 13.7702 2.538C13.1682 1.89667 12.3102 1.5 11.3742 1.5C9.55821 1.5 8.09621 2.974 8.09621 4.78067C8.09621 5.04067 8.11821 5.29067 8.17221 5.52867C5.44554 5.39533 3.03221 4.08867 1.41088 2.09733C1.12821 2.58867 0.961542 3.15067 0.961542 3.75533C0.961542 4.89133 1.54621 5.898 2.41888 6.48133C1.89154 6.47133 1.37488 6.318 0.936875 6.07733V6.11333C0.936875 7.70733 2.07354 9.03133 3.56488 9.33667C3.29754 9.41 3.00688 9.44467 2.70488 9.44467C2.49488 9.44467 2.28288 9.43267 2.08421 9.38867C2.50888 10.6873 3.71554 11.6427 5.14888 11.674C4.03288 12.5467 2.61554 13.0727 1.08154 13.0727C0.812875 13.0727 0.554875 13.0607 0.296875 13.028C1.75021 13.9647 3.47154 14.5 5.32888 14.5C11.1175 14.5 14.8902 9.67067 14.6529 4.742V4.742Z" fill="#BDA28F"/>
</g>
<defs>
<clipPath id="clip0_5986_46568">
<rect width="16" height="16" fill="white" transform="translate(0.296875)"/>
</clipPath>
</defs>
</svg>
