<svg width="24" height="26" viewBox="0 0 24 26" fill="none" xmlns="http://www.w3.org/2000/svg">
<path fill-rule="evenodd" clip-rule="evenodd" d="M8.79948 0.976563C7.47279 0.977543 6.39909 2.05419 6.40007 3.38088C6.39909 4.70756 7.47377 5.78421 8.80046 5.78519H11.2009V3.38186C11.2018 2.05517 10.1271 0.978524 8.79948 0.976563C8.80046 0.976563 8.80046 0.976563 8.79948 0.976563ZM8.79948 7.38938H2.40039C1.07371 7.39036 -0.000977873 8.467 2.67973e-06 9.79369C-0.00195842 11.1204 1.07273 12.197 2.39941 12.199H8.79948C10.1262 12.198 11.2009 11.1214 11.1999 9.79467C11.2009 8.467 10.1262 7.39036 8.79948 7.38938Z" fill="#91766F"/>
<path fill-rule="evenodd" clip-rule="evenodd" d="M24 9.79369C24.001 8.467 22.9263 7.39036 21.5996 7.38938C20.273 7.39036 19.1983 8.467 19.1993 9.79369V12.199H21.5996C22.9263 12.198 24.001 11.1214 24 9.79369ZM17.6 9.79369V3.38088C17.601 2.05517 16.5273 0.978524 15.2006 0.976562C13.8739 0.977543 12.7992 2.05419 12.8002 3.38088V9.79369C12.7982 11.1204 13.8729 12.197 15.1996 12.199C16.5263 12.198 17.601 11.1214 17.6 9.79369Z" fill="#91766F"/>
<path fill-rule="evenodd" clip-rule="evenodd" d="M15.1996 25.0242C16.5263 25.0232 17.601 23.9466 17.6 22.6199C17.601 21.2932 16.5263 20.2165 15.1996 20.2156H12.7992V22.6199C12.7982 23.9456 13.8729 25.0222 15.1996 25.0242ZM15.1996 18.6104H21.5997C22.9263 18.6094 24.001 17.5328 24 16.2061C24.002 14.8794 22.9273 13.8027 21.6006 13.8008H15.2006C13.8739 13.8018 12.7992 14.8784 12.8002 16.2051C12.7992 17.5328 13.8729 18.6094 15.1996 18.6104Z" fill="#91766F"/>
<path fill-rule="evenodd" clip-rule="evenodd" d="M6.70465e-07 16.207C-0.000979882 17.5337 1.07371 18.6104 2.40039 18.6114C3.72708 18.6104 4.80177 17.5337 4.80079 16.207V13.8027H2.40039C1.07371 13.8037 -0.000979882 14.8804 6.70465e-07 16.207ZM6.40007 16.207V22.6199C6.39811 23.9465 7.47279 25.0232 8.79948 25.0252C10.1262 25.0242 11.2009 23.9475 11.1999 22.6208V16.209C11.2018 14.8823 10.1271 13.8057 8.80046 13.8037C7.47279 13.8037 6.39909 14.8804 6.40007 16.207Z" fill="#91766F"/>
</svg>
