<svg xmlns="http://www.w3.org/2000/svg" width="12" height="12" viewBox="0 0 12 12" fill="none">
<g clip-path="url(#clip0)">
<mask id="path-1-inside-1" fill="white">
<path d="M10.767 3.5565C11.255 3.21 11.6655 2.7775 12 2.2795V2.279C11.5535 2.4745 11.0785 2.6045 10.5825 2.6675C11.0925 2.363 11.482 1.8845 11.665 1.308C11.1895 1.5915 10.6645 1.7915 10.105 1.9035C9.6535 1.4225 9.01 1.125 8.308 1.125C6.946 1.125 5.8495 2.2305 5.8495 3.5855C5.8495 3.7805 5.866 3.968 5.9065 4.1465C3.8615 4.0465 2.0515 3.0665 0.8355 1.573C0.6235 1.9415 0.4985 2.363 0.4985 2.8165C0.4985 3.6685 0.937 4.4235 1.5915 4.861C1.196 4.8535 0.8085 4.7385 0.48 4.558V4.585C0.48 5.7805 1.3325 6.7735 2.451 7.0025C2.2505 7.0575 2.0325 7.0835 1.806 7.0835C1.6485 7.0835 1.4895 7.0745 1.3405 7.0415C1.659 8.0155 2.564 8.732 3.639 8.7555C2.802 9.41 1.739 9.8045 0.5885 9.8045C0.387 9.8045 0.1935 9.7955 0 9.771C1.09 10.4735 2.381 10.875 3.774 10.875C8.1155 10.875 10.945 7.253 10.767 3.5565Z"/>
</mask>
<path d="M12 2.2795L29.7093 14.1746L33.3333 8.77911V2.2795H12ZM12 2.279H33.3333V-30.3505L3.44346 -17.2632L12 2.279ZM10.5825 2.6675L-0.353771 -15.6494L13.2706 23.8308L10.5825 2.6675ZM11.665 1.308L31.9985 7.76251L48.9969 -45.7871L0.740136 -17.0157L11.665 1.308ZM10.105 1.9035L-5.44938 16.5039L2.66572 25.1493L14.2924 22.8218L10.105 1.9035ZM5.9065 4.1465L4.86455 25.4544L32.928 26.8267L26.7111 -0.57386L5.9065 4.1465ZM0.8355 1.573L17.3789 -11.8965L-2.19585 -35.9383L-17.6561 -9.06529L0.8355 1.573ZM1.5915 4.861L1.18702 26.1905L73.953 27.5704L13.447 -12.8748L1.5915 4.861ZM0.48 4.558L10.7533 -14.1388L-20.8533 -31.5056V4.558H0.48ZM2.451 7.0025L8.09455 27.5758L6.72999 -13.8973L2.451 7.0025ZM1.3405 7.0415L5.95355 -13.7871L-30.5599 -21.874L-18.9363 13.672L1.3405 7.0415ZM3.639 8.7555L16.7801 25.5609L63.876 -11.2661L4.10525 -12.5727L3.639 8.7555ZM0 9.771L2.67973 -11.3934L-11.5569 27.7028L0 9.771ZM23.1178 20.951C25.8649 19.0004 28.0459 16.6509 29.7093 14.1746L-5.70927 -9.61558C-4.71493 -11.0959 -3.35494 -12.5804 -1.58381 -13.838L23.1178 20.951ZM33.3333 2.2795V2.279H-9.33333V2.2795H33.3333ZM3.44346 -17.2632C4.92063 -17.91 6.42735 -18.3095 7.89442 -18.4958L13.2706 23.8308C15.7297 23.5185 18.1864 22.859 20.5565 21.8212L3.44346 -17.2632ZM21.5188 20.9844C26.3658 18.0905 30.1894 13.4617 31.9985 7.76251L-8.66848 -5.14651C-7.22539 -9.69266 -4.18077 -13.3645 -0.353771 -15.6494L21.5188 20.9844ZM0.740136 -17.0157C2.42318 -18.0192 4.18904 -18.6688 5.91759 -19.0148L14.2924 22.8218C17.14 22.2518 19.9558 21.2022 22.5899 19.6317L0.740136 -17.0157ZM25.6594 -12.6969C21.3195 -17.3203 15.1095 -20.2083 8.308 -20.2083V22.4583C2.9105 22.4583 -2.01251 20.1653 -5.44938 16.5039L25.6594 -12.6969ZM8.308 -20.2083C-4.89817 -20.2083 -15.4838 -9.48938 -15.4838 3.5855H27.1828C27.1828 13.9504 18.7902 22.4583 8.308 22.4583V-20.2083ZM-15.4838 3.5855C-15.4838 4.95344 -15.3713 6.7811 -14.8981 8.86686L26.7111 -0.57386C27.1033 1.1549 27.1828 2.60756 27.1828 3.5855H-15.4838ZM6.94845 -17.1614C11.2116 -16.9529 14.943 -14.8882 17.3789 -11.8965L-15.7079 15.0425C-10.84 21.0212 -3.48857 25.0459 4.86455 25.4544L6.94845 -17.1614ZM-17.6561 -9.06529C-19.5859 -5.71082 -20.8348 -1.64926 -20.8348 2.8165H21.8318C21.8318 6.37526 20.8329 9.59382 19.3271 12.2113L-17.6561 -9.06529ZM-20.8348 2.8165C-20.8348 11.1053 -16.5755 18.3779 -10.264 22.5968L13.447 -12.8748C18.4495 -9.53089 21.8318 -3.76835 21.8318 2.8165H-20.8348ZM1.99598 -16.4685C5.37664 -16.4044 8.34924 -15.4598 10.7533 -14.1388L-9.79329 23.2548C-6.73224 24.9368 -2.98464 26.1114 1.18702 26.1905L1.99598 -16.4685ZM-20.8533 4.558V4.585H21.8133V4.558H-20.8533ZM-20.8533 4.585C-20.8533 16.1723 -12.6172 25.6933 -1.82799 27.9023L6.72999 -13.8973C15.2822 -12.1463 21.8133 -4.61135 21.8133 4.585H-20.8533ZM-3.19255 -13.5708C-1.27479 -14.0969 0.439159 -14.2498 1.806 -14.2498V28.4168C3.62584 28.4168 5.77579 28.2119 8.09455 27.5758L-3.19255 -13.5708ZM1.806 -14.2498C2.31446 -14.2498 3.91626 -14.2383 5.95355 -13.7871L-3.27255 27.8701C-0.937261 28.3873 0.982541 28.4168 1.806 28.4168V-14.2498ZM-18.9363 13.672C-15.9204 22.8948 -7.32747 29.8542 3.17275 30.0837L4.10525 -12.5727C12.4555 -12.3902 19.2384 -6.86383 21.6173 0.410957L-18.9363 13.672ZM-9.50214 -8.0499C-6.72255 -10.2234 -3.19322 -11.5288 0.5885 -11.5288V31.1378C6.67122 31.1378 12.3265 29.0434 16.7801 25.5609L-9.50214 -8.0499ZM0.5885 -11.5288C1.01853 -11.5288 1.75592 -11.5103 2.67973 -11.3934L-2.67973 30.9354C-1.36892 31.1013 -0.244533 31.1378 0.5885 31.1378V-11.5288ZM-11.5569 27.7028C-7.0883 30.5828 -1.79695 32.2083 3.774 32.2083V-10.4583C6.55895 -10.4583 9.2683 -9.63578 11.5569 -8.16077L-11.5569 27.7028ZM3.774 32.2083C21.5089 32.2083 32.7799 17.156 32.0756 2.53041L-10.5416 4.58259C-10.8899 -2.65002 -5.27792 -10.4583 3.774 -10.4583V32.2083Z" fill="#BDA28F" mask="url(#path-1-inside-1)"/>
</g>
<defs>
<clipPath id="clip0">
<rect width="12" height="12" fill="white"/>
</clipPath>
</defs>
</svg>
