<svg xmlns="http://www.w3.org/2000/svg" width="60" height="60" fill="none" viewBox="0 0 60 60">
  <path fill="#BDA28F" d="M43.383 28.997h-.042V12.86c0-2.932-2.386-5.359-5.317-5.359H20.888c-2.932 0-5.318 2.438-5.318 5.359v16.138h-.041c-2.335 0-4.279 1.872-4.279 4.217v2.417a4.232 4.232 0 002.057 3.6v7.818c-.01 3.003 2.428 5.44 5.431 5.451h.02a5.448 5.448 0 005.452-5.451V39.9h10.491v7.149a5.448 5.448 0 005.452 5.451 5.448 5.448 0 005.451-5.451V39.23a4.268 4.268 0 002.057-3.6v-2.417c0-2.345-1.944-4.217-4.278-4.217zM17.627 12.86c0-1.8 1.46-3.302 3.26-3.302h17.137c1.8 0 3.26 1.512 3.26 3.302v16.138H17.627V12.86zm4.526 34.19a3.398 3.398 0 01-5.801 2.396 3.343 3.343 0 01-.988-2.396v-7.18c.052.02.113.031.165.031h6.624v7.149zm18.01 3.394c-.905 0-1.769-.36-2.407-.998a3.396 3.396 0 01-.997-2.396V39.9h6.624c.061 0 .113-.01.164-.03v7.179a3.389 3.389 0 01-3.384 3.394zm4.042-12.785l-.01.01a2.203 2.203 0 01-.812.165H15.529a2.24 2.24 0 01-2.222-2.212v-2.407c0-1.203 1.018-2.16 2.222-2.16h27.843c1.204 0 2.222.957 2.222 2.16v2.417h.01a2.21 2.21 0 01-1.399 2.027z"/>
  <path fill="#BDA28F" fill-rule="evenodd" d="M4.04 48.31L49.778 2.572l1.657 1.657L5.698 49.967 4.04 48.31z" clip-rule="evenodd"/>
</svg>
