<svg width="16" height="16" viewBox="0 0 32 32" fill="none" xmlns="http://www.w3.org/2000/svg">
<path d="M9.42998 13.084L6.68597 15.828C5.56066 16.9533 4.92847 18.4796 4.92847 20.071C4.92847 21.6624 5.56066 23.1887 6.68597 24.314C7.81129 25.4393 9.33754 26.0715 10.929 26.0715C12.5204 26.0715 14.0467 25.4393 15.172 24.314L18.828 20.656C19.5066 19.9773 20.0124 19.1457 20.3032 18.2311C20.5939 17.3164 20.6609 16.3454 20.4987 15.3995C20.3365 14.4535 19.9497 13.5603 19.3708 12.7948C18.792 12.0293 18.0379 11.4138 17.172 11L16 12.172C15.881 12.2912 15.7775 12.4249 15.692 12.57C16.361 12.7623 16.9683 13.126 17.4538 13.6249C17.9392 14.1239 18.2861 14.7409 18.46 15.415C18.6339 16.089 18.6289 16.7968 18.4454 17.4684C18.262 18.1399 17.9065 18.752 17.414 19.244L13.76 22.9C13.0094 23.6506 11.9914 24.0722 10.93 24.0722C9.86852 24.0722 8.85054 23.6506 8.09998 22.9C7.34941 22.1494 6.92775 21.1315 6.92775 20.07C6.92775 19.0085 7.34941 17.9906 8.09998 17.24L9.68598 15.656C9.46221 14.8175 9.37575 13.9482 9.42998 13.082V13.084Z" fill="white"/>
<path d="M13.1721 9.344C12.4935 10.0227 11.9876 10.8543 11.6969 11.7689C11.4062 12.6836 11.3391 13.6546 11.5014 14.6005C11.6636 15.5465 12.0504 16.4397 12.6292 17.2052C13.2081 17.9707 13.9621 18.5862 14.8281 19L16.3781 17.448C15.7 17.2661 15.0817 16.909 14.5854 16.4124C14.089 15.9159 13.7321 15.2974 13.5505 14.6192C13.3689 13.9411 13.369 13.227 13.5508 12.5489C13.7326 11.8708 14.0896 11.2524 14.5861 10.756L18.2401 7.1C18.9907 6.34944 20.0086 5.92778 21.0701 5.92778C22.1316 5.92778 23.1495 6.34944 23.9001 7.1C24.6507 7.85056 25.0723 8.86854 25.0723 9.93C25.0723 10.9915 24.6507 12.0094 23.9001 12.76L22.3141 14.344C22.5381 15.184 22.6241 16.054 22.5701 16.918L25.3141 14.174C26.4394 13.0487 27.0716 11.5224 27.0716 9.931C27.0716 8.33957 26.4394 6.81331 25.3141 5.688C24.1888 4.56269 22.6625 3.93049 21.0711 3.93049C19.4797 3.93049 17.9534 4.56269 16.8281 5.688L13.1721 9.344Z" fill="white"/>
</svg>
