<svg width="32" height="32" viewBox="0 0 32 32" fill="none" xmlns="http://www.w3.org/2000/svg">
<path fill-rule="evenodd" clip-rule="evenodd" d="M16.2645 8.75C14.2407 8.75 12.5644 10.4434 12.5644 12.5769C12.5644 14.7105 14.2407 16.4038 16.2645 16.4038C18.2884 16.4038 19.9647 14.7105 19.9647 12.5769C19.9647 10.4434 18.2884 8.75 16.2645 8.75ZM19.3353 16.877C20.6298 15.9044 21.4647 14.3341 21.4647 12.5769C21.4647 9.65494 19.1562 7.25 16.2645 7.25C13.3729 7.25 11.0644 9.65494 11.0644 12.5769C11.0644 14.3341 11.8993 15.9044 13.1938 16.877C9.75257 17.9848 7.25 20.9617 7.25 25C7.25 25.4142 7.58579 25.75 8 25.75C8.41421 25.75 8.75 25.4142 8.75 25C8.75 20.778 12.0536 17.9038 16.2645 17.9038C20.4755 17.9038 23.7791 20.778 23.7791 25C23.7791 25.4142 24.1149 25.75 24.5291 25.75C24.9433 25.75 25.2791 25.4142 25.2791 25C25.2791 20.9616 22.7765 17.9848 19.3353 16.877Z" fill="#91766F"/>
</svg>
