<svg fill="none" xmlns="http://www.w3.org/2000/svg" viewBox="0 0 48 48"><path fill-rule="evenodd" clip-rule="evenodd" d="M8.417 13.5a2.42 2.42 0 00-1.71.706A2.406 2.406 0 006 15.91v14.46c0 1.598.637 3.13 1.77 4.26a6.05 6.05 0 004.272 1.765h19.333a2.42 2.42 0 001.709-.706 2.406 2.406 0 00.708-1.704v-4.551l6.65 3.79c.374.213.834.211 1.206-.005.373-.215.602-.612.602-1.042v-14.46c0-.43-.23-.826-.602-1.042a1.211 1.211 0 00-1.206-.004l-6.65 3.79v-.936c0-1.598-.637-3.13-1.77-4.26A6.05 6.05 0 0027.75 13.5H8.417zm22.958 9.016v11.469H12.042a3.63 3.63 0 01-2.564-1.059 3.61 3.61 0 01-1.061-2.556V15.91H27.75c.961 0 1.883.38 2.563 1.059a3.61 3.61 0 011.062 2.556v2.991zm2.417 4.142v-3.421l6.041-3.443V30.1l-6.041-3.443z" fill="#BDA28F"/></svg>
