<svg xmlns="http://www.w3.org/2000/svg" width="835" height="113" fill="none" viewBox="0 0 835 113">
  <path fill="#2EC4B6" fill-rule="evenodd" d="M394.378-1.04c23.689-9.096 61.558 4.419 85.997 11.25 84.281 23.558 292.14 11.198 347.5-56.578 52.282-64.008-230.399-21.856-236.607-104.269-6.104-81.029 176.709-159.591 112.569-209.481-70.702-54.993-151.616 84.46-236.486 113.095-23.792 8.028-47.987-6.184-72.973-8.682-54.626-5.462-108.506-33.647-160.001-14.614C144.82-237.218 27.505-204.22 4.423-111.574-17.027-25.481 52.02 95.872 139.59 110.132 246.454 127.534 293.303 37.77 394.378-1.04Z" clip-rule="evenodd"/>
</svg>
