<svg xmlns="http://www.w3.org/2000/svg" width="463" height="468" fill="none" viewBox="0 0 463 468">
  <path fill="#FA6969" d="M256.406 138.385c69.155 19.58 175.465-11.695 203.18 54.537 22.834 54.567-98.415 64.83-132.806 113.64-33.836 48.023-2.048 158.104-60.454 160.651-68.061 2.968-68.481-117.616-126.567-152.497-34.775-20.882-88.145 30.869-119.258 4.88-29.562-24.693-21.586-75.73-9.946-112.803 9.988-31.812 53.756-40.348 67.57-70.733C97.605 93.216 57.595 7.615 104.076 1.094c51.593-7.24 56.408 83.39 94.832 118.02 15.358 13.842 37.552 13.623 57.498 19.271Z"/>
</svg>
