<svg xmlns="http://www.w3.org/2000/svg" width="1440" height="159" fill="none" viewBox="0 0 1440 159">
  <g clip-path="url(#a)">
    <g clip-path="url(#b)">
      <path fill="#2EC4B6" fill-rule="evenodd" d="M718.378-37.29c23.689-9.096 61.558 4.419 85.997 11.25 84.281 23.558 292.145 11.198 347.495-56.578 52.29-64.008-230.394-21.856-236.602-104.269-6.104-81.029 176.712-159.591 112.572-209.481-70.705-54.993-151.619 84.46-236.489 113.095-23.792 8.028-47.987-6.184-72.973-8.682-54.626-5.462-108.506-33.647-160.001-14.614-89.557 33.101-206.872 66.099-229.954 158.745C306.974-61.73 376.02 59.622 463.591 73.882 570.454 91.284 617.303 1.52 718.378-37.29Z" clip-rule="evenodd"/>
    </g>
  </g>
  <defs>
    <clipPath id="a">
      <path fill="#fff" d="M0 0h1440v159H0z"/>
    </clipPath>
    <clipPath id="b">
      <path fill="#fff" d="M0 308h1440V-63.25H0z"/>
    </clipPath>
  </defs>
</svg>
