<svg xmlns="http://www.w3.org/2000/svg" width="439" height="415" fill="none" viewBox="0 0 439 415">
  <path fill="#FFDD6E" d="M218.306 317.954c-71.867-1.014-166.459 56.711-210.372-.092-36.179-46.798 78.283-88.092 98.868-144.14 20.255-55.144-38.941-153.247 16.815-170.824 64.974-20.482 96.589 95.885 161.724 114.543 38.995 11.17 77.151-52.63 113.931-35.58 34.946 16.2 40.451 67.562 38.803 106.385-1.414 33.314-41.482 52.886-46.961 85.811-7.727 46.426 53.076 118.755 9.866 137.085-47.962 20.345-76.069-65.949-122.147-89.455-18.418-9.396-39.799-3.44-60.527-3.733Z"/>
</svg>
