<svg width="20" height="22" viewBox="0 0 20 22" fill="none" xmlns="http://www.w3.org/2000/svg">
<g clip-path="url(#clip0)">
<path d="M6.3655 18.744L5.87074 18.2104C5.71622 18.0425 5.6311 17.8191 5.6311 17.5803C5.6311 17.3417 5.71622 17.118 5.87074 16.95L11.4759 10.8633L5.86451 4.76952C5.71 4.60185 5.625 4.37817 5.625 4.13952C5.625 3.90087 5.71 3.67705 5.86451 3.50926L6.35623 2.97554C6.67598 2.62803 7.19684 2.62803 7.5166 2.97554L14.2217 10.2309C14.376 10.3986 14.4848 10.622 14.4848 10.8628L14.4848 10.8655C14.4848 11.1043 14.3759 11.3277 14.2217 11.4954L7.53477 18.744C7.38038 18.9119 7.16843 19.0041 6.94867 19.0044C6.72879 19.0044 6.51977 18.9119 6.3655 18.744Z" fill="#BDA28F"/>
</g>
<defs>
<clipPath id="clip0">
<rect width="21.7193" height="20" fill="white" transform="matrix(1.28062e-07 1 1 -1.51026e-07 0 0)"/>
</clipPath>
</defs>
</svg>
