<svg width="20" height="22" viewBox="0 0 20 22" fill="none" xmlns="http://www.w3.org/2000/svg">
<g clip-path="url(#clip0)">
<path d="M13.6345 18.744L14.1293 18.2104C14.2838 18.0425 14.3689 17.8191 14.3689 17.5803C14.3689 17.3417 14.2838 17.118 14.1293 16.95L8.5241 10.8633L14.1355 4.76952C14.29 4.60185 14.375 4.37817 14.375 4.13952C14.375 3.90087 14.29 3.67705 14.1355 3.50926L13.6438 2.97554C13.324 2.62803 12.8032 2.62803 12.4834 2.97554L5.77835 10.2309C5.62395 10.3986 5.51517 10.622 5.51517 10.8628L5.51517 10.8655C5.51517 11.1043 5.62408 11.3277 5.77835 11.4954L12.4652 18.744C12.6196 18.9119 12.8316 19.0041 13.0513 19.0044C13.2712 19.0044 13.4802 18.9119 13.6345 18.744Z" fill="#BDA28F"/>
</g>
<defs>
<clipPath id="clip0">
<rect width="21.7193" height="20" fill="white" transform="translate(20) rotate(90)"/>
</clipPath>
</defs>
</svg>
