<svg width="21" height="20" viewBox="0 0 21 20" fill="none" xmlns="http://www.w3.org/2000/svg">
<path d="M17.7252 3.0777C15.8376 1.10738 13.2258 -0.00457649 10.4971 0.000444175C4.98284 -0.00650108 0.506953 4.45809 0.500008 9.97241C0.496577 12.6991 1.6084 15.3085 3.57726 17.1948C3.58299 17.2005 3.58513 17.209 3.59082 17.2141C3.64864 17.2697 3.71148 17.3169 3.77005 17.3705C3.93071 17.5132 4.09138 17.6611 4.26061 17.7989C4.35128 17.8703 4.44554 17.9417 4.53838 18.0074C4.69833 18.1266 4.85828 18.2458 5.02535 18.3558C5.1389 18.4273 5.256 18.4986 5.37236 18.5701C5.52658 18.6629 5.68012 18.7564 5.83936 18.8414C5.97434 18.9128 6.11211 18.9742 6.24922 19.0392C6.39917 19.1106 6.54699 19.182 6.70049 19.2462C6.854 19.3105 7.00826 19.3605 7.1639 19.4162C7.31954 19.4719 7.4538 19.5233 7.60304 19.569C7.77157 19.6197 7.94436 19.6589 8.11573 19.701C8.25853 19.736 8.39706 19.776 8.54416 19.8046C8.74123 19.8439 8.94117 19.8689 9.14112 19.896C9.26467 19.9132 9.38534 19.9374 9.51027 19.9496C9.83732 19.9817 10.1672 19.9996 10.4999 19.9996C10.8327 19.9996 11.1626 19.9817 11.4896 19.9496C11.6146 19.9374 11.7352 19.9132 11.8587 19.896C12.0587 19.8689 12.2586 19.8439 12.4557 19.8046C12.5985 19.776 12.7413 19.7332 12.8841 19.701C13.0555 19.6589 13.2283 19.6196 13.3968 19.569C13.546 19.5233 13.6903 19.4676 13.8359 19.4162C13.9816 19.3647 14.1473 19.3091 14.2994 19.2462C14.4514 19.1834 14.6007 19.1098 14.7506 19.0392C14.8877 18.9742 15.0256 18.9128 15.1605 18.8414C15.3197 18.7564 15.4732 18.6629 15.6275 18.5701C15.7439 18.4986 15.861 18.4337 15.9745 18.3558C16.1416 18.2459 16.3016 18.1266 16.4615 18.0074C16.5543 17.9359 16.6485 17.8717 16.7392 17.7989C16.9085 17.6632 17.0691 17.519 17.2298 17.3705C17.2883 17.3169 17.3512 17.2698 17.409 17.2141C17.4147 17.2091 17.4169 17.2005 17.4226 17.1948C21.4046 13.38 21.54 7.05955 17.7252 3.0777ZM16.1203 16.4472C15.9904 16.5614 15.8561 16.6699 15.7205 16.7749C15.6405 16.8363 15.5605 16.897 15.4784 16.9556C15.3491 17.0491 15.2178 17.1377 15.0842 17.2226C14.9871 17.2848 14.8879 17.3447 14.7879 17.4033C14.6622 17.4747 14.5344 17.5461 14.4051 17.6175C14.2909 17.676 14.1745 17.7311 14.0574 17.7853C13.9403 17.8396 13.8111 17.8974 13.6847 17.9481C13.5583 17.9988 13.424 18.0467 13.2919 18.0909C13.1713 18.1323 13.0506 18.1752 12.9285 18.2116C12.7857 18.2544 12.6364 18.2894 12.4886 18.3251C12.3729 18.3522 12.2587 18.383 12.1416 18.4058C11.9724 18.4387 11.7996 18.4615 11.6261 18.4851C11.5275 18.4979 11.4297 18.5158 11.3304 18.5258C11.0562 18.5522 10.7784 18.5679 10.4978 18.5679C10.2172 18.5679 9.93945 18.5522 9.66524 18.5258C9.566 18.5158 9.46818 18.4979 9.36961 18.4851C9.1961 18.4615 9.0233 18.4387 8.85407 18.4058C8.73696 18.383 8.6227 18.3523 8.50705 18.3251C8.35924 18.2894 8.21213 18.2537 8.0672 18.2116C7.94512 18.1752 7.82441 18.1323 7.70375 18.0909C7.57166 18.0452 7.43953 17.9988 7.31101 17.9481C7.18248 17.8974 7.0611 17.8417 6.93826 17.7853C6.81542 17.7289 6.70476 17.6761 6.59054 17.6175C6.4613 17.5504 6.33348 17.4797 6.2078 17.4033C6.10784 17.3448 6.00856 17.2848 5.91145 17.2226C5.77794 17.1377 5.64653 17.0491 5.51729 16.9556C5.43516 16.897 5.3552 16.8363 5.27521 16.7749C5.13952 16.6699 5.0053 16.5607 4.87535 16.4472C4.84393 16.4236 4.81536 16.3936 4.78469 16.3664C4.81661 13.9374 6.37708 11.7926 8.67843 11.0146C9.82912 11.562 11.1651 11.562 12.3158 11.0146C14.6171 11.7926 16.1776 13.9374 16.2096 16.3664C16.1796 16.3936 16.151 16.4208 16.1203 16.4472ZM8.00716 5.7256C8.7803 4.3506 10.5217 3.86272 11.8967 4.63586C13.2717 5.409 13.7596 7.15038 12.9864 8.52537C12.7299 8.98158 12.3529 9.35855 11.8967 9.61511C11.8931 9.61511 11.8888 9.61511 11.8845 9.61938C11.6952 9.72477 11.4951 9.80953 11.2876 9.87217C11.2505 9.88288 11.2162 9.89715 11.1769 9.90643C11.1055 9.92501 11.0305 9.93785 10.957 9.9507C10.8185 9.97492 10.6784 9.98898 10.5378 9.99283H10.4564C10.3159 9.98898 10.1758 9.97492 10.0373 9.9507C9.96585 9.93785 9.89016 9.92501 9.81736 9.90643C9.7795 9.89715 9.74595 9.88288 9.7067 9.87217C9.49922 9.80953 9.29911 9.72481 9.10974 9.61938L9.0969 9.61511C7.72191 8.84197 7.23402 7.10059 8.00716 5.7256ZM17.4763 14.9505C17.018 12.8133 15.6107 11.0014 13.6532 10.0286C15.2534 8.28555 15.1375 5.57535 13.3944 3.97522C11.6514 2.37509 8.94117 2.49099 7.34105 4.23404C5.83677 5.8727 5.83677 8.38998 7.34105 10.0286C5.38361 11.0014 3.97624 12.8133 3.51802 14.9505C0.77991 11.0937 1.68681 5.74744 5.54365 3.00933C9.40048 0.271226 14.7467 1.17813 17.4848 5.03496C18.5141 6.48481 19.0667 8.21907 19.0658 9.99714C19.0658 11.7737 18.51 13.5057 17.4763 14.9505Z" fill="#7D13A3"/>
</svg>
