<svg width="16" height="16" viewBox="0 0 32 32" fill="none" xmlns="http://www.w3.org/2000/svg">
    <path d="M4.38361 10.1848L5.16977 9.39317C5.41718 9.14595 5.74636 9.00976 6.09816 9.00976C6.44978 9.00976 6.77934 9.14595 7.02676 9.39317L15.9946 18.3614L24.9729 9.38322C25.2199 9.136 25.5494 9 25.9011 9C26.2527 9 26.5824 9.136 26.8296 9.38322L27.616 10.17C28.128 10.6816 28.128 11.5149 27.616 12.0266L16.9263 22.7546C16.6793 23.0017 16.3501 23.1757 15.9954 23.1757H15.9913C15.6395 23.1757 15.3103 23.0015 15.0633 22.7546L4.38361 12.0556C4.1362 11.8086 4.00039 11.4695 4 11.1179C4 10.7661 4.1362 10.4316 4.38361 10.1848Z" fill="#BDA28F"/>
</svg>
