<svg viewBox="0 0 32 32">
    <path d="M25.7201 7.77615L24.3385 6.41101C23.9647 6.03718 23.3471 6.03718 22.957 6.41101L16.0655 13.3024L9.04409 6.28098C8.67009 5.90699 8.05246 5.90699 7.66254 6.28098L6.28098 7.66254C5.90699 8.03637 5.90699 8.654 6.28098 9.04409L13.2863 16.0494L6.41101 22.9571C6.03718 23.331 6.03718 23.9486 6.41101 24.3387L7.79256 25.7202C8.1664 26.0941 8.78403 26.0941 9.17412 25.7202L16.0655 18.8287L22.957 25.7202C23.3308 26.0941 23.9484 26.0941 24.3385 25.7202L25.7201 24.3387C26.0939 23.9648 26.0939 23.3472 25.7201 22.9571L18.8123 16.0656L25.7038 9.17428C26.0939 8.78387 26.0939 8.16623 25.7201 7.77615Z" fill="#FA6969"/>
</svg>
