<svg viewBox="0 0 1152 243" fill="none" xmlns="http://www.w3.org/2000/svg">
<g clip-path="url(#clip0)">
<path d="M1159.78 164.718C1167.48 192.275 1166.55 206.628 1186.4 223.468C1206.25 240.117 1246.89 259.253 1260.67 285.471C1274.21 311.497 1260.9 344.794 1232.64 367.567C1204.62 390.34 1161.88 402.779 1137.12 382.494C1112.37 362.209 1105.6 309.2 1088.31 283.557C1070.8 257.914 1042.77 259.636 1021.05 249.111C999.569 238.777 984.856 216.196 997.934 206.819C1011.25 197.442 1052.58 201.078 1077.34 178.114C1102.33 155.15 1110.73 105.395 1123.11 100.993C1135.49 96.4004 1151.84 137.161 1159.78 164.718Z" fill="#FFDD6E"/>
<path d="M48.9704 98.3667C60.7988 140.667 59.3651 162.698 89.8322 188.548C120.299 214.104 182.668 243.48 203.815 283.723C224.605 323.673 204.174 374.786 160.803 409.742C117.79 444.699 52.1964 463.793 14.202 432.655C-23.7923 401.517 -34.187 320.148 -60.7114 280.786C-87.5942 241.423 -130.607 244.067 -163.941 227.911C-196.918 212.048 -219.499 177.386 -199.427 162.992C-178.996 148.598 -115.552 154.179 -77.5579 118.929C-39.2051 83.6792 -26.3014 7.30399 -7.30423 0.547725C11.6929 -6.50229 36.7835 56.0666 48.9704 98.3667Z" fill="#FA6969"/>
<path fill-rule="evenodd" clip-rule="evenodd" d="M574.703 226.008C593.654 231.962 623.949 223.116 643.5 218.644C710.925 203.224 877.212 211.315 921.5 255.677C963.326 297.573 737.181 269.983 732.214 323.926C727.331 376.963 873.582 428.386 822.27 461.041C765.708 497.036 700.977 405.758 633.081 387.015C614.047 381.76 594.691 391.063 574.703 392.698C531.001 396.273 487.897 414.721 446.702 402.263C375.056 380.597 281.204 358.999 262.738 298.357C245.579 242.005 300.816 162.575 370.873 153.241C456.363 141.851 493.843 200.605 574.703 226.008Z" fill="#2EC4B6"/>
</g>
<defs>
<clipPath id="clip0">
<rect width="1152" height="243" fill="white"/>
</clipPath>
</defs>
</svg>
