<svg width="32" height="32" viewBox="0 0 32 32" fill="none" xmlns="http://www.w3.org/2000/svg">
<path d="M24.1991 24.3015H23.3138C23.0609 20.6072 21.2904 17.465 18.8033 16.0637C21.3326 14.6624 23.1873 11.4777 23.4403 7.69853H24.1148C24.5784 7.69853 25 7.31636 25 6.84928C25 6.38221 24.6206 6 24.1569 6H7.84308C7.37939 6 7 6.38217 7 6.84924C7 7.31632 7.37939 7.69849 7.84308 7.69849H8.60186C8.81262 11.4352 10.6253 14.5775 13.1124 15.9787C10.5831 17.38 8.77045 20.5223 8.51752 24.3015H7.84308C7.37939 24.3015 7 24.6836 7 25.1507C7 25.6178 7.37939 26 7.84308 26H24.1147C24.5784 26 25 25.6178 25 25.1508C25 24.6837 24.6627 24.3015 24.1991 24.3015ZM10.3302 7.69853H21.8384C21.5433 11.8599 19.0983 15.1295 16.1054 15.1295C13.0703 15.1295 10.5831 11.8599 10.3302 7.69853ZM10.2038 24.3015C10.541 20.1401 12.986 16.9129 15.9789 16.9129C18.9719 16.9129 21.4169 20.1401 21.7119 24.3015H10.2038Z" fill="#BDA28F"/>
</svg>
