<svg width="32" height="32" viewBox="0 0 32 32" fill="none" xmlns="http://www.w3.org/2000/svg">
<g clip-path="url(#clip0)">
<path d="M5.00098 12.6016C5.00098 16.3988 6.27068 18.2325 7.19773 19.5714C7.7456 20.3627 8.14146 20.9344 8.14146 21.6719V27.2968C8.14146 27.6851 8.45632 28 8.84459 28H17.5634C17.9517 28 18.2666 27.6851 18.2666 27.2968V25.8909H21.5009C21.8892 25.8909 22.2041 25.576 22.2041 25.1877V23.0783C22.2041 22.844 22.0874 22.6252 21.893 22.4946C21.6319 22.3157 21.2666 21.9286 21.2666 21.672C21.2666 21.3915 21.6814 20.9916 21.893 20.8495C22.0874 20.7189 22.2041 20.5 22.2041 20.2658V18.8594H23.3761C23.6101 18.8594 23.8287 18.743 23.9593 18.5489C24.09 18.3548 24.1156 18.1084 24.0275 17.8917L22.2041 13.4018V12.6016C22.2041 7.85866 18.3454 4 13.6025 4C8.85963 4 5.00098 7.85866 5.00098 12.6016ZM6.40718 12.6016C6.40718 8.63406 9.63499 5.40625 13.6025 5.40625C17.5701 5.40625 20.7978 8.63406 20.7978 12.6016V13.5391C20.7978 13.6298 20.8153 13.7196 20.8495 13.8037L22.3316 17.4531H21.5009C21.1126 17.4531 20.7978 17.7679 20.7978 18.1562V19.925C20.4244 20.2523 19.8604 20.8781 19.8604 21.672C19.8604 22.4658 20.4244 23.0916 20.7978 23.4189V24.4846H17.5634C17.1751 24.4846 16.8603 24.7994 16.8603 25.1877V26.5937H9.54767V21.6719C9.54767 20.4951 8.96777 19.6576 8.35381 18.7709C7.48657 17.5183 6.40718 15.9595 6.40718 12.6016Z" fill="#BDA28F"/>
<path d="M27.5599 18.5917C27.9202 18.4469 28.3297 18.6215 28.4745 18.9819C28.8232 19.8493 29.0001 20.7636 29.0001 21.6993C29.0001 22.6349 28.8232 23.5492 28.4745 24.4166C28.3642 24.691 28.1006 24.8577 27.8219 24.8577C27.7346 24.8577 27.6458 24.8413 27.5599 24.8068C27.1996 24.6619 27.0249 24.2524 27.1697 23.8922C27.4511 23.1922 27.5938 22.4544 27.5938 21.6993C27.5938 20.9441 27.4511 20.2063 27.1697 19.5063C27.0249 19.1461 27.1995 18.7366 27.5599 18.5917Z" fill="#BDA28F"/>
<path d="M24.9501 19.6406C25.3104 19.4958 25.7199 19.6705 25.8648 20.0308C26.0788 20.5634 26.1874 21.1248 26.1874 21.6993C26.1874 22.2738 26.0788 22.8352 25.8648 23.3678C25.7545 23.6421 25.4908 23.8089 25.2121 23.8089C25.1249 23.8089 25.0361 23.7925 24.9501 23.758C24.5898 23.6131 24.4151 23.2036 24.56 22.8433C24.7067 22.4783 24.7811 22.0933 24.7811 21.6993C24.7811 21.3053 24.7067 20.9203 24.56 20.5553C24.4151 20.1949 24.5898 19.7854 24.9501 19.6406Z" fill="#BDA28F"/>
</g>
<defs>
<clipPath id="clip0">
<rect width="24" height="24" fill="white" transform="translate(5 4)"/>
</clipPath>
</defs>
</svg>
