<svg xmlns="http://www.w3.org/2000/svg" width="12" height="12" viewBox="0 0 12 12" fill="none">
<path d="M1.73344 0.609375C0.908501 0.609375 0.369141 1.15107 0.369141 1.86305C0.369141 2.55931 0.892433 3.11645 1.70178 3.11645H1.71744C2.55851 3.11645 3.08194 2.55931 3.08194 1.86305C3.06622 1.15107 2.55851 0.609375 1.73344 0.609375Z" fill="#BDA28F"/>
<path d="M0.511719 4.10706H2.92336V11.3626H0.511719V4.10706Z" fill="#BDA28F"/>
<path d="M8.8424 3.93677C7.54141 3.93677 6.66903 5.15927 6.66903 5.15927V4.10706H4.25732V11.3626H6.66889V7.31082C6.66889 7.0939 6.68462 6.87734 6.74834 6.72222C6.92268 6.28908 7.31942 5.84036 7.98567 5.84036C8.85833 5.84036 9.20735 6.50572 9.20735 7.4811V11.3626H11.6188V7.20239C11.6188 4.97381 10.429 3.93677 8.8424 3.93677Z" fill="#BDA28F"/>
</svg>
