<svg viewBox="0 0 32 32">
    <path d="M22.75 28H9.25C8.01 28 7 26.991 7 25.75V15.25C7 14.009 8.01 13 9.25 13H22.75C23.99 13 25 14.009 25 15.25V25.75C25 26.991 23.99 28 22.75 28ZM9.25 14.5C8.837 14.5 8.5 14.836 8.5 15.25V25.75C8.5 26.164 8.837 26.5 9.25 26.5H22.75C23.163 26.5 23.5 26.164 23.5 25.75V15.25C23.5 14.836 23.163 14.5 22.75 14.5H9.25Z" fill="#BFAA9B"/>
    <path d="M21.25 14.5C20.836 14.5 20.5 14.164 20.5 13.75V10C20.5 7.519 18.481 5.5 16 5.5C13.519 5.5 11.5 7.519 11.5 10V13.75C11.5 14.164 11.164 14.5 10.75 14.5C10.336 14.5 10 14.164 10 13.75V10C10 6.691 12.691 4 16 4C19.309 4 22 6.691 22 10V13.75C22 14.164 21.664 14.5 21.25 14.5Z" fill="#BFAA9B"/>
    <path d="M16.0001 21.0001C14.8971 21.0001 14.0001 20.1031 14.0001 19.0001C14.0001 17.8971 14.8971 17.0001 16.0001 17.0001C17.1031 17.0001 18.0001 17.8971 18.0001 19.0001C18.0001 20.1031 17.1031 21.0001 16.0001 21.0001ZM16.0001 18.5001C15.7251 18.5001 15.5001 18.7241 15.5001 19.0001C15.5001 19.2761 15.7251 19.5001 16.0001 19.5001C16.2751 19.5001 16.5001 19.2761 16.5001 19.0001C16.5001 18.7241 16.2751 18.5001 16.0001 18.5001Z" fill="#BFAA9B"/>
    <path d="M16 24C15.586 24 15.25 23.664 15.25 23.25V20.5C15.25 20.086 15.586 19.75 16 19.75C16.414 19.75 16.75 20.086 16.75 20.5V23.25C16.75 23.664 16.414 24 16 24Z" fill="#BFAA9B"/>
</svg>
