<svg fill="none" xmlns="http://www.w3.org/2000/svg" viewBox="0 0 48 48"><path d="M36 25.34c0-.592-.494-1.073-1.104-1.073-.61 0-1.104.481-1.104 1.074 0 5.25-4.393 9.523-9.792 9.523-5.4 0-9.792-4.272-9.792-9.523 0-.593-.494-1.074-1.104-1.074-.61 0-1.104.481-1.104 1.074 0 6.073 4.795 11.076 10.896 11.62v2.89h-4.097c-.61 0-1.104.48-1.104 1.073s.495 1.074 1.104 1.074h10.402c.61 0 1.103-.48 1.103-1.074 0-.593-.494-1.073-1.103-1.073h-4.097v-2.89C31.205 36.417 36 31.414 36 25.34z" fill="#BDA28F"/><path d="M24 32.215c3.898 0 7.068-3.084 7.068-6.874V12.874C31.068 9.084 27.898 6 24 6c-3.897 0-7.068 3.084-7.068 6.874V25.34c0 3.79 3.17 6.874 7.068 6.874zm-4.86-19.341c0-2.607 2.18-4.727 4.86-4.727s4.86 2.12 4.86 4.727V25.34c0 2.606-2.18 4.726-4.86 4.726s-4.86-2.12-4.86-4.726V12.874z" fill="#BDA28F"/></svg>
