<svg width="24" height="24" viewBox="0 0 24 24" fill="none" xmlns="http://www.w3.org/2000/svg">
<circle cx="12" cy="12" r="12" fill="#FFEBE5"/>
<path d="M16.7997 12.5361C16.7997 12.299 16.602 12.1067 16.3581 12.1067C16.1142 12.1067 15.9166 12.299 15.9166 12.5361C15.9166 14.6365 14.1595 16.3453 11.9997 16.3453C9.8399 16.3453 8.08286 14.6365 8.08286 12.5361C8.08286 12.299 7.88517 12.1067 7.64128 12.1067C7.39739 12.1067 7.19971 12.299 7.19971 12.5361C7.19971 14.9653 9.11761 16.9666 11.5581 17.1841V18.3401H9.91942C9.67553 18.3401 9.47785 18.5324 9.47785 18.7696C9.47785 19.0068 9.67553 19.199 9.91942 19.199H14.08C14.3238 19.199 14.5215 19.0068 14.5215 18.7696C14.5215 18.5324 14.3238 18.3401 14.08 18.3401H12.4412V17.1841C14.8818 16.9667 16.7997 14.9653 16.7997 12.5361Z" fill="#FA6969"/>
<path d="M11.9997 15.2857C13.5587 15.2857 14.8271 14.0522 14.8271 12.5361V7.54931C14.8271 6.03328 13.5587 4.7998 11.9997 4.7998C10.4408 4.7998 9.17244 6.03328 9.17244 7.54931V12.5361C9.17244 14.0522 10.4408 15.2857 11.9997 15.2857ZM10.0555 7.54931C10.0555 6.50677 10.9277 5.65867 11.9997 5.65867C13.0717 5.65867 13.9439 6.50677 13.9439 7.54931V12.5361C13.9439 13.5786 13.0717 14.4268 11.9997 14.4268C10.9277 14.4268 10.0555 13.5786 10.0555 12.5361V7.54931Z" fill="#FA6969"/>
<line x1="21.214" y1="4.41421" x2="4.41402" y2="21.2142" stroke="#FFEBE5" stroke-width="4"/>
<line x1="20.9302" y1="4.13043" x2="4.13023" y2="20.9304" stroke="#FA6969" stroke-width="1.5"/>
</svg>
