<svg width="133" height="132" viewBox="0 0 133 132" fill="none" xmlns="http://www.w3.org/2000/svg">
<circle cx="66.5" cy="66" r="66" fill="#F4EFE7"/>
<path d="M89.7402 64.4627H89.6707V37.8402C89.6707 33.0044 85.6427 29 80.6944 29H51.7686C46.8203 29 42.7922 33.0214 42.7922 37.8402V64.4627H42.7228C38.7815 64.4627 35.5 67.5509 35.5 71.4195V75.407C35.5174 77.8503 36.8369 80.0901 38.9725 81.3457V94.2413C38.9551 99.1959 43.07 103.217 48.1398 103.234C48.1572 103.234 48.1572 103.234 48.1746 103.234C53.2618 103.234 57.3766 99.2128 57.3766 94.2413V82.4486H75.0863V94.2413C75.0863 99.2128 79.2012 103.234 84.2884 103.234C89.3756 103.234 93.4905 99.2128 93.4905 94.2413V81.3457C95.6261 80.0901 96.9282 77.8334 96.963 75.407V71.4195C96.963 67.5509 93.6815 64.4627 89.7402 64.4627ZM46.2647 37.8402C46.2647 34.8709 48.7302 32.3936 51.7686 32.3936H80.6944C83.7328 32.3936 86.1983 34.8878 86.1983 37.8402V64.4627H46.2647V37.8402ZM53.9042 94.2413C53.9042 97.3294 51.3345 99.8406 48.1746 99.8406C46.6467 99.8406 45.1882 99.2468 44.1118 98.1948C43.0353 97.1427 42.4276 95.7175 42.445 94.2413V82.3977C42.5318 82.4317 42.636 82.4486 42.7228 82.4486H53.9042V94.2413ZM84.3058 99.8406C82.7779 99.8406 81.3194 99.2468 80.243 98.1948C79.1665 97.1427 78.5588 95.7175 78.5588 94.2413V82.4486H89.7402C89.8444 82.4486 89.9312 82.4317 90.018 82.3977V94.2413C90.018 97.3294 87.4657 99.8406 84.3058 99.8406ZM91.1292 78.7496L91.1118 78.7666C90.6778 78.9363 90.209 79.0381 89.7402 79.0381H42.7228C42.254 79.0381 41.7678 78.9363 41.3338 78.7666C39.9274 78.2067 38.9898 76.8832 38.9725 75.39V71.4195C38.9725 69.4343 40.6914 67.8563 42.7228 67.8563H89.7228C91.7542 67.8563 93.4731 69.4343 93.4731 71.4195V75.407H93.4905C93.4731 76.8832 92.5355 78.2067 91.1292 78.7496Z" fill="#BDA28F"/>
<line x1="113.745" y1="20.6093" x2="20.7451" y2="113.609" stroke="#BDA28F" stroke-width="3.52155"/>
</svg>
