<svg width="24" height="24" viewBox="0 0 24 24" fill="none" xmlns="http://www.w3.org/2000/svg">
<path d="M19.7364 5.75767L18.2412 4.26236C17.558 3.5792 16.4465 3.57923 15.7634 4.26236C15.1201 4.90564 5.29571 14.7308 4.63916 15.3874C4.56923 15.4573 4.52237 15.5503 4.50568 15.6412L3.75809 19.6785C3.72911 19.835 3.779 19.9958 3.89157 20.1084C4.00426 20.2211 4.16507 20.2708 4.32141 20.2419L8.35839 19.4942C8.45168 19.4768 8.5434 19.4295 8.61217 19.3607L19.7364 8.23566C20.4211 7.55091 20.4212 6.44251 19.7364 5.75767ZM4.83671 19.1631L5.28894 16.7209L7.2788 18.7109L4.83671 19.1631ZM8.27038 18.3352L5.66457 15.7292L15.1782 6.21493L17.784 8.82092L8.27038 18.3352ZM19.0527 7.55204L18.4675 8.1373L15.8617 5.53131L16.4469 4.94605C16.7531 4.63983 17.2513 4.6398 17.5576 4.94605L19.0527 6.44135C19.3597 6.74831 19.3597 7.24505 19.0527 7.55204Z" fill="#91766F"/>
</svg>
