<svg width="25" height="24" viewBox="0 0 25 24" fill="none" xmlns="http://www.w3.org/2000/svg">
<g clip-path="url(#clip0)">
<path d="M12.6363 0C6.05001 0 0.708984 5.3736 0.708984 12C0.708984 18.6264 6.05001 24 12.6363 24C19.2225 24 24.5635 18.6264 24.5635 12C24.5635 5.3736 19.2225 0 12.6363 0ZM9.17033 18.1406H6.2655V9.34808H9.17033V18.1406ZM7.718 8.14746H7.69908C6.72431 8.14746 6.09387 7.47235 6.09387 6.6286C6.09387 5.76581 6.7436 5.10938 7.7373 5.10938C8.73099 5.10938 9.3425 5.76581 9.36143 6.6286C9.36143 7.47235 8.73099 8.14746 7.718 8.14746ZM19.6445 18.1406H16.7401V13.4368C16.7401 12.2547 16.3195 11.4485 15.2685 11.4485C14.466 11.4485 13.9881 11.9923 13.7781 12.5173C13.7013 12.7051 13.6826 12.9677 13.6826 13.2305V18.1406H10.7779C10.7779 18.1406 10.8159 10.173 10.7779 9.34808H13.6826V10.593C14.0686 9.9939 14.7592 9.14172 16.3004 9.14172C18.2115 9.14172 19.6445 10.3984 19.6445 13.099V18.1406Z" fill="#91766F"/>
</g>
<defs>
<clipPath id="clip0">
<rect width="23.8545" height="24" fill="white" transform="translate(0.708984)"/>
</clipPath>
</defs>
</svg>
