<svg width="25" height="24" viewBox="0 0 25 24" fill="none" xmlns="http://www.w3.org/2000/svg">
<g clip-path="url(#clip0)">
<path fill-rule="evenodd" clip-rule="evenodd" d="M0.854492 12C0.854492 5.3736 6.22809 0 12.8545 0C19.4809 0 24.8545 5.3736 24.8545 12C24.8545 18.6264 19.4809 24 12.8545 24C6.22809 24 0.854492 18.6264 0.854492 12ZM19.3833 16.5135C19.5536 16.0752 19.6702 15.5744 19.7036 14.8409C19.7372 14.1061 19.7451 13.8713 19.7451 12C19.7451 10.1287 19.7372 9.89392 19.7037 9.15912C19.6702 8.4256 19.5538 7.9248 19.3833 7.48645C19.2104 7.02667 18.9391 6.61029 18.5886 6.26605C18.2444 5.91541 17.8278 5.64404 17.368 5.47101C16.9297 5.3009 16.4289 5.18445 15.6954 5.15112C14.9606 5.11743 14.7258 5.10938 12.8545 5.10938C10.9832 5.10938 10.7484 5.11743 10.0136 5.15094C9.28009 5.18445 8.7793 5.3009 8.34094 5.47119C7.88116 5.64423 7.4646 5.91541 7.12054 6.26605C6.7699 6.61011 6.49854 7.02667 6.3255 7.48645C6.15521 7.9248 6.03876 8.4256 6.00543 9.15912C5.97174 9.89392 5.96387 10.1287 5.96387 12C5.96387 13.8713 5.97174 14.1061 6.00562 14.8411C6.03894 15.5744 6.15558 16.0754 6.32587 16.5135C6.4989 16.9733 6.77008 17.3899 7.12054 17.7339C7.46478 18.0846 7.88116 18.3558 8.34113 18.5288C8.7793 18.6991 9.28027 18.8156 10.0136 18.8491C10.7486 18.8826 10.9832 18.8906 12.8547 18.8906C14.726 18.8906 14.9608 18.8826 15.6956 18.8491C16.4289 18.8156 16.9299 18.6991 17.368 18.5288C18.2936 18.1708 19.0253 17.4391 19.3833 16.5135ZM18.2261 7.93634C18.1157 7.63715 17.9395 7.36633 17.7106 7.14404C17.4883 6.91516 17.2177 6.73901 16.9183 6.6286C16.6755 6.5343 16.3108 6.42206 15.639 6.39148C14.9122 6.35834 14.6943 6.3512 12.8545 6.3512C11.0145 6.3512 10.7966 6.35815 10.07 6.3913C9.39819 6.42206 9.03326 6.5343 8.79065 6.6286C8.49127 6.73901 8.22046 6.91516 7.99835 7.14404C7.76947 7.36633 7.59332 7.63696 7.48273 7.93634C7.38843 8.17914 7.27618 8.54407 7.24561 9.21588C7.21246 9.94244 7.20532 10.1603 7.20532 12.0004C7.20532 13.8402 7.21246 14.0581 7.24561 14.7849C7.27618 15.4567 7.38843 15.8214 7.48273 16.0642C7.59332 16.3636 7.76929 16.6342 7.99817 16.8565C8.22046 17.0854 8.49109 17.2615 8.79047 17.372C9.03326 17.4664 9.39819 17.5787 10.07 17.6093C10.7966 17.6424 11.0143 17.6494 12.8543 17.6494C14.6945 17.6494 14.9124 17.6424 15.6388 17.6093C16.3106 17.5787 16.6755 17.4664 16.9183 17.372C17.5193 17.1401 17.9943 16.6652 18.2261 16.0642C18.3204 15.8214 18.4326 15.4567 18.4634 14.7849C18.4965 14.0581 18.5035 13.8402 18.5035 12.0004C18.5035 10.1603 18.4965 9.94244 18.4634 9.21588C18.4328 8.54407 18.3206 8.17914 18.2261 7.93634ZM12.8545 15.5385C10.9002 15.5385 9.31598 13.9545 9.31598 12.0002C9.31598 10.0459 10.9002 8.46185 12.8545 8.46185C14.8086 8.46185 16.3928 10.0459 16.3928 12.0002C16.3928 13.9545 14.8086 15.5385 12.8545 15.5385ZM16.5327 9.14886C16.0761 9.14886 15.7058 8.77863 15.7058 8.32196C15.7058 7.8653 16.0761 7.49506 16.5327 7.49506C16.9894 7.49506 17.3596 7.8653 17.3596 8.32196C17.3594 8.77863 16.9894 9.14886 16.5327 9.14886ZM15.1514 12C15.1514 13.2686 14.123 14.2969 12.8545 14.2969C11.5859 14.2969 10.5576 13.2686 10.5576 12C10.5576 10.7314 11.5859 9.70312 12.8545 9.70312C14.123 9.70312 15.1514 10.7314 15.1514 12Z" fill="#91766F"/>
</g>
<defs>
<clipPath id="clip0">
<rect width="23.8545" height="24" fill="white" transform="translate(0.854492)"/>
</clipPath>
</defs>
</svg>
