<svg fill="none" xmlns="http://www.w3.org/2000/svg" viewBox="0 0 24 24"><g clip-path="url(#a)"><path d="M11.927 0C5.341 0 0 5.374 0 12s5.341 12 11.927 12c6.587 0 11.928-5.374 11.928-12S18.514 0 11.927 0Zm5.446 9.356c.005.118.008.237.008.356 0 3.64-2.754 7.837-7.79 7.837a7.715 7.715 0 0 1-4.196-1.237 5.472 5.472 0 0 0 4.053-1.141 2.743 2.743 0 0 1-2.557-1.913 2.71 2.71 0 0 0 1.237-.047 2.75 2.75 0 0 1-2.196-2.736c.369.207.79.331 1.24.345a2.756 2.756 0 0 1-1.219-2.293c0-.504.136-.977.371-1.384a7.757 7.757 0 0 0 5.643 2.878 2.77 2.77 0 0 1-.071-.628 2.747 2.747 0 0 1 2.738-2.755c.787 0 1.498.335 1.998.87a5.472 5.472 0 0 0 1.738-.668 2.763 2.763 0 0 1-1.203 1.524 5.433 5.433 0 0 0 1.572-.434 5.58 5.58 0 0 1-1.366 1.426Z" fill="#91766F"/></g><defs><clipPath id="a"><path fill="#fff" d="M0 0h23.855v24H0z"/></clipPath></defs></svg>
