<svg width="24" height="24" viewBox="0 0 24 24" fill="none" xmlns="http://www.w3.org/2000/svg">
<g clip-path="url(#clip0)">
<path d="M11.9273 0C5.34103 0 0 5.3736 0 12C0 18.6264 5.34103 24 11.9273 24C18.5135 24 23.8545 18.6264 23.8545 12C23.8545 5.3736 18.5135 0 11.9273 0ZM17.3731 9.35632C17.3784 9.47443 17.381 9.59308 17.381 9.71228C17.381 13.3519 14.6274 17.5488 9.59172 17.549H9.5919H9.59172C8.04567 17.549 6.60699 17.0931 5.39545 16.3118C5.60965 16.3372 5.82769 16.3499 6.04845 16.3499C7.33115 16.3499 8.51158 15.9097 9.44867 15.1708C8.25023 15.1485 7.23979 14.3522 6.89109 13.2578C7.05798 13.29 7.2296 13.3076 7.40559 13.3076C7.65547 13.3076 7.89752 13.2737 8.12757 13.2105C6.87489 12.9582 5.93124 11.8444 5.93124 10.5106C5.93124 10.4982 5.93124 10.487 5.93161 10.4755C6.30051 10.6818 6.72238 10.806 7.17154 10.8199C6.43646 10.3264 5.95326 9.48285 5.95326 8.52722C5.95326 8.02258 6.08885 7.5498 6.32399 7.14276C7.67403 8.80939 9.69164 9.90546 11.9669 10.0206C11.92 9.81885 11.8958 9.60864 11.8958 9.39258C11.8958 7.87207 13.1219 6.63849 14.6337 6.63849C15.4212 6.63849 16.1325 6.97339 16.632 7.50879C17.2557 7.38501 17.8414 7.15576 18.3705 6.84027C18.1657 7.48315 17.7318 8.02258 17.1666 8.36371C17.7204 8.29706 18.2482 8.14929 18.7386 7.92993C18.3723 8.48236 17.9077 8.96759 17.3731 9.35632Z" fill="#91766F"/>
</g>
<defs>
<clipPath id="clip0">
<rect width="23.8545" height="24" fill="white"/>
</clipPath>
</defs>
</svg>
