<svg fill="none" xmlns="http://www.w3.org/2000/svg" viewBox="0 0 25 24"><g clip-path="url(#a)"><path d="M24.418 12c0-6.628-5.34-12-11.927-12C5.903 0 .564 5.372.564 12S5.903 24 12.49 24c.07 0 .14 0 .21-.005v-9.337h-2.563v-3.005h2.563V9.441c0-2.564 1.556-3.961 3.83-3.961 1.09 0 2.026.08 2.296.117v2.681h-1.565c-1.235 0-1.477.59-1.477 1.458v1.912h2.959l-.387 3.005h-2.572v8.883c4.985-1.44 8.633-6.056 8.633-11.536Z" fill="#91766F"/></g><defs><clipPath id="a"><path fill="#fff" transform="translate(.564)" d="M0 0h23.855v24H0z"/></clipPath></defs></svg>
