<svg width="25" height="24" viewBox="0 0 25 24" fill="none" xmlns="http://www.w3.org/2000/svg">
<g clip-path="url(#clip0)">
<path d="M24.4183 12C24.4183 5.37188 19.0789 0 12.491 0C5.90304 0 0.563721 5.37188 0.563721 12C0.563721 18.6281 5.90304 24 12.491 24C12.5609 24 12.6308 24 12.7007 23.9953V14.6578H10.1382V11.6531H12.7007V9.44062C12.7007 6.87656 14.2568 5.47969 16.5304 5.47969C17.6207 5.47969 18.5571 5.55938 18.8274 5.59688V8.27813H17.2619C16.0272 8.27813 15.785 8.86875 15.785 9.73594V11.6484H18.7435L18.3568 14.6531H15.785V23.5359C20.7702 22.0969 24.4183 17.4797 24.4183 12Z" fill="#91766F"/>
</g>
<defs>
<clipPath id="clip0">
<rect width="23.8545" height="24" fill="white" transform="translate(0.563721)"/>
</clipPath>
</defs>
</svg>
