<svg fill="none" xmlns="http://www.w3.org/2000/svg" viewBox="0 0 25 24"><g clip-path="url(#a)"><path d="M12.636 0C6.05 0 .71 5.374.71 12S6.05 24 12.636 24c6.587 0 11.928-5.374 11.928-12S19.223 0 12.636 0ZM9.17 18.14H6.266V9.349H9.17v8.793ZM7.718 8.148h-.019c-.975 0-1.605-.675-1.605-1.518 0-.863.65-1.52 1.643-1.52.994 0 1.605.657 1.624 1.52 0 .843-.63 1.518-1.643 1.518Zm11.927 9.994H16.74v-4.704c0-1.182-.42-1.989-1.471-1.989-.803 0-1.28.544-1.49 1.07-.078.187-.096.45-.096.712v4.91h-2.905s.038-7.967 0-8.792h2.905v1.245c.386-.6 1.076-1.451 2.617-1.451 1.912 0 3.345 1.256 3.345 3.957v5.042Z" fill="#91766F"/></g><defs><clipPath id="a"><path fill="#fff" transform="translate(.709)" d="M0 0h23.855v24H0z"/></clipPath></defs></svg>
