<svg width="46" height="46" fill="none" xmlns="http://www.w3.org/2000/svg"><g clip-path="url(#clip0)"><path d="M36.927 21.817h-.041V5.678c0-2.931-2.387-5.359-5.318-5.359H14.432c-2.931 0-5.318 2.438-5.318 5.36v16.137h-.04c-2.336 0-4.28 1.873-4.28 4.218v2.417a4.232 4.232 0 002.057 3.6v7.817c-.01 3.003 2.428 5.441 5.431 5.451h.02a5.448 5.448 0 005.452-5.451v-7.149h10.492v7.149a5.448 5.448 0 005.451 5.451 5.448 5.448 0 005.452-5.451v-7.817a4.268 4.268 0 002.057-3.6v-2.417c0-2.345-1.944-4.217-4.28-4.217zM11.17 5.678c0-1.8 1.461-3.301 3.261-3.301h17.136c1.8 0 3.26 1.512 3.26 3.301v16.139H11.172V5.677zm4.526 34.19a3.398 3.398 0 01-5.801 2.396 3.343 3.343 0 01-.987-2.396v-7.18c.051.021.113.031.164.031h6.624v7.149zm18.01 3.394c-.905 0-1.769-.36-2.406-.998a3.396 3.396 0 01-.998-2.396v-7.149h6.624c.062 0 .113-.01.164-.03v7.179a3.389 3.389 0 01-3.384 3.394zm4.043-12.785l-.01.01a2.203 2.203 0 01-.813.165H9.073a2.239 2.239 0 01-2.222-2.212v-2.406c0-1.204 1.019-2.16 2.222-2.16h27.844c1.203 0 2.221.956 2.221 2.16v2.417h.01a2.21 2.21 0 01-1.398 2.026z" fill="#DBD5CC"/></g><defs><clipPath id="clip0"><path fill="#fff" transform="translate(.5 .32)" d="M0 0h45v45H0z"/></clipPath></defs></svg>
