<svg width="17" height="16" viewBox="0 0 17 16" fill="none" xmlns="http://www.w3.org/2000/svg">
<mask id="path-1-inside-1" fill="white">
<path d="M15.2632 5.242C15.9139 4.78 16.4612 4.20333 16.9072 3.53933V3.53867C16.3119 3.79933 15.6786 3.97267 15.0172 4.05667C15.6972 3.65067 16.2166 3.01267 16.4606 2.244C15.8266 2.622 15.1266 2.88867 14.3806 3.038C13.7786 2.39667 12.9206 2 11.9846 2C10.1686 2 8.70656 3.474 8.70656 5.28067C8.70656 5.54067 8.72856 5.79067 8.78256 6.02867C6.05589 5.89533 3.64256 4.58867 2.02123 2.59733C1.73856 3.08867 1.57189 3.65067 1.57189 4.25533C1.57189 5.39133 2.15656 6.398 3.02923 6.98133C2.50189 6.97133 1.98523 6.818 1.54723 6.57733V6.61333C1.54723 8.20733 2.68389 9.53133 4.17523 9.83667C3.90789 9.91 3.61723 9.94467 3.31523 9.94467C3.10523 9.94467 2.89323 9.93267 2.69456 9.88867C3.11923 11.1873 4.32589 12.1427 5.75923 12.174C4.64323 13.0467 3.22589 13.5727 1.69189 13.5727C1.42323 13.5727 1.16523 13.5607 0.907227 13.528C2.36056 14.4647 4.08189 15 5.93923 15C11.7279 15 15.5006 10.1707 15.2632 5.242Z"/>
</mask>
<path d="M16.9072 3.53933L40.5196 19.3994L45.3517 12.2055V3.53933H16.9072ZM16.9072 3.53867H45.3517V-39.9673L5.4985 -22.5176L16.9072 3.53867ZM15.0172 4.05667L0.435531 -20.3659L18.6013 32.2744L15.0172 4.05667ZM16.4606 2.244L43.5719 10.85L66.2364 -60.5494L1.89407 -22.1876L16.4606 2.244ZM14.3806 3.038L-6.35862 22.5052L4.46152 34.0323L19.9638 30.9291L14.3806 3.038ZM8.78256 6.02867L7.39329 34.4392L44.8112 36.2689L36.522 -0.265147L8.78256 6.02867ZM2.02123 2.59733L24.0791 -15.362L-2.02058 -47.4178L-22.6342 -11.5871L2.02123 2.59733ZM3.02923 6.98133L2.48992 35.4207L99.5112 37.2605L18.8365 -16.6664L3.02923 6.98133ZM1.54723 6.57733L15.2449 -18.3517L-26.8972 -41.5075V6.57733H1.54723ZM4.17523 9.83667L11.7 37.2678L9.88055 -18.0297L4.17523 9.83667ZM2.69456 9.88867L8.84529 -17.8828L-39.8393 -28.6653L-24.3411 18.7294L2.69456 9.88867ZM5.75923 12.174L23.2808 34.5812L86.0752 -14.5215L6.38089 -16.2637L5.75923 12.174ZM0.907227 13.528L4.48019 -14.6912L-14.502 37.437L0.907227 13.528ZM31.731 28.4347C35.3938 25.8339 38.3018 22.7013 40.5196 19.3994L-6.70513 -12.3208C-5.37934 -14.2946 -3.56603 -16.2739 -1.20452 -17.9507L31.731 28.4347ZM45.3517 3.53933V3.53867H-11.5372V3.53933H45.3517ZM5.4985 -22.5176C7.46806 -23.3799 9.47702 -23.9126 11.4331 -24.1611L18.6013 32.2744C21.8801 31.8579 25.1557 30.9786 28.316 29.5949L5.4985 -22.5176ZM29.5989 28.4792C36.0616 24.6206 41.1597 18.4489 43.5719 10.85L-10.6507 -6.36202C-8.72662 -12.4235 -4.66714 -17.3193 0.435531 -20.3659L29.5989 28.4792ZM1.89407 -22.1876C4.13813 -23.5256 6.49262 -24.3918 8.79735 -24.8531L19.9638 30.9291C23.7605 30.1691 27.515 28.7696 31.027 26.6756L1.89407 -22.1876ZM35.1197 -16.4292C29.3332 -22.5938 21.0532 -26.4444 11.9846 -26.4444V30.4444C4.7879 30.4444 -1.77613 27.3871 -6.35862 22.5052L35.1197 -16.4292ZM11.9846 -26.4444C-5.62367 -26.4444 -19.7379 -12.1525 -19.7379 5.28067H37.151C37.151 19.1005 25.9608 30.4444 11.9846 30.4444V-26.4444ZM-19.7379 5.28067C-19.7379 7.10459 -19.5878 9.54146 -18.9568 12.3225L36.522 -0.265147C37.0449 2.03987 37.151 3.97674 37.151 5.28067H-19.7379ZM10.1718 -22.3818C15.856 -22.1039 20.8313 -19.351 24.0791 -15.362L-20.0366 20.5567C-13.5462 28.5283 -3.74421 33.8945 7.39329 34.4392L10.1718 -22.3818ZM-22.6342 -11.5871C-25.2073 -7.11443 -26.8726 -1.69902 -26.8726 4.25533H30.0163C30.0163 9.00035 28.6844 13.2918 26.6766 16.7817L-22.6342 -11.5871ZM-26.8726 4.25533C-26.8726 15.3071 -21.1934 25.0039 -12.7781 30.6291L18.8365 -16.6664C25.5065 -12.2079 30.0163 -4.52446 30.0163 4.25533H-26.8726ZM3.56853 -21.458C8.07608 -21.3725 12.0395 -20.113 15.2449 -18.3517L-12.1505 31.5064C-8.06909 33.749 -3.07229 35.3152 2.48992 35.4207L3.56853 -21.458ZM-26.8972 6.57733V6.61333H29.9917V6.57733H-26.8972ZM-26.8972 6.61333C-26.8972 22.0631 -15.9157 34.7578 -1.5301 37.7031L9.88055 -18.0297C21.2835 -15.6951 29.9917 -5.64846 29.9917 6.61333H-26.8972ZM-3.34951 -17.5944C-0.792493 -18.2959 1.49277 -18.4998 3.31523 -18.4998V38.3891C5.74168 38.3891 8.60828 38.1159 11.7 37.2678L-3.34951 -17.5944ZM3.31523 -18.4998C3.99317 -18.4998 6.12891 -18.4844 8.84529 -17.8828L-3.45617 37.6601C-0.342454 38.3498 2.21728 38.3891 3.31523 38.3891V-18.4998ZM-24.3411 18.7294C-20.32 31.0264 -8.86273 40.3056 5.13757 40.6117L6.38089 -16.2637C17.5145 -16.0203 26.5584 -8.65177 29.7302 1.04794L-24.3411 18.7294ZM-11.7623 -10.2332C-8.05617 -13.1312 -3.3504 -14.8718 1.69189 -14.8718V42.0171C9.80218 42.0171 17.3426 39.2246 23.2808 34.5812L-11.7623 -10.2332ZM1.69189 -14.8718C2.26527 -14.8718 3.24845 -14.8471 4.48019 -14.6912L-2.66574 41.7472C-0.917994 41.9684 0.581182 42.0171 1.69189 42.0171V-14.8718ZM-14.502 37.437C-8.54385 41.277 -1.48871 43.4444 5.93923 43.4444V-13.4444C9.6525 -13.4444 13.265 -12.3477 16.3165 -10.381L-14.502 37.437ZM5.93923 43.4444C29.5858 43.4444 44.6138 23.3747 43.6748 3.87388L-13.1483 6.61012C-13.6127 -3.03336 -6.13001 -13.4444 5.93923 -13.4444V43.4444Z" fill="#BDA28F" mask="url(#path-1-inside-1)"/>
</svg>
