<svg width="16" height="16" viewBox="0 0 16 16" fill="none" xmlns="http://www.w3.org/2000/svg">
<path d="M2.31909 0.800003C1.21916 0.800003 0.5 1.52226 0.5 2.47157C0.5 3.39992 1.19773 4.14278 2.27688 4.14278H2.29775C3.4192 4.14278 4.11712 3.39992 4.11712 2.47157C4.09615 1.52226 3.4192 0.800003 2.31909 0.800003Z" fill="#BDA28F"/>
<path d="M0.689941 5.46358H3.9055V15.1376H0.689941V5.46358Z" fill="#BDA28F"/>
<path d="M11.7981 5.23653C10.0634 5.23653 8.90022 6.86654 8.90022 6.86654V5.46358H5.68457V15.1376H8.90004V9.73526C8.90004 9.44604 8.92101 9.15728 9.00597 8.95047C9.23842 8.37295 9.76742 7.77465 10.6558 7.77465C11.8193 7.77465 12.2847 8.6618 12.2847 9.96231V15.1376H15.5V9.5907C15.5 6.61925 13.9135 5.23653 11.7981 5.23653Z" fill="#BDA28F"/>
</svg>
