<svg fill="none" xmlns="http://www.w3.org/2000/svg" viewBox="0 0 48 48"><path fill-rule="evenodd" clip-rule="evenodd" d="M28.554 7.63c.444.212.725.654.725 1.14v30.46c0 .486-.282.928-.725 1.14-.444.214-.973.16-1.362-.137l-11.29-8.618H8.587a2.612 2.612 0 01-1.83-.743A2.515 2.515 0 016 29.077V18.923c0-.673.273-1.319.758-1.795a2.612 2.612 0 011.829-.743h7.315l11.29-8.618c.39-.297.918-.35 1.362-.138zM15.053 18.922H8.587v10.154h6.466V18.923zm2.586 10.802l9.053 6.91v-25.27l-9.053 6.91v11.45zm20.244-14.7a1.31 1.31 0 011.83 0 12.68 12.68 0 012.803 4.118 12.488 12.488 0 010 9.714 12.68 12.68 0 01-2.804 4.118 1.31 1.31 0 01-1.829 0 1.252 1.252 0 010-1.795 10.144 10.144 0 002.243-3.294 9.99 9.99 0 000-7.772 10.142 10.142 0 00-2.243-3.294 1.253 1.253 0 010-1.795zm-4.572 4.488a1.31 1.31 0 011.829 0c.6.589 1.077 1.288 1.401 2.058a6.244 6.244 0 010 4.858 6.338 6.338 0 01-1.401 2.058 1.31 1.31 0 01-1.83 0 1.253 1.253 0 010-1.795c.361-.353.647-.773.842-1.235a3.746 3.746 0 000-2.914 3.803 3.803 0 00-.841-1.235 1.253 1.253 0 010-1.795z" fill="#BDA28F"/></svg>
