<svg width="32" height="32" viewBox="0 0 32 32" fill="none" xmlns="http://www.w3.org/2000/svg">
<path d="M26.3736 11.5833C26.7878 11.5833 27.1236 11.9191 27.1236 12.3333C27.1236 12.7475 26.7878 13.0833 26.3736 13.0833V11.5833ZM5.62658 13.0833C5.21237 13.0833 4.87658 12.7475 4.87658 12.3333C4.87658 11.9191 5.21237 11.5833 5.62658 11.5833V13.0833ZM26.3731 18.9167C26.7874 18.9167 27.1231 19.2525 27.1231 19.6667C27.1231 20.0809 26.7874 20.4167 26.3731 20.4167V18.9167ZM5.62623 20.4167C5.21202 20.4167 4.87623 20.0809 4.87623 19.6667C4.87623 19.2525 5.21202 18.9167 5.62623 18.9167V20.4167ZM5.75 16C5.75 21.6609 10.3391 26.25 16 26.25V27.75C9.51065 27.75 4.25 22.4893 4.25 16H5.75ZM16 26.25C21.6609 26.25 26.25 21.6609 26.25 16H27.75C27.75 22.4893 22.4893 27.75 16 27.75V26.25ZM26.25 16C26.25 10.3391 21.6609 5.75 16 5.75V4.25C22.4893 4.25 27.75 9.51065 27.75 16H26.25ZM16 5.75C10.3391 5.75 5.75 10.3391 5.75 16H4.25C4.25 9.51065 9.51065 4.25 16 4.25V5.75ZM26.3736 13.0833H5.62658V11.5833H26.3736V13.0833ZM26.3731 20.4167H5.62623V18.9167H26.3731V20.4167ZM12.1667 16C12.1667 18.8795 12.6678 21.4508 13.4486 23.2742C13.8395 24.1872 14.2857 24.8782 14.743 25.3299C15.1971 25.7785 15.6211 25.9547 16 25.9547V27.4547C15.1133 27.4547 14.3315 27.0318 13.6889 26.397C13.0495 25.7654 12.5081 24.8887 12.0696 23.8646C11.1915 21.8137 10.6667 19.0326 10.6667 16H12.1667ZM16 25.9547C16.3789 25.9547 16.8029 25.7785 17.257 25.3299C17.7143 24.8782 18.1605 24.1872 18.5514 23.2742C19.3322 21.4508 19.8333 18.8795 19.8333 16H21.3333C21.3333 19.0326 20.8085 21.8137 19.9304 23.8646C19.4919 24.8887 18.9505 25.7654 18.3111 26.397C17.6685 27.0318 16.8867 27.4547 16 27.4547V25.9547ZM19.8333 16C19.8333 13.1205 19.3322 10.5492 18.5514 8.72583C18.1605 7.81278 17.7143 7.12184 17.257 6.67008C16.8029 6.22149 16.3789 6.04529 16 6.04529V4.54529C16.8867 4.54529 17.6685 4.96819 18.3111 5.60297C18.9505 6.23458 19.4919 7.11131 19.9304 8.13543C20.8085 10.1864 21.3333 12.9674 21.3333 16H19.8333ZM16 6.04529C15.6211 6.04529 15.1971 6.22149 14.743 6.67008C14.2857 7.12184 13.8395 7.81278 13.4486 8.72583C12.6678 10.5492 12.1667 13.1205 12.1667 16H10.6667C10.6667 12.9674 11.1915 10.1864 12.0696 8.13543C12.5081 7.11131 13.0495 6.23458 13.6889 5.60297C14.3315 4.96819 15.1133 4.54529 16 4.54529V6.04529Z" fill="#BDA28F"/>
</svg>
