<svg xmlns="http://www.w3.org/2000/svg" width="42" height="41" fill="none" viewBox="0 0 42 41">
  <path fill="#FFC84D" d="M20.608 40.982c11.381 0 20.608-9.174 20.608-20.491S31.989 0 20.608 0C9.226 0 0 9.174 0 20.49c0 11.318 9.226 20.492 20.608 20.492Z"/>
  <path fill="#FF6D00" d="M29.213 31.463c1.809.329 3.241-1.426 2.616-3.146a11.927 11.927 0 0 0-11.22-7.833 11.927 11.927 0 0 0-11.222 7.833c-.625 1.72.808 3.475 2.617 3.146 2.628-.479 5.539-.745 8.604-.745 3.066 0 5.977.266 8.605.745Z"/>
  <path fill="#fff" d="M13.168 23.087a48.99 48.99 0 0 1 7.438-.566c2.625 0 5.12.21 7.438.566a11.902 11.902 0 0 0-7.438-2.603c-2.817 0-5.398.98-7.438 2.603Z"/>
  <path fill="#000" d="M10.35 14.467c-.355-.058-.703.213-.584.457.665 1.352 2.6 2.117 4.69 1.75 2.09-.366 3.646-1.743 3.806-3.24.028-.27-.392-.405-.705-.231-.684.38-1.87.917-3.503 1.203-1.632.287-2.931.186-3.705.06Zm20.513 0c.355-.058.703.213.583.457-.665 1.352-2.6 2.117-4.69 1.75-2.09-.366-3.646-1.743-3.805-3.24-.03-.27.391-.405.704-.231.685.38 1.87.917 3.503 1.203 1.632.287 2.931.186 3.705.06Z"/>
</svg>
