<svg xmlns="http://www.w3.org/2000/svg" width="48" height="47" fill="none" viewBox="0 0 48 47">
  <g clip-path="url(#a)">
    <path fill="#FFC84D" d="M23.67 43.904c11.317 0 20.491-9.175 20.491-20.491 0-11.317-9.174-20.491-20.49-20.491-11.317 0-20.491 9.174-20.491 20.49 0 11.317 9.174 20.492 20.49 20.492Z"/>
    <path fill="#000" d="M18.31 22.38a2.475 2.475 0 1 0 0-4.95 2.475 2.475 0 0 0 0 4.95Zm10.72 0a2.475 2.475 0 1 0 0-4.95 2.475 2.475 0 0 0 0 4.95Z"/>
    <path fill="#F80" d="M23.72 30.413c-2.895.253-4.996.96-6.241 1.502-.567.248-1.084-.437-.687-.912 1.166-1.396 3.759-2.737 6.718-2.996 2.959-.26 5.745.611 7.135 1.784.474.399.085 1.163-.517 1.018-1.32-.319-3.512-.65-6.408-.396Z"/>
  </g>
  <defs>
    <clipPath id="a">
      <path fill="#fff" d="M0 0h46.836v46.836H0z" transform="translate(.25)"/>
    </clipPath>
  </defs>
</svg>
