<svg xmlns="http://www.w3.org/2000/svg" width="44" height="41" fill="none" viewBox="0 0 44 41">
  <g class="Group">
    <path fill="#FFC84D" d="M21.42 40.982c11.382 0 20.608-9.174 20.608-20.491S32.802 0 21.42 0C10.04 0 .812 9.174.812 20.49c0 11.318 9.227 20.492 20.608 20.492Z" class="Vector"/>
    <path fill="#000" d="M12.391 18.645c-.277.167-.632-.053-.595-.373.203-1.78 1.6-3.225 3.413-3.383 1.813-.158 3.441 1.024 3.953 2.742.092.309-.22.587-.521.47a7.143 7.143 0 0 0-3.187-.43 7.133 7.133 0 0 0-3.063.974Z" class="left-eye"/>
    <path fill="#000" d="M30.447 18.645c.277.167.632-.053.596-.373-.204-1.78-1.601-3.225-3.414-3.383-1.813-.158-3.441 1.024-3.952 2.742-.092.309.219.587.52.47a7.144 7.144 0 0 1 3.187-.43 7.134 7.134 0 0 1 3.063.974Z" class="right-eye"/>
    <path fill="#F5172B" d="M36.026 38.85a.825.825 0 0 1-.908 0c-.875-.575-2.782-1.949-3.603-3.486-1.083-2.028.189-4.051 1.87-4.051a2.23 2.23 0 0 1 1.853.925c.168.226.5.226.668 0a2.23 2.23 0 0 1 1.854-.925c1.68 0 2.953 2.023 1.87 4.05-.822 1.538-2.73 2.912-3.604 3.487Z" class="heart-bottom-right"/>
    <path fill="#F5172B" d="M37.422 13.706a1.223 1.223 0 0 1-1.344 0c-1.297-.852-4.122-2.888-5.339-5.165-1.604-3.005.28-6.002 2.77-6.002 1.42 0 2.274.738 2.746 1.372.25.334.741.334.99 0 .472-.634 1.326-1.372 2.746-1.372 2.49 0 4.375 2.997 2.77 6.002-1.216 2.277-4.042 4.313-5.339 5.165Z" class="heart-top-right"/>
    <path fill="#F5172B" d="M5.458 33.406a.917.917 0 0 1-1.008 0c-.972-.639-3.092-2.165-4.004-3.873-1.203-2.254.21-4.502 2.077-4.502 1.065 0 1.706.553 2.06 1.029a.46.46 0 0 0 .742 0 2.477 2.477 0 0 1 2.06-1.029c1.867 0 3.28 2.248 2.077 4.502-.912 1.708-3.031 3.234-4.004 3.873Z" class="heart-left"/>
    <path fill="#F80" d="M21.418 25.753c-3.509 0-6.108-.624-7.662-1.143-.708-.236-1.257.637-.73 1.163 1.549 1.547 4.807 2.879 8.392 2.879 3.584 0 6.843-1.332 8.39-2.879.528-.526-.02-1.4-.729-1.163-1.553.519-4.153 1.143-7.661 1.143Z" class="mouth"/>
  </g>
</svg>
