<svg xmlns="http://www.w3.org/2000/svg" width="41" height="41" fill="none" viewBox="0 0 41 41">
  <path fill="#FFC84D" d="M20.49 40.982c11.318 0 20.492-9.174 20.492-20.491S31.808 0 20.49 0 0 9.174 0 20.49c0 11.318 9.174 20.492 20.49 20.492Z"/>
  <path fill="#000" d="M15.131 19.458a2.475 2.475 0 1 0 0-4.95 2.475 2.475 0 0 0 0 4.95Zm10.719 0a2.475 2.475 0 1 0 0-4.95 2.475 2.475 0 0 0 0 4.95Z"/>
  <path fill="#F80" d="M20.54 27.491c-2.895.253-4.996.96-6.24 1.503-.568.247-1.084-.438-.687-.913 1.165-1.396 3.758-2.737 6.717-2.996 2.959-.259 5.745.612 7.136 1.784.473.399.084 1.163-.518 1.018-1.32-.318-3.512-.65-6.407-.396Z"/>
</svg>
