<svg xmlns="http://www.w3.org/2000/svg" width="47" height="47" fill="none" viewBox="0 0 47 47">
  <g clip-path="url(#a)">
    <path fill="#FFCD00" d="M23.42 43.915c11.318 0 20.493-9.175 20.493-20.493 0-11.318-9.175-20.492-20.493-20.492-11.318 0-20.492 9.175-20.492 20.492 0 11.318 9.174 20.493 20.492 20.493Z"/>
    <path fill="#000" d="M18.06 21.966a2.475 2.475 0 1 0 0-4.95 2.475 2.475 0 0 0 0 4.95Zm10.722 0a2.475 2.475 0 1 0 0-4.95 2.475 2.475 0 0 0 0 4.95Z"/>
    <path fill="#F80" d="M23.42 28.711c-3.5 0-6.092-.629-7.635-1.149-.684-.23-1.248.617-.744 1.133 1.525 1.562 4.788 2.915 8.38 2.915 3.591 0 6.854-1.353 8.379-2.915.504-.516-.06-1.363-.744-1.133-1.543.52-4.134 1.15-7.636 1.15Z"/>
  </g>
  <defs>
    <clipPath id="a">
      <path fill="#fff" d="M0 0h46.84v46.84H0z"/>
    </clipPath>
  </defs>
</svg>
