<svg width="40" height="40" viewBox="0 0 40 40" fill="none" xmlns="http://www.w3.org/2000/svg">
<path d="M31.9556 24.7832C32.7247 24.7832 33.4623 24.4777 34.0062 23.9338C34.55 23.39 34.8556 22.6523 34.8556 21.8832C34.8556 21.1141 34.55 20.3764 34.0062 19.8326C33.4623 19.2887 32.7247 18.9832 31.9556 18.9832H31.2246C31.9773 18.9252 32.6774 18.5749 33.1751 18.0072C33.6728 17.4395 33.9285 16.6995 33.8875 15.9457C33.8464 15.1918 33.5119 14.484 32.9556 13.9737C32.3992 13.4634 31.6652 13.1911 30.9106 13.2152H18.1356L20.1536 6.3552H20.1446C20.4331 5.63056 20.4365 4.82351 20.154 4.09649C19.8714 3.36947 19.324 2.77645 18.6219 2.43679C17.9197 2.09713 17.115 2.03603 16.3696 2.26581C15.6243 2.49558 14.9936 2.99916 14.6046 3.6752L6.70957 17.2002H6.71757C5.62029 19.1554 5.05392 21.3637 5.07477 23.6057C5.09563 25.8476 5.70297 28.045 6.83643 29.9794C7.96988 31.9139 9.58996 33.5179 11.5356 34.6321C13.4812 35.7462 15.6845 36.3317 17.9266 36.3302H28.9536V36.3222C29.709 36.3482 30.4445 36.077 31.0023 35.567C31.5601 35.057 31.8958 34.3486 31.9374 33.5939C31.979 32.8392 31.7232 32.0983 31.2248 31.53C30.7265 30.9618 30.0252 30.6114 29.2716 30.5542H30.4536C31.2058 30.5747 31.9364 30.3009 32.49 29.7911C33.0435 29.2813 33.3764 28.5757 33.4178 27.8243C33.4592 27.0729 33.2059 26.335 32.7118 25.7675C32.2176 25.1999 31.5215 24.8475 30.7716 24.7852L31.9556 24.7832Z" fill="#FFC84D"/>
</svg>
