<svg width="40" height="40" viewBox="0 0 40 40" fill="none" xmlns="http://www.w3.org/2000/svg">
<path d="M29.0136 8.11038C28.271 8.11038 27.5588 8.40538 27.0337 8.93048C26.5086 9.45558 26.2136 10.1678 26.2136 10.9104L25.4706 15.3164L22.2476 12.0934L16.1776 6.02138C15.9281 5.77187 15.6319 5.57395 15.3059 5.43891C14.9799 5.30388 14.6305 5.23438 14.2776 5.23438C13.9247 5.23437 13.5753 5.30388 13.2493 5.43891C12.9233 5.57395 12.6271 5.77187 12.3776 6.02138C12.1281 6.27089 11.9302 6.56711 11.7951 6.89311C11.6601 7.21911 11.5906 7.56852 11.5906 7.92138C11.5906 8.27424 11.6601 8.62365 11.7951 8.94965C11.9302 9.27566 12.1281 9.57187 12.3776 9.82138L18.4496 15.8934L18.4416 15.9014L10.6996 8.15938C10.4501 7.90987 10.1539 7.71195 9.82788 7.57691C9.50187 7.44188 9.15247 7.37238 8.7996 7.37238C8.44674 7.37238 8.09733 7.44188 7.77133 7.57691C7.44533 7.71195 7.14912 7.90987 6.8996 8.15938C6.65009 8.40889 6.45217 8.70511 6.31713 9.03111C6.1821 9.35711 6.1126 9.70652 6.1126 10.0594C6.1126 10.4122 6.1821 10.7617 6.31713 11.0877C6.45217 11.4137 6.65009 11.7099 6.8996 11.9594L14.6396 19.6994L14.6276 19.7114L8.0236 13.0994C7.77256 12.8396 7.47228 12.6324 7.1403 12.4898C6.80832 12.3473 6.45128 12.2723 6.09001 12.2692C5.72873 12.2661 5.37046 12.335 5.0361 12.4719C4.70174 12.6088 4.39798 12.8108 4.14255 13.0663C3.88712 13.3218 3.68512 13.6256 3.54835 13.96C3.41158 14.2944 3.34277 14.6527 3.34594 15.014C3.34911 15.3753 3.4242 15.7323 3.56681 16.0642C3.70943 16.3962 3.91673 16.6964 4.1766 16.9474L6.1966 18.9674C5.7384 18.6624 5.18927 18.5241 4.64126 18.5758C4.09326 18.6275 3.57968 18.866 3.1866 19.2514C2.73921 19.7102 2.49231 20.3278 2.50018 20.9686C2.50806 21.6093 2.77007 22.2207 3.2286 22.6684L11.9486 31.3874C13.5759 33.0147 15.6491 34.1229 17.9062 34.5719C20.1633 35.021 22.5029 34.7906 24.6291 33.91C26.7553 33.0294 28.5726 31.5381 29.8512 29.6247C31.1299 27.7113 31.8124 25.4617 31.8126 23.1604V10.9094C31.8123 10.1671 31.5174 9.45534 30.9925 8.93048C30.4676 8.40562 29.7559 8.11065 29.0136 8.11038Z" fill="#FFA01D"/>
<path d="M32.8773 9.05877C32.5328 9.05864 32.1916 9.12639 31.8732 9.25815C31.5549 9.38991 31.2656 9.58309 31.0219 9.82667C30.7782 10.0703 30.5849 10.3595 30.4531 10.6778C30.3212 10.9961 30.2533 11.3372 30.2533 11.6818L29.5713 15.7298L25.9353 12.0948L19.8483 6.00677C19.6382 5.77889 19.3843 5.59582 19.1017 5.46854C18.8192 5.34126 18.5138 5.2724 18.2039 5.2661C17.8941 5.2598 17.5862 5.31618 17.2986 5.43186C17.0111 5.54754 16.75 5.72014 16.5308 5.93928C16.3117 6.15842 16.1391 6.41959 16.0234 6.70711C15.9077 6.99463 15.8513 7.30255 15.8576 7.61241C15.8639 7.92226 15.9328 8.22764 16.0601 8.51021C16.1874 8.79278 16.3704 9.04672 16.5983 9.25677L22.6873 15.3458L22.0923 15.9458L14.3273 8.17677C14.115 7.95242 13.8599 7.7729 13.5771 7.64882C13.2943 7.52474 12.9894 7.45861 12.6806 7.45434C12.3718 7.45008 12.0652 7.50776 11.779 7.62398C11.4929 7.7402 11.2329 7.9126 11.0145 8.131C10.7961 8.34939 10.6237 8.60935 10.5075 8.89551C10.3913 9.18167 10.3336 9.48822 10.3379 9.79705C10.3421 10.1059 10.4083 10.4107 10.5324 10.6936C10.6564 10.9764 10.836 11.2315 11.0603 11.4438L18.8233 19.2018L18.2313 19.7938L11.5843 13.1518C11.3705 12.938 11.1167 12.7684 10.8374 12.6527C10.558 12.537 10.2586 12.4774 9.9563 12.4774C9.65395 12.4774 9.35457 12.537 9.07523 12.6527C8.7959 12.7684 8.54209 12.938 8.3283 13.1518C8.11451 13.3656 7.94492 13.6194 7.82922 13.8987C7.71351 14.178 7.65396 14.4774 7.65396 14.7798C7.65396 15.0821 7.71351 15.3815 7.82922 15.6608C7.94492 15.9402 8.11451 16.194 8.3283 16.4078L14.9753 23.0548L14.3623 23.6678L10.3473 19.6528C10.1369 19.4355 9.88528 19.2623 9.60724 19.1433C9.3292 19.0242 9.03025 18.9616 8.7278 18.9592C8.42535 18.9568 8.12544 19.0146 7.84554 19.1293C7.56565 19.2439 7.31136 19.4131 7.09748 19.627C6.88361 19.8408 6.71443 20.0951 6.59979 20.375C6.48516 20.6549 6.42736 20.9548 6.42976 21.2573C6.43216 21.5597 6.49472 21.8587 6.61379 22.1367C6.73286 22.4148 6.90606 22.6663 7.1233 22.8768L11.1393 26.8918L12.6513 28.4018L15.4513 31.2018L15.6343 31.3838C17.2611 33.0114 19.334 34.1201 21.5909 34.5697C23.8477 35.0193 26.1873 34.7897 28.3136 33.9097C30.44 33.0298 32.2577 31.5391 33.5369 29.6262C34.8161 27.7133 35.4994 25.464 35.5003 23.1628V11.6818C35.5003 10.9861 35.2239 10.3189 34.732 9.82703C34.2401 9.33512 33.573 9.05877 32.8773 9.05877Z" fill="#FFC84D"/>
<path d="M25.879 5.95722C26.7096 5.95722 27.383 5.28385 27.383 4.45322C27.383 3.62258 26.7096 2.94922 25.879 2.94922C25.0484 2.94922 24.375 3.62258 24.375 4.45322C24.375 5.28385 25.0484 5.95722 25.879 5.95722Z" fill="#EDCCF8"/>
<path d="M10.7892 36.2619C11.6198 36.2619 12.2932 35.5885 12.2932 34.7579C12.2932 33.9273 11.6198 33.2539 10.7892 33.2539C9.95852 33.2539 9.28516 33.9273 9.28516 34.7579C9.28516 35.5885 9.95852 36.2619 10.7892 36.2619Z" fill="#F66570"/>
<path d="M33.6226 1.55666L31.4932 2.63074C31.0504 2.8541 30.8725 3.39413 31.0958 3.83694L32.1699 5.96639C32.3932 6.40921 32.9333 6.58711 33.3761 6.36376L35.5055 5.28968C35.9484 5.06633 36.1263 4.5263 35.9029 4.08349L34.8288 1.95403C34.6055 1.51122 34.0655 1.33331 33.6226 1.55666Z" fill="#B44BD7"/>
<path d="M6.57223 32.1073L5.96939 30.2109C5.84391 29.8161 5.42218 29.5978 5.02743 29.7233L3.13094 30.3261C2.73619 30.4516 2.5179 30.8733 2.64338 31.2681L3.24622 33.1646C3.3717 33.5593 3.79343 33.7776 4.18818 33.6521L6.08467 33.0493C6.47942 32.9238 6.69771 32.5021 6.57223 32.1073Z" fill="#6376FF"/>
<path d="M37.586 9.97675C38.4167 9.97675 39.09 9.30339 39.09 8.47275C39.09 7.64211 38.4167 6.96875 37.586 6.96875C36.7554 6.96875 36.082 7.64211 36.082 8.47275C36.082 9.30339 36.7554 9.97675 37.586 9.97675Z" fill="#7896FF"/>
</svg>
