<svg width="40" height="40" viewBox="0 0 40 40" fill="none" xmlns="http://www.w3.org/2000/svg">
<path d="M20 37.4155C29.665 37.4155 37.5 29.6038 37.5 19.9675C37.5 10.3313 29.665 2.51953 20 2.51953C10.335 2.51953 2.5 10.3313 2.5 19.9675C2.5 29.6038 10.335 37.4155 20 37.4155Z" fill="#FFC84D"/>
<path d="M18.4819 24.2293C19.5914 24.3139 20.6783 24.5872 21.6959 25.0373C21.7596 25.0662 21.8308 25.0739 21.8992 25.0595C21.9675 25.0451 22.0295 25.0092 22.076 24.957C22.1226 24.9049 22.1513 24.8393 22.1579 24.7697C22.1645 24.7002 22.1488 24.6303 22.1129 24.5703C21.7672 23.9365 21.27 23.3981 20.6658 23.0029C20.0615 22.6078 19.3689 22.3682 18.6497 22.3056C17.9304 22.2429 17.2068 22.3591 16.5433 22.6438C15.8799 22.9285 15.2971 23.3729 14.8469 23.9373C14.8007 23.9899 14.7726 24.056 14.7668 24.1258C14.7609 24.1957 14.7777 24.2655 14.8145 24.3251C14.8514 24.3847 14.9064 24.4308 14.9714 24.4568C15.0365 24.4828 15.1082 24.4872 15.1759 24.4693C16.2562 24.2018 17.3743 24.1206 18.4819 24.2293Z" fill="#FF8800"/>
<path d="M13.9255 10.8337C14.78 10.8924 15.6095 11.1473 16.3495 11.5787C16.6745 11.7567 16.9575 11.5177 16.8185 11.1477C16.5813 10.6099 16.1961 10.1506 15.7077 9.82341C15.2194 9.49621 14.6481 9.31459 14.0605 9.29973C13.4791 9.21286 12.885 9.29276 12.3472 9.53014C11.8095 9.76752 11.3501 10.1526 11.0225 10.6407C10.8225 10.9817 11.0585 11.2657 11.4095 11.1477C12.2129 10.851 13.0738 10.7435 13.9255 10.8337Z" fill="black"/>
<path d="M24.1711 7.75452C23.3169 7.81315 22.4877 8.06809 21.7481 8.49952C21.4221 8.67752 21.1401 8.43852 21.2781 8.06852C21.5155 7.53074 21.901 7.07155 22.3895 6.74452C22.878 6.41749 23.4494 6.23611 24.0371 6.22152C24.6185 6.13477 25.2125 6.21473 25.7503 6.4521C26.288 6.68947 26.7474 7.07451 27.0751 7.56252C27.2751 7.90352 27.0391 8.18752 26.6881 8.06852C25.8842 7.77237 25.0231 7.66494 24.1711 7.75452Z" fill="black"/>
<path d="M14.3384 17.4245C15.5694 17.4245 16.5674 16.4296 16.5674 15.2025C16.5674 13.9753 15.5694 12.9805 14.3384 12.9805C13.1073 12.9805 12.1094 13.9753 12.1094 15.2025C12.1094 16.4296 13.1073 17.4245 14.3384 17.4245Z" fill="black"/>
<path d="M23.6207 17.4279C24.8307 17.4279 25.8117 16.2697 25.8117 14.8409C25.8117 13.4121 24.8307 12.2539 23.6207 12.2539C22.4106 12.2539 21.4297 13.4121 21.4297 14.8409C21.4297 16.2697 22.4106 17.4279 23.6207 17.4279Z" fill="black"/>
<path d="M7.97656 32.4135C7.97656 30.6565 8.13656 28.5475 8.21656 27.3785C8.27756 26.4875 8.33956 24.8485 8.45256 24.1045C8.56856 23.3375 9.01156 22.6885 9.85856 22.9755C10.6686 23.2505 11.0766 24.4335 11.0766 25.4535C11.0766 26.4735 11.1516 27.1535 11.7616 27.4625C12.5905 27.74 13.4704 27.8311 14.3386 27.7295C15.5536 27.7295 19.7746 27.6445 21.9196 27.6445C22.488 27.5997 23.0551 27.7472 23.5296 28.0635C23.6373 28.1762 23.7165 28.313 23.7606 28.4625C23.8047 28.612 23.8124 28.7699 23.7831 28.9229C23.7537 29.076 23.6881 29.2199 23.5919 29.3424C23.4956 29.465 23.3713 29.5628 23.2296 29.6275C22.1846 30.0895 19.7296 29.9845 19.0726 30.2675C18.4156 30.5505 18.4726 31.0165 18.4326 31.7245C18.4953 33.0873 18.48 34.4525 18.3866 35.8135C18.3472 36.2696 18.1377 36.6942 17.7998 37.003C17.462 37.3118 17.0203 37.4822 16.5626 37.4805H12.4516C10.0006 37.4805 7.97656 35.0575 7.97656 32.4135Z" fill="#FFA01D"/>
</svg>
