<svg width="40" height="40" viewBox="0 0 40 40" fill="none" xmlns="http://www.w3.org/2000/svg">
<path d="M34.6621 15.6327C34.5804 13.4288 34.003 11.2716 32.9726 9.32159C31.9423 7.37158 30.4856 5.67895 28.7109 4.36956C26.9362 3.06017 24.8891 2.16772 22.722 1.75858C20.5548 1.34944 18.3232 1.43414 16.1933 2.00637C14.0634 2.57861 12.0898 3.62366 10.4195 5.0638C8.74914 6.50394 7.42495 8.30212 6.54539 10.3246C5.66584 12.3471 5.25355 14.5419 5.33919 16.7457C5.42484 18.9495 6.00621 21.1056 7.04007 23.0537H7.03407C7.04907 23.0827 7.06507 23.1087 7.08107 23.1367C7.12207 23.2127 7.16607 23.2877 7.20807 23.3627C7.25007 23.4377 7.29707 23.5197 7.34107 23.5937C7.41307 23.7157 7.48607 23.8357 7.56007 23.9557C7.60307 24.0237 7.64607 24.0887 7.68807 24.1557C7.74307 24.2407 7.79707 24.3267 7.85307 24.4097C9.93107 27.5037 11.6991 27.7257 12.3251 30.0877H18.6751V23.0207L15.2861 19.6317C15.023 19.3686 14.8752 19.0118 14.8752 18.6397C14.8752 18.2677 15.023 17.9108 15.2861 17.6477C15.5492 17.3846 15.906 17.2368 16.2781 17.2368C16.6501 17.2368 17.007 17.3846 17.2701 17.6477L20.0211 20.3997L22.7281 17.6927C22.8581 17.5621 23.0127 17.4585 23.183 17.3878C23.3532 17.317 23.5357 17.2806 23.7201 17.2806C23.9044 17.2806 24.0869 17.317 24.2572 17.3878C24.4274 17.4585 24.582 17.5621 24.7121 17.6927C24.8427 17.8228 24.9463 17.9774 25.017 18.1476C25.0878 18.3179 25.1242 18.5004 25.1242 18.6847C25.1242 18.8691 25.0878 19.0516 25.017 19.2218C24.9463 19.3921 24.8427 19.5467 24.7121 19.6767L21.3231 23.0647V30.0827H27.6741C28.3011 27.7127 30.0741 27.4977 32.1651 24.3767L32.1701 24.3697C32.2701 24.2197 32.3701 24.0627 32.4701 23.8997C32.5221 23.8167 32.5701 23.7317 32.6241 23.6467C32.7371 23.4567 32.8511 23.2597 32.9661 23.0467H32.9571C34.1697 20.7692 34.758 18.2112 34.6621 15.6327Z" fill="#FFC33A"/>
<path d="M21.3229 30.0842V23.0662L24.7119 19.6782C24.8425 19.5481 24.9462 19.3935 25.0169 19.2233C25.0876 19.053 25.124 18.8705 25.124 18.6862C25.124 18.5018 25.0876 18.3193 25.0169 18.1491C24.9462 17.9789 24.8425 17.8243 24.7119 17.6942C24.5818 17.5636 24.4272 17.4599 24.257 17.3892C24.0868 17.3185 23.9042 17.2821 23.7199 17.2821C23.5356 17.2821 23.353 17.3185 23.1828 17.3892C23.0126 17.4599 22.858 17.5636 22.7279 17.6942L20.0209 20.4012L17.2699 17.6492C17.0068 17.3861 16.65 17.2383 16.2779 17.2383C15.9058 17.2383 15.549 17.3861 15.2859 17.6492C15.0228 17.9123 14.875 18.2691 14.875 18.6412C14.875 19.0133 15.0228 19.3701 15.2859 19.6332L18.6749 23.0222V30.0842H21.3229Z" fill="#FF9000"/>
<path d="M12.3555 30.082C12.3625 30.24 12.3685 30.403 12.3695 30.576V33.455C12.4148 34.8131 12.988 36.0999 13.9673 37.0418C14.9466 37.9838 16.2547 38.5066 17.6135 38.499H22.3895C23.7512 38.5073 25.0628 37.9856 26.0469 37.0443C27.0309 36.103 27.6103 34.8158 27.6625 33.455V30.687C27.6625 30.473 27.6685 30.274 27.6775 30.082H12.3555Z" fill="#7D8996"/>
<path d="M27.8476 30.3086H12.1836V33.3086H27.8476V30.3086Z" fill="#4B596A"/>
</svg>
