<svg xmlns="http://www.w3.org/2000/svg" width="40" height="40" fill="none" viewBox="0 0 40 40">
  <path fill="#FFC84D" d="M20 37.5c9.665 0 17.5-7.835 17.5-17.5S29.665 2.5 20 2.5 2.5 10.335 2.5 20 10.335 37.5 20 37.5Z"/>
  <path fill="#FF6D00" d="M9 20.021a1 1 0 0 0-1.216 1.087 12.313 12.313 0 0 0 24.428 0A1.001 1.001 0 0 0 31 20.021a47.746 47.746 0 0 1-11 1.22 47.746 47.746 0 0 1-11-1.22Z"/>
  <path fill="#fff" d="M19.938 24.2a16.968 16.968 0 0 0 11-4.173A47.762 47.762 0 0 1 20 21.241 47.67 47.67 0 0 1 8.89 20a16.983 16.983 0 0 0 11.048 4.2Z"/>
  <path fill="#fff" d="M8.384 23.485a2.541 2.541 0 1 1-3.912-3.246c.9-1.08 6.129-3.407 6.129-3.407s-1.32 5.569-2.217 6.653Zm23.381-.542a2.542 2.542 0 1 0 3.615-3.574c-.986-1-6.4-2.861-6.4-2.861s1.799 5.437 2.785 6.435Z"/>
  <path fill="#000" d="M12.193 16.084a.334.334 0 0 1-.476-.362 3.19 3.19 0 0 1 6.279 0 .333.333 0 0 1-.476.362 6.2 6.2 0 0 0-5.327 0Zm15.612 0a.334.334 0 0 0 .476-.362 3.19 3.19 0 0 0-6.279 0 .335.335 0 0 0 .476.362 6.2 6.2 0 0 1 5.327 0Z"/>
</svg>
