<svg width="40" height="40" viewBox="0 0 40 40" fill="none" xmlns="http://www.w3.org/2000/svg">
<path d="M20 37.5C29.665 37.5 37.5 29.665 37.5 20C37.5 10.335 29.665 2.5 20 2.5C10.335 2.5 2.5 10.335 2.5 20C2.5 29.665 10.335 37.5 20 37.5Z" fill="#FFC84D"/>
<path d="M9.00149 19.1339C8.84593 19.0988 8.68423 19.1014 8.52988 19.1415C8.37552 19.1816 8.233 19.258 8.11419 19.3644C7.99538 19.4708 7.90373 19.604 7.8469 19.753C7.79007 19.902 7.7697 20.0625 7.78749 20.2209C8.16661 23.1926 9.6161 25.9241 11.8644 27.9038C14.1128 29.8835 17.0058 30.9757 20.0015 30.9757C22.9972 30.9757 25.8902 29.8835 28.1385 27.9038C30.3869 25.9241 31.8364 23.1926 32.2155 20.2209C32.2333 20.0625 32.2129 19.902 32.1561 19.753C32.0992 19.604 32.0076 19.4708 31.8888 19.3644C31.77 19.258 31.6275 19.1816 31.4731 19.1415C31.3188 19.1014 31.1571 19.0988 31.0015 19.1339C27.3945 19.9652 23.703 20.3743 20.0015 20.3529C16.3 20.3743 12.6085 19.9652 9.00149 19.1339Z" fill="#FF6D00"/>
<path d="M12.1928 16.2015C12.1371 16.229 12.0749 16.2404 12.013 16.2345C11.9512 16.2285 11.8922 16.2055 11.8428 16.1679C11.7933 16.1303 11.7553 16.0796 11.7331 16.0216C11.7108 15.9636 11.7052 15.9005 11.7168 15.8395C11.8494 15.1033 12.2364 14.4372 12.8103 13.9574C13.3842 13.4777 14.1084 13.2148 14.8563 13.2148C15.6043 13.2148 16.3285 13.4777 16.9024 13.9574C17.4762 14.4372 17.8633 15.1033 17.9958 15.8395C18.0075 15.9005 18.0019 15.9636 17.9796 16.0216C17.9574 16.0796 17.9194 16.1303 17.8699 16.1679C17.8205 16.2055 17.7615 16.2285 17.6997 16.2345C17.6378 16.2404 17.5755 16.229 17.5198 16.2015C16.6879 15.8051 15.7779 15.5995 14.8563 15.5995C13.9348 15.5995 13.0248 15.8051 12.1928 16.2015Z" fill="black"/>
<path d="M27.805 16.2015C27.8607 16.229 27.923 16.2404 27.9848 16.2345C28.0467 16.2285 28.1056 16.2055 28.1551 16.1679C28.2045 16.1303 28.2425 16.0796 28.2648 16.0216C28.287 15.9636 28.2926 15.9005 28.281 15.8395C28.1484 15.1033 27.7614 14.4372 27.1875 13.9574C26.6137 13.4777 25.8895 13.2148 25.1415 13.2148C24.3935 13.2148 23.6693 13.4777 23.0955 13.9574C22.5216 14.4372 22.1346 15.1033 22.002 15.8395C21.9904 15.9005 21.996 15.9636 22.0182 16.0216C22.0405 16.0796 22.0785 16.1303 22.1279 16.1679C22.1774 16.2055 22.2363 16.2285 22.2982 16.2345C22.36 16.2404 22.4223 16.229 22.478 16.2015C23.31 15.8051 24.2199 15.5995 25.1415 15.5995C26.0631 15.5995 26.973 15.8051 27.805 16.2015Z" fill="black"/>
<path d="M19.9376 23.3145C23.9848 23.2799 27.8863 21.7995 30.9376 19.1405C27.3505 19.9647 23.6801 20.3711 19.9996 20.3515C16.2605 20.3737 12.5319 19.9555 8.89062 19.1055C11.9499 21.7864 15.87 23.28 19.9376 23.3145Z" fill="white"/>
</svg>
