<svg width="40" height="40" viewBox="0 0 40 40" fill="none" xmlns="http://www.w3.org/2000/svg">
<path d="M18.2191 34.6091C18.7473 34.9588 19.3667 35.1453 20.0001 35.1453C20.6336 35.1453 21.253 34.9588 21.7811 34.6091C25.2161 32.3391 32.7021 26.9171 35.9241 20.8481C40.1751 12.8421 35.1831 4.85708 28.5861 4.85708C27.168 4.82986 25.7646 5.14833 24.497 5.78495C23.2295 6.42158 22.1361 7.35723 21.3111 8.51108C21.1609 8.71806 20.9638 8.88652 20.7359 9.00268C20.508 9.11885 20.2559 9.17941 20.0001 9.17941C19.7444 9.17941 19.4922 9.11885 19.2644 9.00268C19.0365 8.88652 18.8394 8.71806 18.6891 8.51108C17.8642 7.35723 16.7708 6.42158 15.5032 5.78495C14.2357 5.14833 12.8323 4.82986 11.4141 4.85708C4.81414 4.85708 -0.174855 12.8421 4.07615 20.8481C7.30015 26.9171 14.7841 32.3391 18.2191 34.6091Z" fill="#EF4452"/>
</svg>
