<svg xmlns="http://www.w3.org/2000/svg" width="38" height="38" fill="none" viewBox="0 0 38 38">
  <path fill="#FFC84D" d="M19 35.625c9.182 0 16.625-7.443 16.625-16.625S28.182 2.375 19 2.375 2.375 9.818 2.375 19 9.818 35.625 19 35.625Z"/>
  <path fill="#FF6D00" d="M8.55 18.176a.95.95 0 0 0-1.153 1.032 11.697 11.697 0 0 0 23.206 0 .95.95 0 0 0-1.153-1.032A45.368 45.368 0 0 1 19 19.334a45.367 45.367 0 0 1-10.45-1.158Z"/>
  <path fill="#000" d="M11.585 15.392a.317.317 0 0 1-.452-.344 3.03 3.03 0 0 1 5.965 0 .317.317 0 0 1-.453.344 5.884 5.884 0 0 0-5.06 0Zm14.832 0a.317.317 0 0 0 .452-.344 3.03 3.03 0 0 0-5.965 0 .317.317 0 0 0 .452.344 5.884 5.884 0 0 1 5.06 0Z"/>
  <path fill="#fff" d="M18.94 22.147a16.116 16.116 0 0 0 10.45-3.965 45.32 45.32 0 0 1-10.391 1.15 45.232 45.232 0 0 1-10.554-1.184 16.131 16.131 0 0 0 10.495 3.999Z"/>
  <path fill="#91766F" stroke="#FAF8F5" d="M26.5 9.06v.5h3.62v3.86h3.32V9.56h3.62V6.34h-3.62V2.5h-3.32v3.84H26.5v2.72Z"/>
</svg>
