<svg width="40" height="40" viewBox="0 0 40 40" fill="none" xmlns="http://www.w3.org/2000/svg">
<path d="M35.6237 11.5428C34.8564 11.3384 34.0393 11.4465 33.3515 11.8435C32.6637 12.2406 32.1615 12.8941 31.9547 13.6608L29.9677 18.0078L27.9407 14.4988L22.5187 4.29885C22.3612 4.00285 22.1468 3.74078 21.888 3.52762C21.6291 3.31446 21.3308 3.15437 21.01 3.0565C20.3623 2.85884 19.6625 2.92659 19.0647 3.24485C18.467 3.56311 18.0201 4.10581 17.8224 4.75356C17.7245 5.07429 17.6908 5.41116 17.7231 5.74493C17.7554 6.07871 17.8532 6.40285 18.0107 6.69885L22.6757 15.4728L21.5567 16.1188L15.4607 6.35985C15.288 6.0654 15.0579 5.80858 14.7842 5.60457C14.5104 5.40056 14.1986 5.2535 13.867 5.17208C13.5355 5.09067 13.191 5.07655 12.8539 5.13056C12.5168 5.18457 12.194 5.30562 11.9044 5.48655C11.6149 5.66748 11.3646 5.90461 11.1683 6.18393C10.972 6.46326 10.8338 6.7791 10.7616 7.11279C10.6895 7.44648 10.685 7.79124 10.7484 8.1267C10.8118 8.46216 10.9418 8.7815 11.1307 9.06585L17.1667 18.7248L16.3427 19.5358L9.99075 11.9668C9.55566 11.4482 8.93237 11.1237 8.25799 11.0646C7.58361 11.0055 6.91338 11.2168 6.39475 11.6518C5.87612 12.0869 5.55157 12.7102 5.49249 13.3846C5.43342 14.059 5.64466 14.7292 6.07975 15.2478L12.6927 23.1288L11.6837 24.1218L6.57475 18.8318C6.1046 18.3327 5.45544 18.0406 4.77003 18.02C4.08461 17.9994 3.41906 18.2518 2.91975 18.7218C2.43234 19.204 2.15632 19.8599 2.15239 20.5455C2.14845 21.2311 2.41691 21.8901 2.89875 22.3778L12.5077 32.3278L12.5237 32.3078C13.9466 34.1327 15.8504 35.5244 18.0209 36.3265C20.1915 37.1287 22.5427 37.3094 24.8104 36.8484C27.078 36.3874 29.172 35.3029 30.8571 33.717C32.5421 32.131 33.7513 30.1064 34.3487 27.8708L37.7407 15.2108C37.9449 14.4438 37.8368 13.627 37.44 12.9395C37.0432 12.252 36.3901 11.7498 35.6237 11.5428Z" fill="#FFC84D"/>
<path d="M30.9363 9.449C30.9364 8.8648 30.8215 8.28629 30.598 7.74652C30.3745 7.20675 30.0469 6.71628 29.6338 6.30314C29.2208 5.89 28.7304 5.56227 28.1907 5.33868C27.651 5.11508 27.0725 5 26.4883 5" stroke="#CECFCF" stroke-width="1.5" stroke-linecap="round" stroke-linejoin="round"/>
<path d="M33.8396 9.03378C33.8393 8.14925 33.6648 7.27342 33.326 6.45633C32.9873 5.63924 32.4909 4.89688 31.8652 4.27165C31.2395 3.64642 30.4967 3.15056 29.6794 2.8124C28.862 2.47424 27.9861 2.30039 27.1016 2.30078" stroke="#CECFCF" stroke-width="1.5" stroke-linecap="round" stroke-linejoin="round"/>
<path d="M28.9922 19.4844L26.6522 20.8354C25.7335 21.3658 25.0632 22.2395 24.7886 23.2642C24.5141 24.2889 24.6578 25.3807 25.1882 26.2994L25.7452 27.2644C26.1536 24.4386 27.2706 21.7621 28.9922 19.4844Z" fill="#FFA01D"/>
</svg>
